<svg xmlns="http://www.w3.org/2000/svg" width="512" height="512" viewBox="0 0 512 512" version="1.1">
    <defs>
        <linearGradient id="myGradient" x1="0%" y1="0%" x2="100%" y2="100%">
        <stop offset="0%" stop-color="#ffcea8" />
        <stop offset="100%" stop-color="#bf61ff" />
        </linearGradient>
    </defs>
    <path 
    d="M 27.500 64.987 C 24.750 65.401, 20.840 66.440, 18.810 67.294 C 13.559 69.505, 6.271 76.568, 3.161 82.460 C 0.500 87.500, 0.500 87.500, 0.500 256 C 0.500 424.500, 0.500 424.500, 3.195 429.608 C 6.727 436.302, 14.694 443.383, 21.280 445.680 C 26.270 447.420, 36.622 447.500, 256 447.500 C 483.022 447.500, 485.559 447.478, 490.933 445.500 C 498.215 442.820, 505.921 435.676, 508.897 428.848 C 510.179 425.906, 511.627 422.719, 512.114 421.764 C 513.393 419.257, 513.279 88.709, 512 89.500 C 511.450 89.840, 511 89.402, 511 88.526 C 511 82.221, 499.827 69.674, 491.244 66.342 C 486.689 64.573, 477.450 64.495, 259.500 64.366 C 134.650 64.293, 30.250 64.572, 27.500 64.987 M 23.491 77.865 C 18.450 80.155, 13.425 85.807, 12.060 90.723 C 10.664 95.751, 10.591 415.990, 11.985 421 C 13.346 425.892, 18.607 431.917, 23.429 434.107 C 27.351 435.888, 35.860 435.956, 256 435.956 C 474.881 435.956, 484.669 435.879, 488.509 434.135 C 493.550 431.845, 498.575 426.193, 499.940 421.277 C 501.403 416.007, 501.403 95.993, 499.940 90.723 C 498.575 85.807, 493.550 80.155, 488.509 77.865 C 484.669 76.121, 474.881 76.044, 256 76.044 C 37.119 76.044, 27.331 76.121, 23.491 77.865 M 0.488 256 C 0.488 347.575, 0.606 385.038, 0.750 339.250 C 0.894 293.463, 0.894 218.538, 0.750 172.750 C 0.606 126.963, 0.488 164.425, 0.488 256 M 404.762 107.051 C 400.767 109.430, 400.580 114.684, 404.400 117.235 C 405.005 117.639, 419.237 117.976, 436.027 117.985 C 462.056 117.998, 466.883 117.771, 468.777 116.443 C 471.316 114.665, 471.656 111.280, 469.582 108.441 C 468.238 106.602, 466.546 106.487, 437.332 106.258 C 417.431 106.101, 405.884 106.382, 404.762 107.051 M 83.882 123.381 C 75.208 126.481, 70.017 131.332, 66.072 140.028 C 64.180 144.200, 64.042 146.523, 64.022 174.628 C 63.998 207.445, 63.964 207.250, 69.675 207.250 C 74.354 207.250, 75 205.014, 75 188.809 C 75 174, 75 174, 93.475 174 C 111.949 174, 111.949 174, 112.225 189.722 C 112.495 205.180, 112.540 205.463, 114.893 206.635 C 117.923 208.144, 121.818 206.572, 122.582 203.531 C 122.875 202.362, 122.977 188.377, 122.808 172.453 C 122.500 143.500, 122.500 143.500, 119.797 138.377 C 116.431 131.995, 109.337 125.644, 103.266 123.575 C 97.728 121.688, 88.867 121.599, 83.882 123.381 M 139.699 123.780 C 138.161 125.480, 138.001 129.347, 138.015 164.579 C 138.024 185.985, 138.361 203.995, 138.765 204.600 C 141.385 208.523, 147.342 207.861, 149.015 203.462 C 150.560 199.397, 150.285 128.126, 148.712 125 C 147.086 121.767, 142.128 121.096, 139.699 123.780 M 87.193 134.350 C 82.593 136.017, 77.215 141.564, 76.017 145.879 C 75.464 147.871, 75.009 152.537, 75.006 156.250 C 75 163, 75 163, 93.648 163 C 112.296 163, 112.296 163, 111.684 155.052 C 110.950 145.538, 109.342 141.307, 105.105 137.742 C 99.880 133.345, 93.369 132.113, 87.193 134.350 M 402.496 149.365 C 400.702 152.104, 401.758 156.310, 404.505 157.364 C 405.417 157.714, 420.007 158, 436.927 158 C 465.460 158, 467.810 157.867, 469.345 156.171 C 471.245 154.071, 471.448 151.706, 469.965 148.934 C 468.974 147.083, 467.539 147, 436.488 147 C 404.046 147, 404.046 147, 402.496 149.365 M 181.655 164.829 C 179.755 166.929, 179.552 169.294, 181.035 172.066 C 182.038 173.940, 183.677 174, 233.535 174 C 285 174, 285 174, 285 188.868 C 285 203.736, 285 203.736, 278.256 207.618 C 264.900 215.306, 252.596 230.416, 247.817 245 C 244.886 253.946, 244.173 272.163, 246.405 281.084 C 249.046 291.640, 255.380 303.305, 262.661 311.024 C 274.095 323.144, 286.795 329.756, 303.197 332.128 C 310.921 333.245, 312.049 333.198, 314.393 331.662 C 317 329.954, 317 329.954, 317 300.477 C 317 271, 317 271, 346.378 271 C 380.366 271, 378.542 271.545, 378.171 261.495 C 377.603 246.100, 370.559 230.491, 358.996 219 C 350.500 210.557, 343.556 206.094, 332.835 202.184 C 326.170 199.753, 324.197 199.508, 311.250 199.504 C 297 199.500, 297 199.500, 297 183.250 C 297 168.333, 296.836 166.836, 295 165 C 293.049 163.049, 291.667 163, 238.155 163 C 186.292 163, 183.220 163.099, 181.655 164.829 M 402.997 188.503 C 401.168 190.707, 401.477 195.144, 403.566 196.672 C 404.984 197.709, 412.216 198, 436.536 198 C 465.448 198, 467.809 197.868, 469.345 196.171 C 471.431 193.867, 471.467 190.609, 469.429 188.571 C 467.115 186.258, 404.914 186.194, 402.997 188.503 M 305.500 210.497 C 304.950 210.684, 302.813 211.118, 300.750 211.463 C 297 212.091, 297 212.091, 297 225.091 C 297 237.560, 296.900 238.191, 294.545 240.545 C 293.195 241.895, 291.600 243, 291 243 C 290.400 243, 288.805 241.895, 287.455 240.545 C 285.157 238.248, 285 237.412, 285 227.489 C 285 216.887, 285 216.887, 281.852 218.693 C 280.121 219.687, 275.935 223.248, 272.552 226.606 C 255.208 243.818, 251.187 270.674, 262.711 292.325 C 266.470 299.387, 278.155 310.858, 285.500 314.696 C 290.756 317.443, 301.700 321, 304.894 321 C 305.676 321, 306 312.556, 306 292.155 C 306 265.480, 306.138 263.185, 307.829 261.655 C 309.441 260.196, 313.054 260, 338.348 260 C 370.653 260, 367.449 261.150, 364.807 250.500 C 363.001 243.218, 356.711 232.704, 350.345 226.323 C 340.436 216.390, 324.609 209.845, 311.066 210.079 C 308.555 210.122, 306.050 210.311, 305.500 210.497 M 334.872 289.652 C 332.899 292.027, 332.367 353.310, 334.287 357 C 335.535 359.396, 335.961 359.496, 344.544 359.403 C 359.821 359.238, 373.841 353.013, 385.987 341 C 397.515 329.598, 404.682 314.342, 405.739 298.951 C 406.543 287.254, 409.010 288, 369.551 288 C 339.803 288, 336.098 288.177, 334.872 289.652 M 199.400 299.765 C 196.200 301.902, 196 305.025, 196 352.980 C 196 401.091, 196 401.091, 198.517 403.608 C 200.352 405.443, 201.638 405.945, 203.267 405.461 C 208.050 404.041, 208 404.603, 208 352.309 C 208 304.333, 207.946 302.946, 206 301 C 203.950 298.950, 201.350 298.463, 199.400 299.765 M 345 323.863 C 345 348.727, 345 348.727, 350.250 347.832 C 353.137 347.340, 359.184 345.143, 363.687 342.951 C 377.318 336.315, 388.208 323.470, 392.414 309.068 C 395.599 298.160, 397.511 299, 369.500 299 C 345 299, 345 299, 345 323.863 M 42.035 323.934 C 41.374 325.170, 41 339.548, 41 363.743 C 41 404.728, 41.067 405.250, 46.325 405.250 C 52.141 405.250, 52 406.285, 52 363.578 C 52 334.439, 51.692 324.092, 50.800 323.200 C 48.846 321.246, 43.222 321.717, 42.035 323.934 M 104.699 323.780 C 103.163 325.477, 103 329.305, 103 363.638 C 103 392.507, 103.300 401.999, 104.250 403.208 C 106.343 405.871, 109.491 406.233, 112.111 404.112 C 114.500 402.178, 114.500 402.178, 114.754 364.839 C 114.950 336.106, 114.714 326.924, 113.731 325 C 112.081 321.768, 107.125 321.099, 104.699 323.780 M 138 344.694 C 134.219 346.045, 134 347.713, 134 375.119 C 134 401.855, 134 401.855, 136.635 403.927 C 139.984 406.562, 140.561 406.530, 143.545 403.545 C 146 401.091, 146 401.091, 146 375 C 146 348.909, 146 348.909, 143.545 346.455 C 141.018 343.927, 140.556 343.780, 138 344.694 M 73.571 353.571 C 72.235 354.908, 72 358.553, 72 377.990 C 72 390.555, 72.286 401.583, 72.636 402.495 C 73.690 405.242, 77.896 406.298, 80.635 404.504 C 83 402.954, 83 402.954, 83 378.677 C 83 361.128, 82.667 354.067, 81.800 353.200 C 80.101 351.501, 75.431 351.712, 73.571 353.571 M 168.400 369.765 C 165.713 371.559, 165 375.380, 165 387.980 C 165 400.567, 165.098 401.189, 167.455 403.545 C 170.439 406.530, 171.016 406.562, 174.365 403.927 C 176.994 401.859, 177 401.823, 177 387.427 C 177 374.333, 176.815 372.815, 175 371 C 172.950 368.950, 170.350 368.463, 168.400 369.765" 
    stroke="none" 
    fill="url(#myGradient)" 
    fill-rule="evenodd"/>
</svg>