<?xml version="1.0" encoding="UTF-8"?>
<!DOCTYPE svg PUBLIC "-//W3C//DTD SVG 1.1//EN" "http://www.w3.org/Graphics/SVG/1.1/DTD/svg11.dtd">
<svg xmlns="http://www.w3.org/2000/svg" version="1.1" width="512px" height="512px" style="shape-rendering:geometricPrecision; text-rendering:geometricPrecision; image-rendering:optimizeQuality; fill-rule:evenodd; clip-rule:evenodd" xmlns:xlink="http://www.w3.org/1999/xlink">
<g><path style="opacity:0.926" fill="#8e5def" d="M 36.5,63.5 C 42.567,65.8724 47.567,69.8724 51.5,75.5C 43.4931,75.3336 35.4931,75.5003 27.5,76C 23.0252,77.4021 19.0252,79.5688 15.5,82.5C 13.1938,79.5271 10.5272,76.8605 7.5,74.5C 15.3168,66.3335 24.9835,62.6668 36.5,63.5 Z"/></g>
<g><path style="opacity:0.952" fill="#8664ee" d="M 36.5,63.5 C 45.1667,63.5 53.8333,63.5 62.5,63.5C 65.6293,67.1309 68.9626,70.6309 72.5,74C 71.2625,74.2321 70.2625,74.7321 69.5,75.5C 63.5,75.5 57.5,75.5 51.5,75.5C 47.567,69.8724 42.567,65.8724 36.5,63.5 Z"/></g>
<g><path style="opacity:0.932" fill="#7473eb" d="M 104.5,63.5 C 110.167,63.5 115.833,63.5 121.5,63.5C 124.641,64.3213 127.975,64.8213 131.5,65C 135.305,70.0141 139.971,73.5141 145.5,75.5C 134.167,75.5 122.833,75.5 111.5,75.5C 112.263,74.7321 113.263,74.2321 114.5,74C 110.963,70.6309 107.629,67.1309 104.5,63.5 Z"/></g>
<g><path style="opacity:0.901" fill="#657fe9" d="M 151.5,63.5 C 163.167,63.5 174.833,63.5 186.5,63.5C 190.433,69.1276 195.433,73.1276 201.5,75.5C 190.167,75.5 178.833,75.5 167.5,75.5C 163.46,69.4191 158.127,65.4191 151.5,63.5 Z"/></g>
<g><path style="opacity:0.867" fill="#5d87e9" d="M 186.5,63.5 C 196.5,63.5 206.5,63.5 216.5,63.5C 215.391,64.29 214.058,64.79 212.5,65C 216.037,68.3691 219.371,71.8691 222.5,75.5C 215.5,75.5 208.5,75.5 201.5,75.5C 195.433,73.1276 190.433,69.1276 186.5,63.5 Z"/></g>
<g><path style="opacity:0.846" fill="#558de8" d="M 216.5,63.5 C 227.833,63.5 239.167,63.5 250.5,63.5C 249.391,64.29 248.058,64.79 246.5,65C 250.037,68.3691 253.371,71.8691 256.5,75.5C 245.167,75.5 233.833,75.5 222.5,75.5C 219.371,71.8691 216.037,68.3691 212.5,65C 214.058,64.79 215.391,64.29 216.5,63.5 Z"/></g>
<g><path style="opacity:0.894" fill="#3aa5e3" d="M 318.5,63.5 C 327.167,63.5 335.833,63.5 344.5,63.5C 347.629,67.1309 350.963,70.6309 354.5,74C 353.263,74.2321 352.263,74.7321 351.5,75.5C 344.167,75.5 336.833,75.5 329.5,75.5C 325.833,71.5 322.167,67.5 318.5,63.5 Z"/></g>
<g><path style="opacity:0.869" fill="#33abe2" d="M 344.5,63.5 C 355.833,63.5 367.167,63.5 378.5,63.5C 376.369,64.3138 374.036,64.8138 371.5,65C 375.305,70.0141 379.971,73.5141 385.5,75.5C 374.167,75.5 362.833,75.5 351.5,75.5C 352.263,74.7321 353.263,74.2321 354.5,74C 350.963,70.6309 347.629,67.1309 344.5,63.5 Z"/></g>
<g><path style="opacity:0.887" fill="#2ab2e1" d="M 378.5,63.5 C 388.5,63.5 398.5,63.5 408.5,63.5C 406.369,64.3138 404.036,64.8138 401.5,65C 404.5,68 407.5,71 410.5,74C 408.942,74.21 407.609,74.71 406.5,75.5C 399.5,75.5 392.5,75.5 385.5,75.5C 379.971,73.5141 375.305,70.0141 371.5,65C 374.036,64.8138 376.369,64.3138 378.5,63.5 Z"/></g>
<g><path style="opacity:0.95" fill="#7d6bed" d="M 62.5,63.5 C 76.5,63.5 90.5,63.5 104.5,63.5C 107.629,67.1309 110.963,70.6309 114.5,74C 113.263,74.2321 112.263,74.7321 111.5,75.5C 97.5,75.5 83.5,75.5 69.5,75.5C 70.2625,74.7321 71.2625,74.2321 72.5,74C 68.9626,70.6309 65.6293,67.1309 62.5,63.5 Z"/></g>
<g><path style="opacity:0.959" fill="#6d79ea" d="M 121.5,63.5 C 131.5,63.5 141.5,63.5 151.5,63.5C 158.127,65.4191 163.46,69.4191 167.5,75.5C 160.167,75.5 152.833,75.5 145.5,75.5C 139.971,73.5141 135.305,70.0141 131.5,65C 127.975,64.8213 124.641,64.3213 121.5,63.5 Z"/></g>
<g><path style="opacity:0.958" fill="#4e94e7" d="M 250.5,63.5 C 260.5,63.5 270.5,63.5 280.5,63.5C 277.695,64.3195 274.695,64.8195 271.5,65C 275.037,68.3691 278.371,71.8691 281.5,75.5C 273.167,75.5 264.833,75.5 256.5,75.5C 253.371,71.8691 250.037,68.3691 246.5,65C 248.058,64.79 249.391,64.29 250.5,63.5 Z"/></g>
<g><path style="opacity:0.958" fill="#439de5" d="M 280.5,63.5 C 293.167,63.5 305.833,63.5 318.5,63.5C 322.167,67.5 325.833,71.5 329.5,75.5C 313.5,75.5 297.5,75.5 281.5,75.5C 278.371,71.8691 275.037,68.3691 271.5,65C 274.695,64.8195 277.695,64.3195 280.5,63.5 Z"/></g>
<g><path style="opacity:0.964" fill="#1fbce0" d="M 408.5,63.5 C 420.167,63.5 431.833,63.5 443.5,63.5C 451.787,63.7445 457.787,67.7445 461.5,75.5C 443.167,75.5 424.833,75.5 406.5,75.5C 407.609,74.71 408.942,74.21 410.5,74C 407.5,71 404.5,68 401.5,65C 404.036,64.8138 406.369,64.3138 408.5,63.5 Z"/></g>
<g><path style="opacity:0.953" fill="#13c7de" d="M 443.5,63.5 C 456.171,63.3334 468.838,63.5001 481.5,64C 496.836,65.8116 506.836,73.9783 511.5,88.5C 511.5,100.167 511.5,111.833 511.5,123.5C 507.833,120.167 504.167,116.833 500.5,113.5C 504.653,83.3206 491.653,70.6539 461.5,75.5C 457.787,67.7445 451.787,63.7445 443.5,63.5 Z"/></g>
<g><path style="opacity:0.965" fill="#9d50f1" d="M 7.5,74.5 C 10.5272,76.8605 13.1938,79.5271 15.5,82.5C 13.472,85.8974 11.972,89.5641 11,93.5C 10.5001,105.162 10.3335,116.829 10.5,128.5C 8.02373,123.341 4.35706,119.008 -0.5,115.5C -0.5,106.5 -0.5,97.5 -0.5,88.5C 1.12723,83.2463 3.79389,78.5796 7.5,74.5 Z"/></g>
<g><path style="opacity:0.889" fill="#2cb1e2" d="M 446.5,105.5 C 445.737,106.268 444.737,106.768 443.5,107C 447.037,110.369 450.371,113.869 453.5,117.5C 437.163,117.667 420.83,117.5 404.5,117C 399.167,113.333 399.167,109.667 404.5,106C 418.496,105.5 432.496,105.333 446.5,105.5 Z"/></g>
<g><path style="opacity:0.881" fill="#23b8e1" d="M 446.5,105.5 C 453.175,105.334 459.842,105.5 466.5,106C 471.414,109.171 471.747,112.837 467.5,117C 462.845,117.499 458.179,117.666 453.5,117.5C 450.371,113.869 447.037,110.369 443.5,107C 444.737,106.768 445.737,106.268 446.5,105.5 Z"/></g>
<g><path style="opacity:0.954" fill="#8c5fef" d="M 122.5,171.5 C 120.514,165.971 117.014,161.305 112,157.5C 111.802,159.382 111.302,161.048 110.5,162.5C 110.666,156.824 110.499,151.157 110,145.5C 106.032,135.688 98.8658,131.688 88.5,133.5C 85.7291,131.233 83.0625,128.733 80.5,126C 79.552,125.517 78.552,125.351 77.5,125.5C 88.1245,120.086 98.7912,120.252 109.5,126C 116.009,130.522 120.175,136.688 122,144.5C 122.5,153.494 122.666,162.494 122.5,171.5 Z"/></g>
<g><path style="opacity:0.851" fill="#8068ee" d="M 149.5,165.5 C 148.673,160.349 148.173,155.016 148,149.5C 145,146.5 142,143.5 139,140.5C 138.768,141.737 138.268,142.737 137.5,143.5C 137.205,136.774 137.538,130.108 138.5,123.5C 141.703,120.878 144.87,120.878 148,123.5C 149.465,137.402 149.965,151.402 149.5,165.5 Z"/></g>
<g><path style="opacity:0.968" fill="#9656f0" d="M 77.5,125.5 C 78.552,125.351 79.552,125.517 80.5,126C 83.0625,128.733 85.7291,131.233 88.5,133.5C 82.641,135.189 78.4743,138.856 76,144.5C 74.6392,150.407 74.1392,156.407 74.5,162.5C 86.5,162.5 98.5,162.5 110.5,162.5C 111.302,161.048 111.802,159.382 112,157.5C 117.014,161.305 120.514,165.971 122.5,171.5C 122.667,182.505 122.5,193.505 122,204.5C 117.54,208.687 113.873,208.02 111,202.5C 110.5,192.839 110.334,183.172 110.5,173.5C 100.5,173.5 90.5,173.5 80.5,173.5C 75.1667,167.5 69.5,161.833 63.5,156.5C 61.6389,143.038 66.3055,132.705 77.5,125.5 Z"/></g>
<g><path style="opacity:0.971" fill="#21bae0" d="M 500.5,113.5 C 504.167,116.833 507.833,120.167 511.5,123.5C 511.5,140.5 511.5,157.5 511.5,174.5C 507.833,171.167 504.167,167.833 500.5,164.5C 500.5,147.5 500.5,130.5 500.5,113.5 Z"/></g>
<g><path style="opacity:0.845" fill="#3aa5e3" d="M 443.5,145.5 C 438.349,146.327 433.016,146.827 427.5,147C 431.305,152.014 435.971,155.514 441.5,157.5C 428.829,157.667 416.162,157.5 403.5,157C 399.338,152.481 400.004,148.814 405.5,146C 418.162,145.5 430.829,145.333 443.5,145.5 Z"/></g>
<g><path style="opacity:0.971" fill="#31ace2" d="M 443.5,145.5 C 450.841,145.334 458.174,145.5 465.5,146C 470.411,147.506 471.744,150.673 469.5,155.5C 468.975,156.192 468.308,156.692 467.5,157C 458.84,157.5 450.173,157.666 441.5,157.5C 435.971,155.514 431.305,152.014 427.5,147C 433.016,146.827 438.349,146.327 443.5,145.5 Z"/></g>
<g><path style="opacity:0.962" fill="#a945f3" d="M -0.5,115.5 C 4.35706,119.008 8.02373,123.341 10.5,128.5C 10.5,142.167 10.5,155.833 10.5,169.5C 6.83333,166.167 3.16667,162.833 -0.5,159.5C -0.5,144.833 -0.5,130.167 -0.5,115.5 Z"/></g>
<g><path style="opacity:0.941" fill="#8862ee" d="M 149.5,165.5 C 149.5,169.167 149.5,172.833 149.5,176.5C 148.676,180.312 148.176,184.312 148,188.5C 145,185.5 142,182.5 139,179.5C 138.768,180.737 138.268,181.737 137.5,182.5C 137.5,169.5 137.5,156.5 137.5,143.5C 138.268,142.737 138.768,141.737 139,140.5C 142,143.5 145,146.5 148,149.5C 148.173,155.016 148.673,160.349 149.5,165.5 Z"/></g>
<g><path style="opacity:0.983" fill="#7b6ded" d="M 199.5,162.5 C 205.228,164.532 209.894,168.199 213.5,173.5C 202.828,173.667 192.161,173.5 181.5,173C 179.297,170.24 178.964,167.24 180.5,164C 186.715,162.584 193.048,162.084 199.5,162.5 Z"/></g>
<g><path style="opacity:0.981" fill="#7473ec" d="M 199.5,162.5 C 208.167,162.5 216.833,162.5 225.5,162.5C 231.228,164.532 235.894,168.199 239.5,173.5C 230.833,173.5 222.167,173.5 213.5,173.5C 209.894,168.199 205.228,164.532 199.5,162.5 Z"/></g>
<g><path style="opacity:0.977" fill="#6d79eb" d="M 225.5,162.5 C 235.833,162.5 246.167,162.5 256.5,162.5C 259.098,166.438 262.098,170.105 265.5,173.5C 256.833,173.5 248.167,173.5 239.5,173.5C 235.894,168.199 231.228,164.532 225.5,162.5 Z"/></g>
<g><path style="opacity:0.94" fill="#657fe9" d="M 256.5,162.5 C 268.838,162.333 281.171,162.5 293.5,163C 294.701,163.903 295.535,165.069 296,166.5C 296.5,177.495 296.667,188.495 296.5,199.5C 302.464,198.693 308.464,198.36 314.5,198.5C 317.963,202.464 321.63,206.298 325.5,210C 324.944,210.383 324.611,210.883 324.5,211.5C 316.918,209.375 309.251,209.042 301.5,210.5C 296.931,204.424 291.764,198.758 286,193.5C 285.722,194.416 285.222,195.082 284.5,195.5C 284.5,188.167 284.5,180.833 284.5,173.5C 278.167,173.5 271.833,173.5 265.5,173.5C 262.098,170.105 259.098,166.438 256.5,162.5 Z"/></g>
<g><path style="opacity:0.97" fill="#2cb1e2" d="M 500.5,164.5 C 504.167,167.833 507.833,171.167 511.5,174.5C 511.5,184.5 511.5,194.5 511.5,204.5C 507.833,201.167 504.167,197.833 500.5,194.5C 500.5,184.5 500.5,174.5 500.5,164.5 Z"/></g>
<g><path style="opacity:0.898" fill="#915af0" d="M 149.5,176.5 C 149.666,185.173 149.5,193.84 149,202.5C 146.127,208.02 142.46,208.687 138,204.5C 137.5,197.174 137.334,189.841 137.5,182.5C 138.268,181.737 138.768,180.737 139,179.5C 142,182.5 145,185.5 148,188.5C 148.176,184.312 148.676,180.312 149.5,176.5 Z"/></g>
<g><path style="opacity:0.97" fill="#b63bf5" d="M -0.5,159.5 C 3.16667,162.833 6.83333,166.167 10.5,169.5C 10.5,185.167 10.5,200.833 10.5,216.5C 6.83333,213.167 3.16667,209.833 -0.5,206.5C -0.5,190.833 -0.5,175.167 -0.5,159.5 Z"/></g>
<g><path style="opacity:0.98" fill="#a34bf2" d="M 63.5,156.5 C 69.5,161.833 75.1667,167.5 80.5,173.5C 78.5,173.5 76.5,173.5 74.5,173.5C 74.6665,183.839 74.4998,194.172 74,204.5C 70.6667,208.5 67.3333,208.5 64,204.5C 63.5001,188.503 63.3334,172.503 63.5,156.5 Z"/></g>
<g><path style="opacity:0.97" fill="#439de5" d="M 441.5,186.5 C 444.833,190.167 448.167,193.833 451.5,197.5C 435.497,197.667 419.497,197.5 403.5,197C 399.5,193.667 399.5,190.333 403.5,187C 416.162,186.5 428.829,186.333 441.5,186.5 Z"/></g>
<g><path style="opacity:0.97" fill="#3aa5e4" d="M 441.5,186.5 C 450.506,186.334 459.506,186.5 468.5,187C 471.333,190.663 471,193.996 467.5,197C 462.177,197.499 456.844,197.666 451.5,197.5C 448.167,193.833 444.833,190.167 441.5,186.5 Z"/></g>
<g><path style="opacity:0.941" fill="#6f78eb" d="M 301.5,210.5 C 299.883,211.038 298.216,211.371 296.5,211.5C 296.666,220.506 296.5,229.506 296,238.5C 292.333,243.833 288.667,243.833 285,238.5C 284.5,231.508 284.334,224.508 284.5,217.5C 281.461,214.46 278.127,211.794 274.5,209.5C 277.349,207.15 280.515,205.15 284,203.5C 284.497,200.854 284.664,198.187 284.5,195.5C 285.222,195.082 285.722,194.416 286,193.5C 291.764,198.758 296.931,204.424 301.5,210.5 Z"/></g>
<g><path style="opacity:0.963" fill="#6085e9" d="M 314.5,198.5 C 344.492,200.913 364.659,216.246 375,244.5C 376.575,250.131 377.742,255.797 378.5,261.5C 373.558,257.897 368.892,253.897 364.5,249.5C 357.372,230.373 344.039,217.707 324.5,211.5C 324.611,210.883 324.944,210.383 325.5,210C 321.63,206.298 317.963,202.464 314.5,198.5 Z"/></g>
<g><path style="opacity:0.97" fill="#33abe3" d="M 500.5,194.5 C 504.167,197.833 507.833,201.167 511.5,204.5C 511.5,213.167 511.5,221.833 511.5,230.5C 507.833,227.167 504.167,223.833 500.5,220.5C 500.5,211.833 500.5,203.167 500.5,194.5 Z"/></g>
<g><path style="opacity:0.935" fill="#7473eb" d="M 274.5,209.5 C 278.127,211.794 281.461,214.46 284.5,217.5C 281.91,218.128 279.577,219.295 277.5,221C 274.631,224.038 271.631,226.871 268.5,229.5C 266.573,226.233 264.239,223.233 261.5,220.5C 264.948,215.713 269.281,212.046 274.5,209.5 Z"/></g>
<g><path style="opacity:0.974" fill="#7b6ded" d="M 261.5,220.5 C 264.239,223.233 266.573,226.233 268.5,229.5C 265.102,234.238 262.102,239.238 259.5,244.5C 256.233,242.573 253.233,240.239 250.5,237.5C 252.924,230.973 256.591,225.307 261.5,220.5 Z"/></g>
<g><path style="opacity:0.977" fill="#3aa5e4" d="M 500.5,220.5 C 504.167,223.833 507.833,227.167 511.5,230.5C 511.5,239.167 511.5,247.833 511.5,256.5C 507.833,253.167 504.167,249.833 500.5,246.5C 500.5,237.833 500.5,229.167 500.5,220.5 Z"/></g>
<g><path style="opacity:0.965" fill="#c230f6" d="M -0.5,206.5 C 3.16667,209.833 6.83333,213.167 10.5,216.5C 10.5,232.5 10.5,248.5 10.5,264.5C 6.83333,261.167 3.16667,257.833 -0.5,254.5C -0.5,238.5 -0.5,222.5 -0.5,206.5 Z"/></g>
<g><path style="opacity:0.961" fill="#419fe5" d="M 500.5,246.5 C 504.167,249.833 507.833,253.167 511.5,256.5C 511.5,264.833 511.5,273.167 511.5,281.5C 508.203,278.704 505.036,275.704 502,272.5C 501.79,274.058 501.29,275.391 500.5,276.5C 500.5,266.5 500.5,256.5 500.5,246.5 Z"/></g>
<g><path style="opacity:0.951" fill="#8466ee" d="M 250.5,237.5 C 253.233,240.239 256.233,242.573 259.5,244.5C 256.619,252.572 255.286,260.905 255.5,269.5C 251.833,266.167 248.167,262.833 244.5,259.5C 244.652,251.548 246.652,244.214 250.5,237.5 Z"/></g>
<g><path style="opacity:0.955" fill="#667fea" d="M 364.5,249.5 C 368.892,253.897 373.558,257.897 378.5,261.5C 379.125,265.927 377.459,268.927 373.5,270.5C 369.833,270.5 366.167,270.5 362.5,270.5C 359.098,267.105 356.098,263.438 353.5,259.5C 357.846,259.666 362.179,259.499 366.5,259C 365.39,255.951 364.723,252.784 364.5,249.5 Z"/></g>
<g><path style="opacity:0.966" fill="#7374ec" d="M 330.5,259.5 C 329.261,260.212 328.761,261.212 329,262.5C 331.5,265 334,267.5 336.5,270C 345.16,270.5 353.827,270.666 362.5,270.5C 366.167,270.5 369.833,270.5 373.5,270.5C 354.674,271.497 335.674,271.83 316.5,271.5C 315.732,272.263 315.232,273.263 315,274.5C 311.964,271.296 308.797,268.296 305.5,265.5C 305.329,263.007 306.329,261.174 308.5,260C 315.826,259.5 323.159,259.334 330.5,259.5 Z"/></g>
<g><path style="opacity:0.964" fill="#6d79eb" d="M 330.5,259.5 C 338.167,259.5 345.833,259.5 353.5,259.5C 356.098,263.438 359.098,267.105 362.5,270.5C 353.827,270.666 345.16,270.5 336.5,270C 334,267.5 331.5,265 329,262.5C 328.761,261.212 329.261,260.212 330.5,259.5 Z"/></g>
<g><path style="opacity:0.95" fill="#8c5fef" d="M 244.5,259.5 C 248.167,262.833 251.833,266.167 255.5,269.5C 260.07,298.403 276.736,315.403 305.5,320.5C 309.194,323.527 312.527,326.86 315.5,330.5C 291.616,333.159 272.116,324.825 257,305.5C 247.016,291.719 242.849,276.386 244.5,259.5 Z"/></g>
<g><path style="opacity:0.974" fill="#4799e5" d="M 511.5,281.5 C 511.5,289.167 511.5,296.833 511.5,304.5C 507.833,301.167 504.167,297.833 500.5,294.5C 500.5,288.5 500.5,282.5 500.5,276.5C 501.29,275.391 501.79,274.058 502,272.5C 505.036,275.704 508.203,278.704 511.5,281.5 Z"/></g>
<g><path style="opacity:0.97" fill="#cf25f8" d="M -0.5,254.5 C 3.16667,257.833 6.83333,261.167 10.5,264.5C 10.5,279.167 10.5,293.833 10.5,308.5C 5.19895,304.894 1.53228,300.228 -0.5,294.5C -0.5,281.167 -0.5,267.833 -0.5,254.5 Z"/></g>
<g><path style="opacity:0.986" fill="#7c6cec" d="M 305.5,265.5 C 308.797,268.296 311.964,271.296 315,274.5C 315.232,273.263 315.732,272.263 316.5,271.5C 316.5,281.5 316.5,291.5 316.5,301.5C 312.203,298.871 308.537,295.537 305.5,291.5C 305.5,282.833 305.5,274.167 305.5,265.5 Z"/></g>
<g><path style="opacity:0.969" fill="#7473eb" d="M 354.5,287.5 C 357.296,290.797 360.296,293.964 363.5,297C 362.263,297.232 361.263,297.732 360.5,298.5C 355.167,298.5 349.833,298.5 344.5,298.5C 344.5,301.5 344.5,304.5 344.5,307.5C 342.128,301.433 338.128,296.433 332.5,292.5C 333.117,290.771 334.117,289.271 335.5,288C 341.825,287.5 348.158,287.334 354.5,287.5 Z"/></g>
<g><path style="opacity:0.965" fill="#6a7cea" d="M 354.5,287.5 C 370.837,287.333 387.17,287.5 403.5,288C 406.554,301.919 404.221,315.085 396.5,327.5C 395.448,327.649 394.448,327.483 393.5,327C 391.297,324.628 388.963,322.461 386.5,320.5C 390.436,313.692 392.769,306.358 393.5,298.5C 382.5,298.5 371.5,298.5 360.5,298.5C 361.263,297.732 362.263,297.232 363.5,297C 360.296,293.964 357.296,290.797 354.5,287.5 Z"/></g>
<g><path style="opacity:0.977" fill="#4e94e6" d="M 500.5,294.5 C 504.167,297.833 507.833,301.167 511.5,304.5C 511.5,312.833 511.5,321.167 511.5,329.5C 507.833,326.167 504.167,322.833 500.5,319.5C 500.5,311.167 500.5,302.833 500.5,294.5 Z"/></g>
<g><path style="opacity:0.961" fill="#8366ee" d="M 305.5,291.5 C 308.537,295.537 312.203,298.871 316.5,301.5C 316.806,311.25 316.473,320.916 315.5,330.5C 312.527,326.86 309.194,323.527 305.5,320.5C 305.5,310.833 305.5,301.167 305.5,291.5 Z"/></g>
<g><path style="opacity:0.953" fill="#7c6ced" d="M 332.5,292.5 C 338.128,296.433 342.128,301.433 344.5,307.5C 344.5,316.167 344.5,324.833 344.5,333.5C 342.067,328.54 338.567,324.207 334,320.5C 333.823,316.644 333.323,312.977 332.5,309.5C 332.5,303.833 332.5,298.167 332.5,292.5 Z"/></g>
<g><path style="opacity:0.947" fill="#a44af2" d="M 207.5,347.5 C 205.067,342.54 201.567,338.207 197,334.5C 196.79,332.942 196.29,331.609 195.5,330.5C 195.334,321.161 195.5,311.827 196,302.5C 199.26,297.715 202.927,297.381 207,301.5C 207.5,316.83 207.667,332.163 207.5,347.5 Z"/></g>
<g><path style="opacity:0.993" fill="#db1bfa" d="M -0.5,294.5 C 1.53228,300.228 5.19895,304.894 10.5,308.5C 10.5,323.167 10.5,337.833 10.5,352.5C 6.83333,349.167 3.16667,345.833 -0.5,342.5C -0.5,326.5 -0.5,310.5 -0.5,294.5 Z"/></g>
<g><path style="opacity:0.94" fill="#7473ec" d="M 386.5,320.5 C 388.963,322.461 391.297,324.628 393.5,327C 394.448,327.483 395.448,327.649 396.5,327.5C 392.922,333.747 388.256,339.08 382.5,343.5C 380.573,340.233 378.239,337.233 375.5,334.5C 379.929,330.407 383.596,325.741 386.5,320.5 Z"/></g>
<g><path style="opacity:0.97" fill="#548ee7" d="M 500.5,319.5 C 504.167,322.833 507.833,326.167 511.5,329.5C 511.5,336.833 511.5,344.167 511.5,351.5C 507.833,348.167 504.167,344.833 500.5,341.5C 500.5,334.167 500.5,326.833 500.5,319.5 Z"/></g>
<g><path style="opacity:0.889" fill="#c230f6" d="M 114.5,364.5 C 110.5,360.833 106.5,357.167 102.5,353.5C 102.334,343.828 102.5,334.161 103,324.5C 107.031,318.985 110.698,319.318 114,325.5C 114.5,338.496 114.667,351.496 114.5,364.5 Z"/></g>
<g><path style="opacity:0.965" fill="#8466ee" d="M 332.5,309.5 C 333.323,312.977 333.823,316.644 334,320.5C 338.567,324.207 342.067,328.54 344.5,333.5C 344.5,338.167 344.5,342.833 344.5,347.5C 348.913,347.313 353.246,346.646 357.5,345.5C 361.1,347.43 364.1,350.097 366.5,353.5C 364.402,354.935 362.069,356.102 359.5,357C 352.894,358.626 346.228,359.792 339.5,360.5C 337.386,359.966 335.552,358.966 334,357.5C 332.53,341.596 332.03,325.596 332.5,309.5 Z"/></g>
<g><path style="opacity:0.962" fill="#7b6ded" d="M 375.5,334.5 C 378.239,337.233 380.573,340.233 382.5,343.5C 377.97,348.013 372.637,351.346 366.5,353.5C 364.1,350.097 361.1,347.43 357.5,345.5C 363.985,342.693 369.985,339.027 375.5,334.5 Z"/></g>
<g><path style="opacity:0.967" fill="#d520f9" d="M 51.5,371.5 C 47.8333,368.167 44.1667,364.833 40.5,361.5C 40.3334,348.829 40.5001,336.162 41,323.5C 44.3333,319.5 47.6667,319.5 51,323.5C 51.4999,339.497 51.6666,355.497 51.5,371.5 Z"/></g>
<g><path style="opacity:0.969" fill="#df18fa" d="M 40.5,361.5 C 44.1667,364.833 47.8333,368.167 51.5,371.5C 51.6665,381.839 51.4998,392.172 51,402.5C 47.6667,406.5 44.3333,406.5 41,402.5C 40.5001,388.837 40.3334,375.171 40.5,361.5 Z"/></g>
<g><path style="opacity:0.914" fill="#c32ff7" d="M 137.5,343.5 C 140.961,343.146 143.461,344.479 145,347.5C 145.667,365.5 145.667,383.5 145,401.5C 141.333,406.833 137.667,406.833 134,401.5C 133.333,383.5 133.333,365.5 134,347.5C 134.69,345.65 135.856,344.316 137.5,343.5 Z"/></g>
<g><path style="opacity:0.97" fill="#5e86e9" d="M 500.5,341.5 C 504.167,344.833 507.833,348.167 511.5,351.5C 511.5,365.167 511.5,378.833 511.5,392.5C 510.778,392.918 510.278,393.584 510,394.5C 506.964,391.296 503.797,388.296 500.5,385.5C 500.5,370.833 500.5,356.167 500.5,341.5 Z"/></g>
<g><path style="opacity:0.97" fill="#e810fb" d="M -0.5,342.5 C 3.16667,345.833 6.83333,349.167 10.5,352.5C 10.5,368.167 10.5,383.833 10.5,399.5C 6.83333,396.167 3.16667,392.833 -0.5,389.5C -0.5,373.833 -0.5,358.167 -0.5,342.5 Z"/></g>
<g><path style="opacity:0.967" fill="#b23ef4" d="M 195.5,330.5 C 196.29,331.609 196.79,332.942 197,334.5C 201.567,338.207 205.067,342.54 207.5,347.5C 207.667,365.836 207.5,384.17 207,402.5C 203.94,405.936 200.607,406.269 197,403.5C 195.529,379.232 195.029,354.899 195.5,330.5 Z"/></g>
<g><path style="opacity:0.899" fill="#be34f6" d="M 168.5,368.5 C 171.961,368.146 174.461,369.479 176,372.5C 176.667,382.167 176.667,391.833 176,401.5C 172.333,406.833 168.667,406.833 165,401.5C 164.333,391.833 164.333,382.167 165,372.5C 165.69,370.65 166.856,369.316 168.5,368.5 Z"/></g>
<g><path style="opacity:0.981" fill="#d61ff9" d="M 73.5,351.5 C 75.8568,351.337 78.1902,351.503 80.5,352C 81.8932,353.171 82.7265,354.671 83,356.5C 83.6667,371.167 83.6667,385.833 83,400.5C 80.1269,406.02 76.4603,406.687 72,402.5C 71.3333,386.167 71.3333,369.833 72,353.5C 72.7172,352.956 73.2172,352.289 73.5,351.5 Z"/></g>
<g><path style="opacity:0.938" fill="#cf25f8" d="M 102.5,353.5 C 106.5,357.167 110.5,360.833 114.5,364.5C 114.667,376.505 114.5,388.505 114,400.5C 111.395,406.23 107.728,406.897 103,402.5C 102.5,386.17 102.333,369.837 102.5,353.5 Z"/></g>
<g><path style="opacity:0.968" fill="#667fea" d="M 500.5,385.5 C 503.797,388.296 506.964,391.296 510,394.5C 510.278,393.584 510.778,392.918 511.5,392.5C 511.5,401.167 511.5,409.833 511.5,418.5C 507.833,415.167 504.167,411.833 500.5,408.5C 500.5,400.833 500.5,393.167 500.5,385.5 Z"/></g>
<g><path style="opacity:0.956" fill="#6d79eb" d="M 500.5,408.5 C 504.167,411.833 507.833,415.167 511.5,418.5C 511.5,419.833 511.5,421.167 511.5,422.5C 509.784,428.264 506.784,433.264 502.5,437.5C 501.287,434.775 499.454,432.441 497,430.5C 496.51,429.207 496.343,427.873 496.5,426.5C 499.717,420.962 501.05,414.962 500.5,408.5 Z"/></g>
<g><path style="opacity:0.952" fill="#f306fd" d="M -0.5,389.5 C 3.16667,392.833 6.83333,396.167 10.5,399.5C 6.8451,427.178 18.8451,439.178 46.5,435.5C 50.3379,440.687 55.0046,444.687 60.5,447.5C 50.1613,447.666 39.828,447.5 29.5,447C 14.1638,445.188 4.16376,437.022 -0.5,422.5C -0.5,411.5 -0.5,400.5 -0.5,389.5 Z"/></g>
<g><path style="opacity:0.948" fill="#e512fb" d="M 46.5,435.5 C 62.1667,435.5 77.8333,435.5 93.5,435.5C 96.6293,439.131 99.9626,442.631 103.5,446C 107.688,446.176 111.688,446.676 115.5,447.5C 97.1667,447.5 78.8333,447.5 60.5,447.5C 55.0046,444.687 50.3379,440.687 46.5,435.5 Z"/></g>
<g><path style="opacity:0.915" fill="#c62df7" d="M 155.5,435.5 C 172.5,435.5 189.5,435.5 206.5,435.5C 210.119,438.452 213.452,441.785 216.5,445.5C 215.398,446.176 214.398,446.842 213.5,447.5C 199.167,447.5 184.833,447.5 170.5,447.5C 166.567,441.872 161.567,437.872 155.5,435.5 Z"/></g>
<g><path style="opacity:0.963" fill="#b938f5" d="M 206.5,435.5 C 225.167,435.5 243.833,435.5 262.5,435.5C 266.433,441.128 271.433,445.128 277.5,447.5C 256.167,447.5 234.833,447.5 213.5,447.5C 214.398,446.842 215.398,446.176 216.5,445.5C 213.452,441.785 210.119,438.452 206.5,435.5 Z"/></g>
<g><path style="opacity:0.923" fill="#9a52f1" d="M 320.5,435.5 C 336.833,435.5 353.167,435.5 369.5,435.5C 372.629,439.131 375.963,442.631 379.5,446C 378.263,446.232 377.263,446.732 376.5,447.5C 362.833,447.5 349.167,447.5 335.5,447.5C 329.433,445.128 324.433,441.128 320.5,435.5 Z"/></g>
<g><path style="opacity:0.897" fill="#8d5eef" d="M 369.5,435.5 C 388.167,435.5 406.833,435.5 425.5,435.5C 424.737,436.268 423.737,436.768 422.5,437C 425.5,440 428.5,443 431.5,446C 434.695,446.181 437.695,446.681 440.5,447.5C 419.167,447.5 397.833,447.5 376.5,447.5C 377.263,446.732 378.263,446.232 379.5,446C 375.963,442.631 372.629,439.131 369.5,435.5 Z"/></g>
<g><path style="opacity:0.847" fill="#8168ed" d="M 425.5,435.5 C 436.833,435.5 448.167,435.5 459.5,435.5C 463.167,439.5 466.833,443.5 470.5,447.5C 460.5,447.5 450.5,447.5 440.5,447.5C 437.695,446.681 434.695,446.181 431.5,446C 428.5,443 425.5,440 422.5,437C 423.737,436.768 424.737,436.268 425.5,435.5 Z"/></g>
<g><path style="opacity:0.961" fill="#7770ec" d="M 496.5,426.5 C 496.343,427.873 496.51,429.207 497,430.5C 499.454,432.441 501.287,434.775 502.5,437.5C 493.527,445.665 482.86,448.998 470.5,447.5C 466.833,443.5 463.167,439.5 459.5,435.5C 467.507,435.666 475.507,435.5 483.5,435C 488.93,433.633 493.263,430.799 496.5,426.5 Z"/></g>
<g><path style="opacity:1" fill="#d71ef9" d="M 93.5,435.5 C 114.167,435.5 134.833,435.5 155.5,435.5C 161.567,437.872 166.567,441.872 170.5,447.5C 152.167,447.5 133.833,447.5 115.5,447.5C 111.688,446.676 107.688,446.176 103.5,446C 99.9626,442.631 96.6293,439.131 93.5,435.5 Z"/></g>
<g><path style="opacity:1" fill="#a946f3" d="M 262.5,435.5 C 281.833,435.5 301.167,435.5 320.5,435.5C 324.433,441.128 329.433,445.128 335.5,447.5C 316.167,447.5 296.833,447.5 277.5,447.5C 271.433,445.128 266.433,441.128 262.5,435.5 Z"/></g>
</svg>
