<svg 
    xmlns="http://www.w3.org/2000/svg" 
    width="512" 
    height="512" 
    viewBox="0 0 512 512" 
    version="1.1"
>
    <defs>
        <linearGradient id="myGradient" x1="0%" y1="100%" x2="100%" y2="0%">
        <stop offset="0%" stop-color="#02aae9" />
        <stop offset="100%" stop-color="#c216ff" />
        </linearGradient>
    </defs>
    <path 
        d="M 16.218 9.610 C 10.347 12.599, 8.500 16.402, 8.501 25.500 C 8.502 32.056, 9.026 34.763, 11.407 40.500 C 15.054 49.288, 21.590 60.228, 29.197 70.279 C 32.435 74.557, 35.303 78.625, 35.569 79.319 C 35.835 80.013, 33.499 83.938, 30.377 88.040 C 22.736 98.081, 18.641 104.559, 14.108 113.773 C 9.150 123.851, 7.661 129.631, 8.178 136.788 C 8.912 146.928, 14.642 152, 25.366 152 C 31.748 152, 37.603 150.233, 47.377 145.358 C 53.521 142.293, 69.918 131.544, 77.250 125.774 C 80 123.609, 80 123.609, 82.750 125.774 C 96.553 136.636, 114.400 147.152, 124.754 150.522 C 131.838 152.829, 141.454 152.237, 145.669 149.236 C 157.809 140.591, 152.146 117.920, 130.803 89.721 C 127.565 85.443, 124.687 81.349, 124.409 80.623 C 124.130 79.897, 125.640 77.097, 127.764 74.402 C 138.015 61.388, 146.915 46.007, 150.471 35.159 C 152.814 28.008, 152.255 18.571, 149.236 14.331 C 140.563 2.151, 117.659 7.843, 89.782 29.105 C 85.470 32.394, 81.375 35.302, 80.682 35.569 C 79.988 35.835, 75.614 33.188, 70.960 29.688 C 60.044 21.475, 49.284 15.038, 40.500 11.465 C 31.735 7.899, 21.165 7.091, 16.218 9.610 M 391 9.314 C 386.147 10.852, 378.725 18.556, 377.222 23.616 C 375.542 29.275, 375.468 146.492, 377.141 152.078 C 378.796 157.600, 383.617 162.913, 389.429 165.619 C 394.500 167.980, 394.500 167.980, 440 167.980 C 485.500 167.980, 485.500 167.980, 490.500 165.623 C 496.458 162.813, 499.174 160.048, 501.916 154 C 503.898 149.628, 503.956 147.752, 503.968 88 C 503.980 26.500, 503.980 26.500, 501.619 21.429 C 498.913 15.617, 493.600 10.796, 488.078 9.141 C 482.884 7.585, 395.966 7.740, 391 9.314 M 24.481 27.148 C 25.630 32.775, 30.798 43.011, 37.533 53 C 48.374 69.080, 45.972 68.572, 57.316 57.185 C 67.111 47.353, 67.111 47.353, 57.806 40.698 C 47.820 33.557, 32.607 25.490, 27.148 24.441 C 23.796 23.796, 23.796 23.796, 24.481 27.148 M 129.500 25.404 C 123.548 27.294, 116.104 31.302, 106.804 37.623 C 91.345 48.130, 91.713 46.256, 102.914 57.414 C 112.646 67.110, 112.646 67.110, 119.896 56.805 C 130.568 41.637, 138.670 23.874, 134.829 24.067 C 134.098 24.104, 131.700 24.705, 129.500 25.404 M 397.020 25.267 C 392.874 27.394, 392.031 30.508, 392.015 43.750 C 392 56, 392 56, 440.077 56 C 488.155 56, 488.155 56, 487.827 42.525 C 487.345 22.655, 492.192 24.556, 441.223 24.248 C 409.015 24.053, 398.934 24.285, 397.020 25.267 M 68.994 69.506 C 58.524 80.012, 58.524 80.012, 69.262 90.750 C 80 101.488, 80 101.488, 90.738 90.750 C 101.476 80.012, 101.476 80.012, 91.006 69.506 C 85.247 63.728, 80.295 59, 80 59 C 79.705 59, 74.753 63.728, 68.994 69.506 M 74.174 74.314 C 69.208 79.601, 72.870 88, 80.140 88 C 84.756 88, 88 84.640, 88 79.860 C 88 72.760, 79.019 69.157, 74.174 74.314 M 392 88 C 392 104, 392 104, 440 104 C 488 104, 488 104, 488 88 C 488 72, 488 72, 440 72 C 392 72, 392 72, 392 88 M 168 88 C 168 96, 168 96, 176 96 C 184 96, 184 96, 184 88 C 184 80, 184 80, 176 80 C 168 80, 168 80, 168 88 M 200 88 C 200 96, 200 96, 208 96 C 216 96, 216 96, 216 88 C 216 80, 216 80, 208 80 C 200 80, 200 80, 200 88 M 232 88 C 232 96, 232 96, 296 96 C 360 96, 360 96, 360 88 C 360 80, 360 80, 296 80 C 232 80, 232 80, 232 88 M 42.857 99.299 C 33.384 111.950, 25.999 125.409, 24.503 132.750 C 23.905 135.685, 24.070 136, 26.199 136 C 31.073 136, 52.227 124.162, 63.182 115.304 C 66.864 112.327, 66.864 112.327, 57.182 102.713 C 47.500 93.099, 47.500 93.099, 42.857 99.299 M 102.782 102.742 C 93.085 112.500, 93.085 112.500, 99.293 117.104 C 112.492 126.894, 125.426 134.004, 132.750 135.497 C 135.693 136.096, 136 135.934, 136 133.777 C 136 130.211, 128.771 115.954, 121.995 106.156 C 111.551 91.053, 113.970 91.483, 102.782 102.742 M 392.173 133.475 C 392.657 153.394, 387.631 151.500, 440 151.500 C 492.369 151.500, 487.343 153.394, 487.827 133.475 C 488.155 120, 488.155 120, 440 120 C 391.845 120, 391.845 120, 392.173 133.475 M 234.461 137.878 C 229.337 140.206, 222.711 147.684, 221.147 152.905 C 219.043 159.926, 214.579 161.525, 206.859 158.022 C 200.494 155.134, 191.749 155.324, 185.396 158.490 C 178.941 161.707, 160.808 179.999, 158.051 186.075 C 155.388 191.946, 155.375 201.026, 158.022 206.859 C 161.525 214.579, 159.926 219.043, 152.905 221.147 C 147.684 222.711, 140.206 229.337, 137.878 234.461 C 136.323 237.886, 136.044 241.160, 136.044 256 C 136.044 270.840, 136.323 274.114, 137.878 277.539 C 140.206 282.663, 147.684 289.289, 152.905 290.853 C 159.926 292.957, 161.525 297.421, 158.022 305.141 C 155.134 311.506, 155.324 320.251, 158.490 326.604 C 161.707 333.059, 179.999 351.192, 186.075 353.949 C 191.946 356.612, 201.026 356.625, 206.859 353.978 C 214.579 350.475, 219.043 352.074, 221.147 359.095 C 222.711 364.316, 229.337 371.794, 234.461 374.122 C 237.886 375.677, 241.160 375.956, 256 375.956 C 270.944 375.956, 274.084 375.685, 277.500 374.100 C 282.926 371.582, 287.395 366.635, 290.411 359.805 C 294.027 351.618, 297.186 350.368, 305.141 353.978 C 310.974 356.625, 320.054 356.612, 325.925 353.949 C 332.001 351.192, 350.293 333.059, 353.510 326.604 C 356.676 320.251, 356.866 311.506, 353.978 305.141 C 350.475 297.421, 352.074 292.957, 359.095 290.853 C 364.316 289.289, 371.794 282.663, 374.122 277.539 C 375.677 274.114, 375.956 270.840, 375.956 256 C 375.956 241.160, 375.677 237.886, 374.122 234.461 C 371.794 229.337, 364.316 222.711, 359.095 221.147 C 352.074 219.043, 350.475 214.579, 353.978 206.859 C 356.866 200.494, 356.676 191.749, 353.510 185.396 C 350.293 178.941, 332.001 160.808, 325.925 158.051 C 320.054 155.388, 310.974 155.375, 305.141 158.022 C 297.421 161.525, 292.957 159.926, 290.853 152.905 C 289.289 147.684, 282.663 140.206, 277.539 137.878 C 274.114 136.323, 270.840 136.044, 256 136.044 C 241.160 136.044, 237.886 136.323, 234.461 137.878 M 241.245 153.223 C 239.927 153.858, 237.551 157.302, 235.526 161.513 C 231.771 169.320, 227.841 173.086, 220.890 175.539 C 214.975 177.626, 209.987 177.354, 202.505 174.538 C 198.908 173.184, 195.185 172.345, 194.232 172.674 C 191.739 173.533, 173.999 191.081, 172.951 193.723 C 172.317 195.324, 172.760 197.781, 174.535 202.496 C 177.347 209.968, 177.626 214.973, 175.558 220.837 C 172.799 228.655, 166.990 234.210, 158.733 236.927 C 153.035 238.802, 152 241.718, 152 255.903 C 152 262.908, 152.485 268.971, 153.165 270.462 C 153.941 272.165, 156.732 274.175, 161.523 276.479 C 169.319 280.229, 173.087 284.162, 175.539 291.110 C 177.626 297.025, 177.354 302.013, 174.538 309.495 C 173.184 313.092, 172.345 316.815, 172.674 317.768 C 173.533 320.261, 191.081 338.001, 193.723 339.049 C 195.324 339.683, 197.781 339.240, 202.496 337.465 C 206.098 336.109, 210.755 335, 212.845 335 C 222.977 335, 233.337 342.477, 236.532 352.096 C 238.802 358.931, 241.434 360, 256 360 C 269.883 360, 273.392 358.761, 275.035 353.279 C 276.892 347.079, 282.257 340.538, 287.611 337.946 C 294.788 334.472, 301.156 334.302, 309.277 337.370 C 314.177 339.222, 316.669 339.686, 318.277 339.049 C 320.919 338.001, 338.467 320.261, 339.326 317.768 C 339.655 316.815, 338.816 313.092, 337.462 309.495 C 336.108 305.898, 335 301.245, 335 299.155 C 335 288.895, 342.363 278.701, 352.112 275.463 C 358.929 273.198, 360 270.557, 360 256 C 360 242.117, 358.761 238.608, 353.279 236.965 C 347.079 235.108, 340.538 229.743, 337.946 224.389 C 334.473 217.214, 334.303 210.844, 337.367 202.732 C 338.773 199.010, 339.655 195.185, 339.326 194.232 C 338.467 191.739, 320.919 173.999, 318.277 172.951 C 316.676 172.317, 314.219 172.760, 309.504 174.535 C 302.032 177.347, 297.027 177.626, 291.163 175.558 C 283.345 172.799, 277.790 166.990, 275.073 158.733 C 273.180 152.979, 270.313 151.988, 255.800 152.068 C 249.035 152.105, 242.485 152.625, 241.245 153.223 M 64 216 C 64 264, 64 264, 72 264 C 80 264, 80 264, 80 216 C 80 168, 80 168, 72 168 C 64 168, 64 168, 64 216 M 238 185.988 C 211.927 192.914, 192.485 212.664, 185.885 238.930 C 182.982 250.482, 183.559 266.941, 187.264 278.278 C 194.371 300.027, 211.725 317.410, 233.722 324.812 C 240.691 327.157, 243.008 327.429, 256 327.429 C 268.992 327.429, 271.309 327.157, 278.278 324.812 C 300.233 317.424, 317.424 300.233, 324.812 278.278 C 327.157 271.309, 327.429 268.992, 327.429 256 C 327.429 243.008, 327.157 240.691, 324.812 233.722 C 317.412 211.730, 300.051 194.394, 278.278 187.255 C 267.377 183.680, 248.880 183.099, 238 185.988 M 432 192 C 432 200, 432 200, 440 200 C 448 200, 448 200, 448 192 C 448 184, 448 184, 440 184 C 432 184, 432 184, 432 192 M 248.500 201.054 C 236.971 202.549, 223.794 209.228, 215.813 217.622 C 198.894 235.415, 195.849 263.353, 208.523 284.500 C 224.258 310.754, 258.120 319.152, 284.675 303.387 C 310.675 287.951, 319.085 253.767, 303.387 227.325 C 292.351 208.736, 270.375 198.217, 248.500 201.054 M 244.500 217.346 C 233.127 221.112, 224.509 228.601, 219.582 238.997 C 216.748 244.977, 216.500 246.345, 216.500 256 C 216.500 265.655, 216.748 267.023, 219.582 273.003 C 223.530 281.333, 230.667 288.470, 238.997 292.418 C 244.977 295.252, 246.345 295.500, 256 295.500 C 265.655 295.500, 267.023 295.252, 273.003 292.418 C 276.668 290.681, 281.651 287.191, 284.421 284.421 C 287.191 281.651, 290.681 276.668, 292.418 273.003 C 295.252 267.023, 295.500 265.655, 295.500 256 C 295.500 246.345, 295.252 244.977, 292.418 238.997 C 288.451 230.627, 281.328 223.517, 273.003 219.619 C 267.519 217.051, 265.089 216.530, 257.500 216.297 C 251.970 216.128, 246.958 216.532, 244.500 217.346 M 432 224 C 432 232, 432 232, 440 232 C 448 232, 448 232, 448 224 C 448 216, 448 216, 440 216 C 432 216, 432 216, 432 224 M 249.821 233.373 C 229.256 239.008, 226.350 267.099, 245.321 276.862 C 258.835 283.817, 275.719 275.862, 278.897 261.043 C 282.580 243.873, 266.689 228.750, 249.821 233.373 M 432 288 C 432 328, 432 328, 440 328 C 448 328, 448 328, 448 288 C 448 248, 448 248, 440 248 C 432 248, 432 248, 432 288 M 64 288 C 64 296, 64 296, 72 296 C 80 296, 80 296, 80 288 C 80 280, 80 280, 72 280 C 64 280, 64 280, 64 288 M 64 320 C 64 328, 64 328, 72 328 C 80 328, 80 328, 80 320 C 80 312, 80 312, 72 312 C 64 312, 64 312, 64 320 M 23 345.314 C 18.147 346.852, 10.725 354.556, 9.222 359.616 C 7.542 365.275, 7.468 482.492, 9.141 488.078 C 10.796 493.600, 15.617 498.913, 21.429 501.619 C 26.500 503.980, 26.500 503.980, 72 503.980 C 117.500 503.980, 117.500 503.980, 122.500 501.623 C 128.458 498.813, 131.174 496.048, 133.916 490 C 135.898 485.628, 135.956 483.752, 135.968 424 C 135.980 362.500, 135.980 362.500, 133.619 357.429 C 130.913 351.617, 125.600 346.796, 120.078 345.141 C 114.884 343.585, 27.966 343.740, 23 345.314 M 456 416 C 456 488, 456 488, 448 488 C 440 488, 440 488, 440 448 C 440 408, 440 408, 416 408 C 392 408, 392 408, 392 448 C 392 488, 392 488, 384 488 C 376 488, 376 488, 376 432 C 376 376, 376 376, 352 376 C 328 376, 328 376, 328 440 C 328 504, 328 504, 416 504 C 504 504, 504 504, 504 424 C 504 344, 504 344, 480 344 C 456 344, 456 344, 456 416 M 29.020 361.267 C 24.874 363.394, 24.031 366.508, 24.015 379.750 C 24 392, 24 392, 72.077 392 C 120.155 392, 120.155 392, 119.827 378.525 C 119.345 358.655, 124.192 360.556, 73.223 360.248 C 41.015 360.053, 30.934 360.285, 29.020 361.267 M 472 424 C 472 488, 472 488, 480 488 C 488 488, 488 488, 488 424 C 488 360, 488 360, 480 360 C 472 360, 472 360, 472 424 M 344 440 C 344 488, 344 488, 352 488 C 360 488, 360 488, 360 440 C 360 392, 360 392, 352 392 C 344 392, 344 392, 344 440 M 24 424 C 24 440, 24 440, 72 440 C 120 440, 120 440, 120 424 C 120 408, 120 408, 72 408 C 24 408, 24 408, 24 424 M 152 432 C 152 440, 152 440, 200 440 C 248 440, 248 440, 248 432 C 248 424, 248 424, 200 424 C 152 424, 152 424, 152 432 M 264 432 C 264 440, 264 440, 272 440 C 280 440, 280 440, 280 432 C 280 424, 280 424, 272 424 C 264 424, 264 424, 264 432 M 296 432 C 296 440, 296 440, 304 440 C 312 440, 312 440, 312 432 C 312 424, 312 424, 304 424 C 296 424, 296 424, 296 432 M 408 456 C 408 488, 408 488, 416 488 C 424 488, 424 488, 424 456 C 424 424, 424 424, 416 424 C 408 424, 408 424, 408 456 M 24.173 469.475 C 24.657 489.394, 19.631 487.500, 72 487.500 C 124.369 487.500, 119.343 489.394, 119.827 469.475 C 120.155 456, 120.155 456, 72 456 C 23.845 456, 23.845 456, 24.173 469.475" 
        stroke="none" 
        fill="url(#myGradient)" 
        fill-rule="evenodd"
    />
</svg>