<?xml version="1.0" encoding="UTF-8"?>
<!DOCTYPE svg PUBLIC "-//W3C//DTD SVG 1.1//EN" "http://www.w3.org/Graphics/SVG/1.1/DTD/svg11.dtd">
<svg xmlns="http://www.w3.org/2000/svg" version="1.1" width="512px" height="512px" style="shape-rendering:geometricPrecision; text-rendering:geometricPrecision; image-rendering:optimizeQuality; fill-rule:evenodd; clip-rule:evenodd" xmlns:xlink="http://www.w3.org/1999/xlink">
<g><path style="opacity:0.926" fill="#655df4" d="M 120.5,86.5 C 123.296,89.7974 126.296,92.9641 129.5,96C 132.695,96.1805 135.695,96.6805 138.5,97.5C 128.145,97.1681 117.812,97.5014 107.5,98.5C 106.337,102.83 104.503,106.83 102,110.5C 100.465,113.294 98.2978,115.294 95.5,116.5C 93.1667,113.833 90.8333,111.167 88.5,108.5C 97.2898,100.145 98.7898,90.4784 93,79.5C 86.9103,71.914 79.077,69.0807 69.5,71C 65.5891,72.4442 62.2558,74.6109 59.5,77.5C 56.8333,75.1667 54.1667,72.8333 51.5,70.5C 55.5319,65.298 60.8653,61.798 67.5,60C 88.7289,57.1042 102.062,65.9376 107.5,86.5C 111.833,86.5 116.167,86.5 120.5,86.5 Z"/></g>
<g><path style="opacity:0.948" fill="#bd19fe" d="M 451.5,119.5 C 449.5,116.5 447.5,113.5 445.5,110.5C 458.818,99.7727 459.818,87.9393 448.5,75C 435.045,67.079 424.045,69.579 415.5,82.5C 413.194,79.5271 410.527,76.8605 407.5,74.5C 415.896,62.1911 427.563,57.3578 442.5,60C 463.854,67.6863 471.354,82.5196 465,104.5C 462.057,110.94 457.557,115.94 451.5,119.5 Z"/></g>
<g><path style="opacity:0.952" fill="#b024fc" d="M 407.5,74.5 C 410.527,76.8605 413.194,79.5271 415.5,82.5C 411.302,99.4203 417.802,109.754 435,113.5C 438.619,112.812 442.119,111.812 445.5,110.5C 447.5,113.5 449.5,116.5 451.5,119.5C 435.422,127.273 421.256,124.606 409,111.5C 405.77,107.375 403.937,102.708 403.5,97.5C 395.5,97.5 387.5,97.5 379.5,97.5C 376.704,94.2026 373.704,91.0359 370.5,88C 371.737,87.7679 372.737,87.2679 373.5,86.5C 383.172,86.6665 392.839,86.4998 402.5,86C 403.503,81.8046 405.17,77.9712 407.5,74.5 Z"/></g>
<g><path style="opacity:0.958" fill="#6e56f5" d="M 120.5,86.5 C 129.173,86.3336 137.84,86.5002 146.5,87C 156.667,97.1667 166.833,107.333 177,117.5C 180.113,124.46 177.947,127.626 170.5,127C 160.833,117.333 151.167,107.667 141.5,98C 140.552,97.5172 139.552,97.3505 138.5,97.5C 135.695,96.6805 132.695,96.1805 129.5,96C 126.296,92.9641 123.296,89.7974 120.5,86.5 Z"/></g>
<g><path style="opacity:0.973" fill="#5767f3" d="M 51.5,70.5 C 54.1667,72.8333 56.8333,75.1667 59.5,77.5C 51.7808,86.6444 51.6141,95.9777 59,105.5C 68.1401,114.423 77.9735,115.423 88.5,108.5C 90.8333,111.167 93.1667,113.833 95.5,116.5C 93.4223,119.051 90.7556,120.884 87.5,122C 61.8623,127.529 46.8623,117.362 42.5,91.5C 43.1604,86.719 44.3271,82.0524 46,77.5C 47.371,74.7339 49.2043,72.4006 51.5,70.5 Z"/></g>
<g><path style="opacity:0.931" fill="#a02ffb" d="M 373.5,86.5 C 372.737,87.2679 371.737,87.7679 370.5,88C 373.704,91.0359 376.704,94.2026 379.5,97.5C 376.15,97.335 372.817,97.5017 369.5,98C 360.167,107.333 350.833,116.667 341.5,126C 336.438,128.859 333.104,127.526 331.5,122C 331.862,120.775 332.362,119.609 333,118.5C 343.5,108 354,97.5 364.5,87C 367.482,86.502 370.482,86.3354 373.5,86.5 Z"/></g>
<g><path style="opacity:0.932" fill="#764ff6" d="M 249.5,199.5 C 248.834,196.311 248.167,192.977 247.5,189.5C 244.479,186.709 241.479,184.042 238.5,181.5C 238.887,169.779 238.387,158.113 237,146.5C 228.3,128.377 214.8,123.544 196.5,132C 192.555,135.435 189.222,139.268 186.5,143.5C 183.833,141.167 181.167,138.833 178.5,136.5C 187.105,121.531 200.105,115.031 217.5,117C 233.036,120.203 243.203,129.369 248,144.5C 249.402,162.796 249.902,181.129 249.5,199.5 Z"/></g>
<g><path style="opacity:0.965" fill="#903cf9" d="M 338.5,155.5 C 342.897,159.892 346.897,164.558 350.5,169.5C 342.751,167.388 334.918,165.722 327,164.5C 326.136,157.098 324.803,149.765 323,142.5C 314.46,128.643 302.627,124.643 287.5,130.5C 285.573,127.233 283.239,124.233 280.5,121.5C 300.4,112.349 317.233,116.349 331,133.5C 334.463,140.77 336.963,148.103 338.5,155.5 Z"/></g>
<g><path style="opacity:0.943" fill="#8346f7" d="M 280.5,121.5 C 283.239,124.233 285.573,127.233 287.5,130.5C 276.853,135.781 271.853,144.448 272.5,156.5C 271.698,157.952 271.198,159.618 271,161.5C 267.964,158.296 264.797,155.296 261.5,152.5C 261.929,141.475 266.263,132.308 274.5,125C 276.388,123.606 278.388,122.44 280.5,121.5 Z"/></g>
<g><path style="opacity:0.966" fill="#913bf9" d="M 338.5,155.5 C 362.088,157.756 374.421,170.756 375.5,194.5C 371.531,188.531 366.531,183.531 360.5,179.5C 358.167,175.167 354.833,171.833 350.5,169.5C 346.897,164.558 342.897,159.892 338.5,155.5 Z"/></g>
<g><path style="opacity:0.951" fill="#635ef4" d="M 178.5,136.5 C 181.167,138.833 183.833,141.167 186.5,143.5C 185.032,150.066 184.199,156.732 184,163.5C 183.5,164 183,164.5 182.5,165C 177.279,166.232 171.946,166.899 166.5,167C 161.517,168.488 157.184,170.988 153.5,174.5C 151.196,171.859 148.862,169.192 146.5,166.5C 151.065,160.711 157.065,157.211 164.5,156C 167.482,155.502 170.482,155.335 173.5,155.5C 173.283,148.553 174.949,142.22 178.5,136.5 Z"/></g>
<g><path style="opacity:0.893" fill="#7550f6" d="M 261.5,152.5 C 264.797,155.296 267.964,158.296 271,161.5C 271.198,159.618 271.698,157.952 272.5,156.5C 272.5,172.833 272.5,189.167 272.5,205.5C 271.686,207.631 271.186,209.964 271,212.5C 268.333,209.833 265.667,207.167 263,204.5C 262.79,206.058 262.29,207.391 261.5,208.5C 261.5,189.833 261.5,171.167 261.5,152.5 Z"/></g>
<g><path style="opacity:0.986" fill="#536af2" d="M 146.5,166.5 C 148.862,169.192 151.196,171.859 153.5,174.5C 145.695,183.639 144.195,193.639 149,204.5C 156.263,209.76 162.93,215.76 169,222.5C 170.697,230.228 167.864,232.728 160.5,230C 155.376,223.87 149.376,218.87 142.5,215C 137.44,213.111 132.44,213.277 127.5,215.5C 124.792,212.791 121.792,210.458 118.5,208.5C 119.058,207.21 120.058,206.377 121.5,206C 126.396,204.287 131.396,202.954 136.5,202C 132.836,188.163 136.169,176.329 146.5,166.5 Z"/></g>
<g><path style="opacity:0.962" fill="#8a40f8" d="M 360.5,179.5 C 366.531,183.531 371.531,188.531 375.5,194.5C 375.167,197.167 374.833,199.833 374.5,202.5C 391.559,203.934 402.059,212.934 406,229.5C 407.568,240.072 404.734,249.238 397.5,257C 400.486,260.478 402.819,264.311 404.5,268.5C 398.222,263.56 392.222,258.227 386.5,252.5C 398.819,240.25 398.486,228.417 385.5,217C 376.756,212.266 368.423,212.933 360.5,219C 356.5,223 352.5,227 348.5,231C 341.257,231.414 339.091,228.248 342,221.5C 347.289,215.204 353.456,210.038 360.5,206C 365.797,197.168 365.797,188.334 360.5,179.5 Z"/></g>
<g><path style="opacity:0.929" fill="#625ff4" d="M 228.5,216.5 C 234.108,223.635 240.608,230.635 248,237.5C 248.21,235.942 248.71,234.609 249.5,233.5C 249.5,241.833 249.5,250.167 249.5,258.5C 248.679,261.641 248.179,264.975 248,268.5C 245.333,265.833 242.667,263.167 240,260.5C 239.617,261.056 239.117,261.389 238.5,261.5C 238.5,251.167 238.5,240.833 238.5,230.5C 233.062,230.521 228.062,229.021 223.5,226C 213.345,219.02 206.012,209.853 201.5,198.5C 202.643,193.747 205.643,192.247 210.5,194C 215.427,202.352 221.427,209.852 228.5,216.5 Z"/></g>
<g><path style="opacity:0.931" fill="#6c58f5" d="M 272.5,205.5 C 272.5,210.167 272.5,214.833 272.5,219.5C 273.5,219.5 274.5,219.5 275.5,219.5C 276.922,219.709 278.255,220.209 279.5,221C 281.045,223.38 283.045,225.214 285.5,226.5C 281.622,229.013 277.289,230.346 272.5,230.5C 272.5,242.5 272.5,254.5 272.5,266.5C 268.833,263.167 265.167,259.833 261.5,256.5C 261.5,240.5 261.5,224.5 261.5,208.5C 262.29,207.391 262.79,206.058 263,204.5C 265.667,207.167 268.333,209.833 271,212.5C 271.186,209.964 271.686,207.631 272.5,205.5 Z"/></g>
<g><path style="opacity:0.982" fill="#695af5" d="M 238.5,181.5 C 241.479,184.042 244.479,186.709 247.5,189.5C 248.167,192.977 248.834,196.311 249.5,199.5C 249.5,210.833 249.5,222.167 249.5,233.5C 248.71,234.609 248.21,235.942 248,237.5C 240.608,230.635 234.108,223.635 228.5,216.5C 231.659,218.08 234.993,219.08 238.5,219.5C 238.5,206.833 238.5,194.167 238.5,181.5 Z"/></g>
<g><path style="opacity:0.939" fill="#4873f1" d="M 118.5,208.5 C 121.792,210.458 124.792,212.791 127.5,215.5C 120.208,219.437 115.874,225.437 114.5,233.5C 110.662,231.006 107.995,227.673 106.5,223.5C 108.274,216.725 112.274,211.725 118.5,208.5 Z"/></g>
<g><path style="opacity:0.946" fill="#7550f6" d="M 285.5,226.5 C 283.045,225.214 281.045,223.38 279.5,221C 278.255,220.209 276.922,219.709 275.5,219.5C 280.359,216.83 284.859,213.497 289,209.5C 292.695,204.638 296.195,199.638 299.5,194.5C 306.45,191.954 309.283,194.287 308,201.5C 302.785,211.958 295.285,220.292 285.5,226.5 Z"/></g>
<g><path style="opacity:0.941" fill="#3581ef" d="M 72.5,267.5 C 70.205,264.703 67.705,262.036 65,259.5C 64.6174,260.056 64.1174,260.389 63.5,260.5C 63.27,245.936 55.9366,237.602 41.5,235.5C 38.1938,232.86 35.1938,229.86 32.5,226.5C 47.1364,222.767 59.3031,226.767 69,238.5C 71.6021,242.474 73.1021,246.807 73.5,251.5C 82.5062,251.334 91.5062,251.5 100.5,252C 104.925,254.549 105.592,257.882 102.5,262C 93.1667,262.333 83.8333,262.667 74.5,263C 73.9011,264.622 73.2344,266.122 72.5,267.5 Z"/></g>
<g><path style="opacity:0.956" fill="#3f79f0" d="M 106.5,223.5 C 107.995,227.673 110.662,231.006 114.5,233.5C 115.105,236.127 115.605,238.793 116,241.5C 119.339,246.993 122.839,252.326 126.5,257.5C 126.281,258.938 125.781,260.271 125,261.5C 118.68,266.309 115.18,272.642 114.5,280.5C 111.167,277.833 108.167,274.833 105.5,271.5C 106.235,266.03 108.568,261.363 112.5,257.5C 104.067,247.096 102.067,235.763 106.5,223.5 Z"/></g>
<g><path style="opacity:0.941" fill="#9d32fa" d="M 490.5,280.5 C 489.504,280.414 488.671,280.748 488,281.5C 485.894,278.882 483.394,276.882 480.5,275.5C 492.772,263.032 492.439,250.865 479.5,239C 469.129,233.974 459.796,235.474 451.5,243.5C 448.5,241.5 445.5,239.5 442.5,237.5C 452.762,225.616 465.428,222.116 480.5,227C 498.368,236.58 504.202,251.08 498,270.5C 496.209,274.439 493.709,277.772 490.5,280.5 Z"/></g>
<g><path style="opacity:0.938" fill="#7f49f7" d="M 386.5,252.5 C 392.222,258.227 398.222,263.56 404.5,268.5C 408.99,283.371 405.323,295.871 393.5,306C 392.255,306.791 390.922,307.291 389.5,307.5C 387.14,304.473 384.473,301.806 381.5,299.5C 394.98,292.587 398.48,282.253 392,268.5C 390.039,265.537 387.706,262.871 385,260.5C 384.333,258.167 384.333,255.833 385,253.5C 385.383,252.944 385.883,252.611 386.5,252.5 Z"/></g>
<g><path style="opacity:0.981" fill="#8e3df9" d="M 442.5,237.5 C 445.5,239.5 448.5,241.5 451.5,243.5C 442.949,258.918 446.615,270.418 462.5,278C 468.794,279.051 474.794,278.217 480.5,275.5C 483.394,276.882 485.894,278.882 488,281.5C 488.671,280.748 489.504,280.414 490.5,280.5C 481.113,289.382 470.113,291.882 457.5,288C 445.666,283.507 438.666,275.007 436.5,262.5C 427.161,262.666 417.827,262.5 408.5,262C 404.434,258.255 404.767,254.922 409.5,252C 418.494,251.5 427.494,251.334 436.5,251.5C 437.412,246.345 439.412,241.678 442.5,237.5 Z"/></g>
<g><path style="opacity:0.962" fill="#288ced" d="M 32.5,226.5 C 35.1938,229.86 38.1938,232.86 41.5,235.5C 25.4876,238.875 18.9876,248.541 22,264.5C 28.5205,277.787 38.6871,281.62 52.5,276C 58.2665,272.292 61.9332,267.126 63.5,260.5C 64.1174,260.389 64.6174,260.056 65,259.5C 67.705,262.036 70.205,264.703 72.5,267.5C 68.9177,278.912 61.2511,286.079 49.5,289C 20.4348,290.267 7.60149,276.434 11,247.5C 14.7186,236.948 21.8853,229.948 32.5,226.5 Z"/></g>
<g><path style="opacity:0.945" fill="#5e62f4" d="M 261.5,256.5 C 265.167,259.833 268.833,263.167 272.5,266.5C 272.5,272.167 272.5,277.833 272.5,283.5C 285.044,286.032 294.878,292.699 302,303.5C 304.859,307.175 307.026,311.175 308.5,315.5C 308.094,320.54 305.428,322.374 300.5,321C 295.256,313.086 289.256,305.752 282.5,299C 279.378,297.355 276.212,295.855 273,294.5C 272.5,302.493 272.334,310.493 272.5,318.5C 270.468,312.772 266.801,308.106 261.5,304.5C 261.5,288.5 261.5,272.5 261.5,256.5 Z"/></g>
<g><path style="opacity:0.953" fill="#3681ef" d="M 105.5,271.5 C 108.167,274.833 111.167,277.833 114.5,280.5C 119.045,298.606 130.045,304.273 147.5,297.5C 149.833,300.167 152.167,302.833 154.5,305.5C 153,307.179 151.167,308.512 149,309.5C 144.27,317.934 144.436,326.267 149.5,334.5C 148.883,334.611 148.383,334.944 148,335.5C 143.964,331.296 139.798,327.296 135.5,323.5C 134.876,323.083 134.543,322.416 134.5,321.5C 135.031,318.265 135.698,315.098 136.5,312C 116.42,310.42 105.42,299.587 103.5,279.5C 103.964,276.651 104.631,273.984 105.5,271.5 Z"/></g>
<g><path style="opacity:0.92" fill="#546af2" d="M 249.5,258.5 C 249.5,281.167 249.5,303.833 249.5,326.5C 248.679,329.641 248.179,332.975 248,336.5C 244.964,333.296 241.797,330.296 238.5,327.5C 238.667,316.495 238.5,305.495 238,294.5C 230.571,297.104 224.405,301.438 219.5,307.5C 216.473,305.14 213.806,302.473 211.5,299.5C 218.167,290.329 227.167,284.996 238.5,283.5C 238.5,276.167 238.5,268.833 238.5,261.5C 239.117,261.389 239.617,261.056 240,260.5C 242.667,263.167 245.333,265.833 248,268.5C 248.179,264.975 248.679,261.641 249.5,258.5 Z"/></g>
<g><path style="opacity:0.952" fill="#4179ef" d="M 154.5,305.5 C 152.167,302.833 149.833,300.167 147.5,297.5C 152.271,293.231 156.938,288.731 161.5,284C 168.505,282.676 171.005,285.51 169,292.5C 164.594,297.411 159.76,301.745 154.5,305.5 Z"/></g>
<g><path style="opacity:0.944" fill="#7153f6" d="M 381.5,299.5 C 384.473,301.806 387.14,304.473 389.5,307.5C 385.065,310.527 380.065,311.861 374.5,311.5C 375.726,317.521 375.726,323.521 374.5,329.5C 373.883,329.611 373.383,329.944 373,330.5C 370.297,327.629 367.464,324.962 364.5,322.5C 364.962,314.912 361.962,309.412 355.5,306C 350.667,301.167 345.833,296.333 341,291.5C 340.062,283.604 343.229,281.437 350.5,285C 355.241,290.412 360.574,295.079 366.5,299C 371.461,300.764 376.461,300.93 381.5,299.5 Z"/></g>
<g><path style="opacity:0.909" fill="#4873f1" d="M 211.5,299.5 C 213.806,302.473 216.473,305.14 219.5,307.5C 216.263,311.63 213.263,315.963 210.5,320.5C 204.197,322.363 201.364,320.03 202,313.5C 204.929,308.631 208.096,303.965 211.5,299.5 Z"/></g>
<g><path style="opacity:0.978" fill="#3284ef" d="M 135.5,323.5 C 139.798,327.296 143.964,331.296 148,335.5C 148.383,334.944 148.883,334.611 149.5,334.5C 152.152,338.817 155.485,342.484 159.5,345.5C 159.062,345.435 158.728,345.601 158.5,346C 163.037,350.369 167.37,354.869 171.5,359.5C 149.807,357.14 137.807,345.14 135.5,323.5 Z"/></g>
<g><path style="opacity:0.934" fill="#506df1" d="M 261.5,304.5 C 266.801,308.106 270.468,312.772 272.5,318.5C 272.5,332.833 272.5,347.167 272.5,361.5C 269.565,358.062 266.399,354.729 263,351.5C 262.814,348.964 262.314,346.631 261.5,344.5C 261.5,331.167 261.5,317.833 261.5,304.5 Z"/></g>
<g><path style="opacity:0.944" fill="#685af4" d="M 364.5,322.5 C 367.464,324.962 370.297,327.629 373,330.5C 373.383,329.944 373.883,329.611 374.5,329.5C 372.169,339.493 366.836,347.493 358.5,353.5C 355.761,350.767 353.427,347.767 351.5,344.5C 359.42,339.332 363.753,331.999 364.5,322.5 Z"/></g>
<g><path style="opacity:0.961" fill="#5a64f3" d="M 351.5,344.5 C 353.427,347.767 355.761,350.767 358.5,353.5C 351.782,357.646 344.449,359.646 336.5,359.5C 337.007,372.004 332.341,382.004 322.5,389.5C 320.167,386.833 317.833,384.167 315.5,381.5C 323.96,372.959 327.794,362.626 327,350.5C 327.5,350 328,349.5 328.5,349C 336.601,349.381 344.267,347.881 351.5,344.5 Z"/></g>
<g><path style="opacity:0.944" fill="#4a72f1" d="M 261.5,344.5 C 262.314,346.631 262.814,348.964 263,351.5C 266.399,354.729 269.565,358.062 272.5,361.5C 274.863,376.696 283.697,385.363 299,387.5C 305.096,386.97 310.596,384.97 315.5,381.5C 317.833,384.167 320.167,386.833 322.5,389.5C 307.647,400.753 292.314,401.253 276.5,391C 262.661,378.516 257.661,363.016 261.5,344.5 Z"/></g>
<g><path style="opacity:0.946" fill="#4476f0" d="M 249.5,326.5 C 249.667,338.838 249.5,351.171 249,363.5C 248.674,370.8 246.174,377.134 241.5,382.5C 238.5,380.5 235.5,378.5 232.5,376.5C 235.597,372.383 237.43,367.717 238,362.5C 238.5,350.838 238.667,339.171 238.5,327.5C 241.797,330.296 244.964,333.296 248,336.5C 248.179,332.975 248.679,329.641 249.5,326.5 Z"/></g>
<g><path style="opacity:0.983" fill="#3283ee" d="M 159.5,345.5 C 167,347.744 174.667,349.078 182.5,349.5C 183.192,350.025 183.692,350.692 184,351.5C 182.607,364.864 187.107,375.531 197.5,383.5C 200.593,388.136 204.593,392.636 209.5,397C 210.793,397.49 212.127,397.657 213.5,397.5C 198.111,398.218 186.278,391.884 178,378.5C 175.754,371.944 173.587,365.611 171.5,359.5C 167.37,354.869 163.037,350.369 158.5,346C 158.728,345.601 159.062,345.435 159.5,345.5 Z"/></g>
<g><path style="opacity:0.946" fill="#3780ef" d="M 232.5,376.5 C 235.5,378.5 238.5,380.5 241.5,382.5C 234.793,392.19 225.459,397.19 213.5,397.5C 212.127,397.657 210.793,397.49 209.5,397C 204.593,392.636 200.593,388.136 197.5,383.5C 210.927,389.748 222.593,387.415 232.5,376.5 Z"/></g>
<g><path style="opacity:0.944" fill="#5469f2" d="M 371.5,417.5 C 377.228,419.532 381.894,423.199 385.5,428.5C 378.053,428.929 370.719,428.429 363.5,427C 353.333,416.833 343.167,406.667 333,396.5C 330.272,389.136 332.772,386.303 340.5,388C 350.42,398.424 360.754,408.257 371.5,417.5 Z"/></g>
<g><path style="opacity:0.93" fill="#139ceb" d="M 123.5,417.5 C 127.106,422.801 131.772,426.468 137.5,428.5C 127.478,428.168 117.478,428.501 107.5,429.5C 106.196,434.776 103.862,439.442 100.5,443.5C 97.7606,440.767 95.4273,437.767 93.5,434.5C 100.184,418.706 95.5171,407.873 79.5,402C 74.1869,401.121 69.1869,401.955 64.5,404.5C 63.448,404.649 62.448,404.483 61.5,404C 59.5588,401.546 57.2254,399.713 54.5,398.5C 67.6766,388.456 81.3433,387.956 95.5,397C 101.662,402.154 105.662,408.654 107.5,416.5C 112.792,417.495 118.125,417.828 123.5,417.5 Z"/></g>
<g><path style="opacity:0.942" fill="#6b58f5" d="M 454.5,448.5 C 451.833,446.167 449.167,443.833 446.5,441.5C 457.946,431.711 459.28,420.711 450.5,408.5C 439.87,399.234 429.203,399.234 418.5,408.5C 416.431,405.427 413.764,403.094 410.5,401.5C 420.96,390.97 433.294,388.137 447.5,393C 463.764,401.365 469.931,414.532 466,432.5C 464.237,439.414 460.404,444.747 454.5,448.5 Z"/></g>
<g><path style="opacity:0.978" fill="#278dec" d="M 161.5,411.5 C 159.167,408.833 156.833,406.167 154.5,403.5C 159.297,398.202 164.297,393.035 169.5,388C 176.49,385.995 179.324,388.495 178,395.5C 172.631,401.036 167.131,406.37 161.5,411.5 Z"/></g>
<g><path style="opacity:0.95" fill="#1d94ec" d="M 154.5,403.5 C 156.833,406.167 159.167,408.833 161.5,411.5C 156.37,417.131 151.036,422.631 145.5,428C 142.854,428.497 140.187,428.664 137.5,428.5C 131.772,426.468 127.106,422.801 123.5,417.5C 129.176,417.666 134.843,417.499 140.5,417C 145.035,412.297 149.702,407.797 154.5,403.5 Z"/></g>
<g><path style="opacity:0.952" fill="#5d63f3" d="M 410.5,401.5 C 413.764,403.094 416.431,405.427 418.5,408.5C 411.676,418.264 411.842,427.93 419,437.5C 427.262,445.066 436.429,446.399 446.5,441.5C 449.167,443.833 451.833,446.167 454.5,448.5C 439.387,458.508 424.887,457.508 411,445.5C 406.859,440.551 404.359,434.884 403.5,428.5C 397.5,428.5 391.5,428.5 385.5,428.5C 381.894,423.199 377.228,419.532 371.5,417.5C 382.167,417.5 392.833,417.5 403.5,417.5C 404.206,411.425 406.539,406.092 410.5,401.5 Z"/></g>
<g><path style="opacity:0.946" fill="#06a7e9" d="M 54.5,398.5 C 57.2254,399.713 59.5588,401.546 61.5,404C 62.448,404.483 63.448,404.649 64.5,404.5C 49.9336,417.208 50.267,429.708 65.5,442C 76.8214,446.499 86.1548,443.999 93.5,434.5C 95.4273,437.767 97.7606,440.767 100.5,443.5C 91.1443,454.216 79.4776,457.716 65.5,454C 51.0346,448.744 43.3679,438.411 42.5,423C 43.1778,413.145 47.1778,404.979 54.5,398.5 Z"/></g>
</svg>
