<svg 
    xmlns="http://www.w3.org/2000/svg" 
    width="512" 
    height="512" 
    viewBox="0 0 512 512" 
    version="1.1"
>
    <defs>
        <linearGradient id="myGradient" x1="0%" y1="100%" x2="100%" y2="0%">
        <stop offset="0%" stop-color="#02aae9" />
        <stop offset="100%" stop-color="#c216ff" />
        </linearGradient>
    </defs>
    <path 
        d="M 408.772 42.345 C 396.233 46.618, 385.927 55.935, 380.567 67.843 C 378.979 71.371, 378.265 72.031, 376.567 71.542 C 363.925 67.899, 353.789 69.381, 345.115 76.141 C 342.816 77.933, 337.627 78, 201.514 78 C 98.604 78, 59.376 78.309, 56.899 79.138 C 51.316 81.007, 46.930 84.954, 44.402 90.383 C 42.020 95.500, 42.020 95.500, 42.010 237.356 C 42 379.211, 42 379.211, 39.345 382.356 C 35.629 386.756, 32.139 394.625, 31.370 400.335 C 30.948 403.474, 30.155 405.358, 29.110 405.706 C 19.946 408.753, 12.588 414.964, 8.364 423.216 C 4.530 430.704, 3.932 442.182, 6.957 450.202 C 9.776 457.675, 16.590 465.161, 23.797 468.700 C 29.500 471.500, 29.500 471.500, 98.500 471.803 C 175.864 472.142, 174.687 472.234, 185.813 465.043 C 193.153 460.298, 198.435 454.211, 202.337 446 C 204.928 440.549, 205.492 438.007, 205.832 430.250 C 206.239 421, 206.239 421, 330.159 421 C 451.498 421, 454.160 420.959, 457.943 419.029 C 462.678 416.613, 467.709 410.693, 469.015 406 C 469.621 403.822, 469.991 358.629, 469.994 286.361 C 470 170.223, 470 170.223, 473.695 169.529 C 482.476 167.882, 492.379 161.191, 498.670 152.655 C 509.095 138.511, 509.803 117.736, 500.369 102.793 C 494.653 93.737, 482.112 84.841, 473.011 83.386 C 469.545 82.831, 469.385 82.616, 468.336 77.099 C 463.253 50.353, 434.500 33.576, 408.772 42.345 M 411.724 54.480 C 399.951 58.950, 392.529 68.554, 389.544 83.180 C 388.212 89.706, 383.651 90.565, 375.905 85.750 C 371.495 83.009, 369.724 82.501, 364.588 82.506 C 357.253 82.513, 352.695 84.947, 348.389 91.158 C 345.836 94.841, 345.459 96.352, 345.150 104.176 C 344.760 114.047, 343.494 116, 337.489 116 C 333.182 116, 326.119 119.862, 322.857 124 C 321.340 125.925, 319.533 129.637, 318.842 132.250 C 316.445 141.312, 321.172 151.226, 330.058 155.773 C 334.500 158.046, 334.500 158.046, 403 157.773 C 471.500 157.500, 471.500 157.500, 476.423 155.077 C 495.785 145.548, 500.456 119.861, 485.578 104.735 C 480.747 99.824, 473.602 96.270, 466.887 95.438 C 458.414 94.388, 457.413 93.356, 456.623 84.856 C 455.413 71.838, 448.465 61.350, 437.474 55.953 C 431.352 52.947, 417.803 52.172, 411.724 54.480 M 417.500 57.881 C 412.591 59.144, 410.061 60.908, 409.404 63.527 C 408.005 69.099, 412.306 72.471, 418.733 70.840 C 427.626 68.583, 436.034 73.278, 438.150 81.682 C 439.467 86.912, 442.526 89.408, 446.420 88.431 C 451.537 87.146, 452.374 81.444, 448.613 73.500 C 445.731 67.415, 441.001 62.765, 435 60.117 C 429.750 57.801, 421.775 56.782, 417.500 57.881 M 57.455 93.455 C 55.073 95.836, 55 96.345, 55 110.455 C 55 125, 55 125, 181.252 125 C 307.503 125, 307.503 125, 309.928 120.430 C 313.035 114.572, 319.682 108.737, 326.437 105.938 C 331.597 103.799, 331.769 103.599, 332.305 99.117 C 332.609 96.578, 333.163 93.713, 333.536 92.750 C 334.180 91.089, 327.275 91, 197.062 91 C 59.909 91, 59.909 91, 57.455 93.455 M 77.655 103.829 C 75.469 106.244, 75.552 110.284, 77.829 112.345 C 80.142 114.439, 85.373 114.484, 87.429 112.429 C 89.450 110.408, 89.450 105.592, 87.429 103.571 C 85.279 101.422, 79.700 101.569, 77.655 103.829 M 104.655 103.829 C 102.469 106.244, 102.552 110.284, 104.829 112.345 C 107.142 114.439, 112.373 114.484, 114.429 112.429 C 116.550 110.307, 116.415 105.685, 114.171 103.655 C 111.744 101.458, 106.717 101.550, 104.655 103.829 M 131.571 103.571 C 130.707 104.436, 130 106.429, 130 108 C 130 111.771, 132.384 114, 136.416 114 C 142.231 114, 145.278 107.371, 141.171 103.655 C 138.858 101.561, 133.627 101.516, 131.571 103.571 M 55 254.769 C 55 371.539, 55 371.539, 62.250 371.180 C 66.829 370.953, 71.015 371.346, 73.612 372.246 C 77.725 373.671, 77.725 373.671, 80.579 367.586 C 82.333 363.845, 85.817 359.093, 89.621 355.253 C 107.776 336.925, 136.224 336.643, 154.480 354.610 C 160.925 360.953, 166.607 371.559, 167.610 379.118 C 168.219 383.710, 168.340 383.848, 172.740 384.956 C 183.198 387.590, 194.504 395.885, 199.686 404.727 C 202.203 409.023, 202.203 409.023, 327.188 408.761 C 452.173 408.500, 452.173 408.500, 454.587 405.694 C 457 402.888, 457 402.888, 457 286.944 C 457 171, 457 171, 396.182 171 C 330.428 171, 329.619 170.941, 321.054 165.534 C 314.052 161.114, 306.037 149.285, 306.010 143.332 C 306.004 142.139, 305.727 140.452, 305.393 139.582 C 304.844 138.151, 292.857 138, 179.893 138 C 55 138, 55 138, 55 254.769 M 203.557 174.223 C 202.266 176.065, 202 180.078, 202 197.668 C 202 218.892, 202 218.892, 180.034 219.196 C 160.531 219.466, 157.867 219.700, 156.284 221.285 C 154.628 222.942, 154.482 226.589, 154.250 272.285 C 154.055 310.683, 154.281 322.049, 155.279 324 C 156.558 326.500, 156.558 326.500, 179.279 326.769 C 202 327.038, 202 327.038, 202 349.019 C 202 369.667, 202.121 371.121, 204 373 C 205.947 374.947, 207.333 375, 256 375 C 304.667 375, 306.053 374.947, 308 373 C 309.879 371.121, 310 369.667, 310 349.019 C 310 327.038, 310 327.038, 332.721 326.769 C 355.442 326.500, 355.442 326.500, 356.721 324 C 357.719 322.049, 357.945 310.683, 357.750 272.285 C 357.518 226.589, 357.372 222.942, 355.716 221.285 C 354.133 219.700, 351.469 219.466, 331.966 219.196 C 310 218.892, 310 218.892, 310 197.668 C 310 180.078, 309.734 176.065, 308.443 174.223 C 306.887 172, 306.887 172, 256 172 C 205.113 172, 205.113 172, 203.557 174.223 M 215 201.946 C 215 218.892, 215 218.892, 237.082 219.196 C 257.593 219.478, 259.265 219.638, 260.582 221.441 C 262.549 224.134, 262.354 228.370, 260.171 230.345 C 258.526 231.834, 253.766 232, 212.671 232 C 167 232, 167 232, 167 273.500 C 167 315, 167 315, 184.500 315 C 202 315, 202 315, 202 293 C 202 272.333, 202.121 270.879, 204 269 C 205.941 267.059, 207.333 267, 251.500 267 C 297 267, 297 267, 297 226 C 297 185, 297 185, 256 185 C 215 185, 215 185, 215 201.946 M 230.571 197.571 C 229.707 198.436, 229 200.429, 229 202 C 229 206.545, 231.283 208, 238.416 208 C 243.224 208, 245.077 207.573, 246.345 206.171 C 248.531 203.756, 248.448 199.716, 246.171 197.655 C 243.684 195.404, 232.797 195.346, 230.571 197.571 M 309.985 253.750 C 309.976 265.712, 309.639 275.995, 309.235 276.600 C 307.110 279.782, 303.925 280, 259.566 280 C 215 280, 215 280, 215 321 C 215 362, 215 362, 256 362 C 297 362, 297 362, 297 344.500 C 297 327, 297 327, 275.071 327 C 251.033 327, 250 326.756, 250 321.084 C 250 314.884, 249.063 315, 299.329 315 C 345 315, 345 315, 345 273.500 C 345 232, 345 232, 327.500 232 C 310 232, 310 232, 309.985 253.750 M 267.500 339.137 C 264.783 340.756, 264.033 342.039, 264.015 345.095 C 263.991 349.264, 266.830 351, 273.674 351 C 278.232 351, 280.091 350.557, 281.345 349.171 C 283.435 346.862, 283.489 341.650, 281.439 339.950 C 279.328 338.198, 269.989 337.653, 267.500 339.137 M 114.383 354.890 C 108.130 356.501, 101.943 360.269, 97.576 365.127 C 93.086 370.121, 89 378.914, 89 383.583 C 89 386.266, 84.990 391, 82.717 391 C 81.961 391, 79.301 389.648, 76.806 387.995 C 69.168 382.936, 59.010 382.378, 53.185 386.697 C 51.708 387.792, 49.150 390.598, 47.500 392.932 C 44.868 396.654, 44.491 398.054, 44.425 404.337 C 44.305 415.683, 44.056 416.052, 35.535 417.498 C 27.271 418.901, 20.803 424.556, 18.468 432.420 C 15.510 442.381, 20.071 452.518, 29.700 457.383 C 32.554 458.825, 40.194 458.999, 100.200 458.994 C 142.920 458.991, 168.843 458.616, 171.177 457.967 C 176.660 456.445, 183.986 451.092, 187.685 445.908 C 201.688 426.278, 189.274 399.456, 164.807 396.477 C 161.507 396.075, 158.516 395.094, 157.691 394.142 C 156.908 393.239, 155.990 389.372, 155.652 385.549 C 154.121 368.234, 140.910 355.194, 124.094 354.399 C 120.467 354.227, 116.097 354.448, 114.383 354.890 M 113.329 360.458 C 107.938 362.803, 106.611 367.132, 110.127 370.906 C 111.994 372.910, 112.820 373.098, 116.877 372.448 C 119.420 372.040, 122.780 371.783, 124.344 371.876 C 130.568 372.248, 136.350 377.499, 137.640 383.952 C 138.735 389.425, 144.982 391.888, 148.345 388.171 C 154.218 381.682, 144.273 364.666, 132.205 360.554 C 126.614 358.649, 117.593 358.603, 113.329 360.458" 
        stroke="none" 
        fill="url(#myGradient)" 
        fill-rule="evenodd"
    />
</svg>