<?xml version="1.0" encoding="UTF-8"?>
<!DOCTYPE svg PUBLIC "-//W3C//DTD SVG 1.1//EN" "http://www.w3.org/Graphics/SVG/1.1/DTD/svg11.dtd">
<svg xmlns="http://www.w3.org/2000/svg" version="1.1" width="512px" height="512px" style="shape-rendering:geometricPrecision; text-rendering:geometricPrecision; image-rendering:optimizeQuality; fill-rule:evenodd; clip-rule:evenodd" xmlns:xlink="http://www.w3.org/1999/xlink">
<g><path style="opacity:0.974" fill="#5db9ff" d="M 461.5,60.5 C 457.087,62.1384 452.421,63.1384 447.5,63.5C 436.718,52.5226 424.051,49.6893 409.5,55C 404.944,57.1058 400.944,59.9392 397.5,63.5C 392.695,62.5128 387.695,62.1795 382.5,62.5C 393.832,44.5387 410.166,37.0387 431.5,40C 444.378,42.7258 454.378,49.5592 461.5,60.5 Z"/></g>
<g><path style="opacity:0.965" fill="#60afff" d="M 382.5,62.5 C 387.695,62.1795 392.695,62.5128 397.5,63.5C 392.475,69.5578 389.642,76.5578 389,84.5C 386.947,88.2916 383.781,89.4582 379.5,88C 368.178,78.7326 357.678,79.566 348,90.5C 345.004,95.7704 343.838,101.437 344.5,107.5C 336.833,107.5 329.167,107.5 321.5,107.5C 324.37,105.206 327.703,103.872 331.5,103.5C 331.23,99.1496 331.897,94.983 333.5,91C 242.5,90.3333 151.5,90.3333 60.5,91C 55.4361,93.6294 53.4361,97.7961 54.5,103.5C 53.5655,104.568 53.2322,105.901 53.5,107.5C 49.5,107.5 45.5,107.5 41.5,107.5C 38.9099,93.1696 44.2433,83.3363 57.5,78C 152.5,77.6667 247.5,77.3333 342.5,77C 353.033,68.2619 364.699,66.4286 377.5,71.5C 378.988,68.338 380.654,65.338 382.5,62.5 Z"/></g>
<g><path style="opacity:0.955" fill="#5fb3ff" d="M 418.5,56.5 C 432.444,55.6513 442.611,61.3179 449,73.5C 450.434,77.4065 450.767,81.4065 450,85.5C 447.225,88.6539 444.058,89.1539 440.5,87C 438.408,82.8225 436.241,78.6558 434,74.5C 428.158,69.2988 421.658,68.2988 414.5,71.5C 409.312,70.1307 407.479,66.7973 409,61.5C 411.793,58.9696 414.96,57.3029 418.5,56.5 Z"/></g>
<g><path style="opacity:0.951" fill="#61adff" d="M 461.5,60.5 C 466.218,66.9902 468.551,74.3236 468.5,82.5C 484.53,84.5088 495.863,92.8422 502.5,107.5C 497.833,107.5 493.167,107.5 488.5,107.5C 480.911,98.7077 471.245,94.2077 459.5,94C 458.667,93.1667 457.833,92.3333 457,91.5C 457.103,80.974 453.936,71.6406 447.5,63.5C 452.421,63.1384 457.087,62.1384 461.5,60.5 Z"/></g>
<g><path style="opacity:0.831" fill="#65a4ff" d="M 54.5,103.5 C 54.5,110.5 54.5,117.5 54.5,124.5C 138.833,124.5 223.167,124.5 307.5,124.5C 309.929,117.064 314.596,111.397 321.5,107.5C 329.167,107.5 336.833,107.5 344.5,107.5C 345.235,110.432 344.235,112.932 341.5,115C 332.369,115.227 325.369,119.06 320.5,126.5C 227.541,127.495 134.541,127.828 41.5,127.5C 41.5,120.833 41.5,114.167 41.5,107.5C 45.5,107.5 49.5,107.5 53.5,107.5C 53.2322,105.901 53.5655,104.568 54.5,103.5 Z"/></g>
<g><path style="opacity:0.949" fill="#63a9ff" d="M 78.5,101.5 C 84.3176,99.969 87.9843,101.969 89.5,107.5C 87.973,113.19 84.3063,115.024 78.5,113C 74.5548,109.169 74.5548,105.336 78.5,101.5 Z"/></g>
<g><path style="opacity:0.937" fill="#64a8ff" d="M 104.5,101.5 C 114.989,99.8049 117.989,103.638 113.5,113C 103.221,114.954 100.221,111.121 104.5,101.5 Z"/></g>
<g><path style="opacity:0.936" fill="#63a8ff" d="M 131.5,101.5 C 141.585,100.069 144.585,103.903 140.5,113C 129.754,115.094 126.754,111.26 131.5,101.5 Z"/></g>
<g><path style="opacity:0.974" fill="#66a0ff" d="M 320.5,126.5 C 316.235,134.58 316.901,142.247 322.5,149.5C 317.562,148.608 312.562,148.274 307.5,148.5C 305.742,145.146 304.742,141.479 304.5,137.5C 221.167,137.5 137.833,137.5 54.5,137.5C 54.5,141.167 54.5,144.833 54.5,148.5C 50.5,148.5 46.5,148.5 42.5,148.5C 42.7373,149.791 42.404,150.791 41.5,151.5C 41.5,143.5 41.5,135.5 41.5,127.5C 134.541,127.828 227.541,127.495 320.5,126.5 Z"/></g>
<g><path style="opacity:0.946" fill="#66a1ff" d="M 488.5,107.5 C 493.167,107.5 497.833,107.5 502.5,107.5C 504.328,110.135 505.495,113.135 506,116.5C 508.273,128.835 506.107,140.168 499.5,150.5C 494.944,148.558 489.944,147.892 484.5,148.5C 492.472,140.069 495.306,130.069 493,118.5C 491.487,114.812 489.987,111.145 488.5,107.5 Z"/></g>
<g><path style="opacity:0.949" fill="#6998ff" d="M 307.5,148.5 C 312.562,148.274 317.562,148.608 322.5,149.5C 325.626,153.238 329.626,155.738 334.5,157C 379.167,157.667 423.833,157.667 468.5,157C 474.591,155.456 479.924,152.623 484.5,148.5C 489.944,147.892 494.944,148.558 499.5,150.5C 492.41,161.381 482.41,167.714 469.5,169.5C 469.5,170.5 469.5,171.5 469.5,172.5C 465.5,172.5 461.5,172.5 457.5,172.5C 457.768,174.099 457.434,175.432 456.5,176.5C 456.5,174.5 456.5,172.5 456.5,170.5C 415.165,170.667 373.832,170.5 332.5,170C 322.15,167.969 314.317,162.469 309,153.5C 307.991,151.975 307.491,150.308 307.5,148.5 Z"/></g>
<g><path style="opacity:0.937" fill="#6b93ff" d="M 309.5,196.5 C 308.596,195.791 308.263,194.791 308.5,193.5C 304.5,193.5 300.5,193.5 296.5,193.5C 296.5,190.5 296.5,187.5 296.5,184.5C 269.167,184.5 241.833,184.5 214.5,184.5C 214.5,187.5 214.5,190.5 214.5,193.5C 210.5,193.5 206.5,193.5 202.5,193.5C 202.737,194.791 202.404,195.791 201.5,196.5C 201.334,189.159 201.5,181.826 202,174.5C 202.833,173.667 203.667,172.833 204.5,172C 238.5,171.333 272.5,171.333 306.5,172C 307.333,172.833 308.167,173.667 309,174.5C 309.5,181.826 309.666,189.159 309.5,196.5 Z"/></g>
<g><path style="opacity:0.928" fill="#6b94ff" d="M 54.5,148.5 C 54.5,163.5 54.5,178.5 54.5,193.5C 50.5,193.5 46.5,193.5 42.5,193.5C 42.7373,194.791 42.404,195.791 41.5,196.5C 41.5,181.5 41.5,166.5 41.5,151.5C 42.404,150.791 42.7373,149.791 42.5,148.5C 46.5,148.5 50.5,148.5 54.5,148.5 Z"/></g>
<g><path style="opacity:0.935" fill="#6d8eff" d="M 469.5,172.5 C 469.5,186.5 469.5,200.5 469.5,214.5C 465.5,214.5 461.5,214.5 457.5,214.5C 457.737,213.209 457.404,212.209 456.5,211.5C 456.5,199.833 456.5,188.167 456.5,176.5C 457.434,175.432 457.768,174.099 457.5,172.5C 461.5,172.5 465.5,172.5 469.5,172.5 Z"/></g>
<g><path style="opacity:0.948" fill="#6e8dff" d="M 230.5,195.5 C 235.511,195.334 240.511,195.501 245.5,196C 247.923,199.379 248.09,202.879 246,206.5C 240.918,207.637 235.751,207.804 230.5,207C 226.649,203.188 226.649,199.354 230.5,195.5 Z"/></g>
<g><path style="opacity:0.906" fill="#7088ff" d="M 54.5,193.5 C 54.5,206.167 54.5,218.833 54.5,231.5C 53.596,232.209 53.2627,233.209 53.5,234.5C 49.5,234.5 45.5,234.5 41.5,234.5C 41.5,221.833 41.5,209.167 41.5,196.5C 42.404,195.791 42.7373,194.791 42.5,193.5C 46.5,193.5 50.5,193.5 54.5,193.5 Z"/></g>
<g><path style="opacity:0.957" fill="#7087ff" d="M 296.5,193.5 C 300.5,193.5 304.5,193.5 308.5,193.5C 308.263,194.791 308.596,195.791 309.5,196.5C 309.5,203.833 309.5,211.167 309.5,218.5C 323.837,218.333 338.171,218.5 352.5,219C 354.667,219.833 356.167,221.333 357,223.5C 357.499,229.491 357.666,235.491 357.5,241.5C 356.532,239.393 356.198,237.059 356.5,234.5C 352.5,234.5 348.5,234.5 344.5,234.5C 344.5,233.5 344.5,232.5 344.5,231.5C 332.833,231.5 321.167,231.5 309.5,231.5C 309.5,232.5 309.5,233.5 309.5,234.5C 305.5,234.5 301.5,234.5 297.5,234.5C 297.737,233.209 297.404,232.209 296.5,231.5C 296.5,218.833 296.5,206.167 296.5,193.5 Z"/></g>
<g><path style="opacity:0.974" fill="#7185ff" d="M 214.5,193.5 C 214.5,201.833 214.5,210.167 214.5,218.5C 228.837,218.333 243.171,218.5 257.5,219C 260.683,220.018 262.016,222.185 261.5,225.5C 261.954,228.224 260.954,230.057 258.5,231C 227.835,231.5 197.168,231.667 166.5,231.5C 166.5,240.5 166.5,249.5 166.5,258.5C 162.5,258.5 158.5,258.5 154.5,258.5C 154.737,257.209 154.404,256.209 153.5,255.5C 153.333,244.828 153.5,234.161 154,223.5C 154.465,222.069 155.299,220.903 156.5,220C 171.403,218.533 186.403,218.033 201.5,218.5C 201.5,211.167 201.5,203.833 201.5,196.5C 202.404,195.791 202.737,194.791 202.5,193.5C 206.5,193.5 210.5,193.5 214.5,193.5 Z"/></g>
<g><path style="opacity:0.921" fill="#7282ff" d="M 456.5,211.5 C 457.404,212.209 457.737,213.209 457.5,214.5C 461.5,214.5 465.5,214.5 469.5,214.5C 469.5,228.167 469.5,241.833 469.5,255.5C 468.596,256.209 468.263,257.209 468.5,258.5C 464.5,258.5 460.5,258.5 456.5,258.5C 456.5,242.833 456.5,227.167 456.5,211.5 Z"/></g>
<g><path style="opacity:0.91" fill="#757cff" d="M 54.5,231.5 C 54.5,248.167 54.5,264.833 54.5,281.5C 50.4865,279.666 46.1532,278.999 41.5,279.5C 41.5,264.5 41.5,249.5 41.5,234.5C 45.5,234.5 49.5,234.5 53.5,234.5C 53.2627,233.209 53.596,232.209 54.5,231.5 Z"/></g>
<g><path style="opacity:0.94" fill="#7679ff" d="M 296.5,231.5 C 297.404,232.209 297.737,233.209 297.5,234.5C 301.5,234.5 305.5,234.5 309.5,234.5C 309.667,248.171 309.5,261.837 309,275.5C 308.5,277.333 307.333,278.5 305.5,279C 275.168,279.5 244.835,279.667 214.5,279.5C 214.5,287.5 214.5,295.5 214.5,303.5C 213.596,302.791 213.263,301.791 213.5,300.5C 209.5,300.5 205.5,300.5 201.5,300.5C 201.334,290.161 201.5,279.828 202,269.5C 202.833,268.667 203.667,267.833 204.5,267C 235.165,266.5 265.832,266.333 296.5,266.5C 296.5,254.833 296.5,243.167 296.5,231.5 Z"/></g>
<g><path style="opacity:0.945" fill="#757bff" d="M 344.5,234.5 C 348.5,234.5 352.5,234.5 356.5,234.5C 356.198,237.059 356.532,239.393 357.5,241.5C 357.5,255.5 357.5,269.5 357.5,283.5C 356.566,282.432 356.232,281.099 356.5,279.5C 352.5,279.5 348.5,279.5 344.5,279.5C 344.5,264.5 344.5,249.5 344.5,234.5 Z"/></g>
<g><path style="opacity:0.944" fill="#7775ff" d="M 153.5,255.5 C 154.404,256.209 154.737,257.209 154.5,258.5C 158.5,258.5 162.5,258.5 166.5,258.5C 166.5,272.5 166.5,286.5 166.5,300.5C 162.5,300.5 158.5,300.5 154.5,300.5C 154.768,298.901 154.434,297.568 153.5,296.5C 153.5,282.833 153.5,269.167 153.5,255.5 Z"/></g>
<g><path style="opacity:0.944" fill="#7873ff" d="M 344.5,279.5 C 348.5,279.5 352.5,279.5 356.5,279.5C 356.232,281.099 356.566,282.432 357.5,283.5C 357.5,287.833 357.5,292.167 357.5,296.5C 356.566,297.568 356.232,298.901 356.5,300.5C 352.5,300.5 348.5,300.5 344.5,300.5C 344.5,293.5 344.5,286.5 344.5,279.5 Z"/></g>
<g><path style="opacity:0.921" fill="#7775ff" d="M 469.5,255.5 C 469.5,270.5 469.5,285.5 469.5,300.5C 465.5,300.5 461.5,300.5 457.5,300.5C 457.737,301.791 457.404,302.791 456.5,303.5C 456.5,288.5 456.5,273.5 456.5,258.5C 460.5,258.5 464.5,258.5 468.5,258.5C 468.263,257.209 468.596,256.209 469.5,255.5 Z"/></g>
<g><path style="opacity:0.969" fill="#7b6aff" d="M 357.5,296.5 C 357.666,305.173 357.5,313.84 357,322.5C 356.535,323.931 355.701,325.097 354.5,326C 339.572,327.451 324.572,327.951 309.5,327.5C 309.5,333.5 309.5,339.5 309.5,345.5C 305.5,345.5 301.5,345.5 297.5,345.5C 297.737,346.791 297.404,347.791 296.5,348.5C 296.5,341.5 296.5,334.5 296.5,327.5C 281.442,327.934 266.442,327.434 251.5,326C 248.833,322.333 248.833,318.667 251.5,315C 282.498,314.5 313.498,314.333 344.5,314.5C 344.5,309.833 344.5,305.167 344.5,300.5C 348.5,300.5 352.5,300.5 356.5,300.5C 356.232,298.901 356.566,297.568 357.5,296.5 Z"/></g>
<g><path style="opacity:0.926" fill="#7a6fff" d="M 41.5,279.5 C 46.1532,278.999 50.4865,279.666 54.5,281.5C 54.5,294.833 54.5,308.167 54.5,321.5C 50.5,321.5 46.5,321.5 42.5,321.5C 42.7373,322.791 42.404,323.791 41.5,324.5C 41.5,309.5 41.5,294.5 41.5,279.5 Z"/></g>
<g><path style="opacity:0.935" fill="#7c69ff" d="M 153.5,296.5 C 154.434,297.568 154.768,298.901 154.5,300.5C 158.5,300.5 162.5,300.5 166.5,300.5C 166.5,305.167 166.5,309.833 166.5,314.5C 178.167,314.5 189.833,314.5 201.5,314.5C 201.5,309.833 201.5,305.167 201.5,300.5C 205.5,300.5 209.5,300.5 213.5,300.5C 213.263,301.791 213.596,302.791 214.5,303.5C 214.5,318.5 214.5,333.5 214.5,348.5C 213.596,347.791 213.263,346.791 213.5,345.5C 209.5,345.5 205.5,345.5 201.5,345.5C 201.5,339.5 201.5,333.5 201.5,327.5C 186.428,327.951 171.428,327.451 156.5,326C 155.299,325.097 154.465,323.931 154,322.5C 153.5,313.84 153.334,305.173 153.5,296.5 Z"/></g>
<g><path style="opacity:0.927" fill="#7c68ff" d="M 469.5,300.5 C 469.5,315.5 469.5,330.5 469.5,345.5C 465.5,345.5 461.5,345.5 457.5,345.5C 457.737,346.791 457.404,347.791 456.5,348.5C 456.5,333.5 456.5,318.5 456.5,303.5C 457.404,302.791 457.737,301.791 457.5,300.5C 461.5,300.5 465.5,300.5 469.5,300.5 Z"/></g>
<g><path style="opacity:0.912" fill="#7e63ff" d="M 267.5,337.5 C 271.967,337.133 276.3,337.633 280.5,339C 284.5,342.667 284.5,346.333 280.5,350C 275.446,350.781 270.446,350.614 265.5,349.5C 262.37,344.726 263.036,340.726 267.5,337.5 Z"/></g>
<g><path style="opacity:0.95" fill="#7f61ff" d="M 161.5,363.5 C 157.427,365.135 153.094,366.135 148.5,366.5C 131.182,349.604 113.515,349.27 95.5,365.5C 90.4053,365.221 85.4053,365.555 80.5,366.5C 91.9917,345.59 109.658,337.423 133.5,342C 145.692,345.58 155.025,352.746 161.5,363.5 Z"/></g>
<g><path style="opacity:0.925" fill="#7f62ff" d="M 54.5,321.5 C 54.5,336.167 54.5,350.833 54.5,365.5C 50.5,365.5 46.5,365.5 42.5,365.5C 42.7678,367.099 42.4345,368.432 41.5,369.5C 41.5,354.5 41.5,339.5 41.5,324.5C 42.404,323.791 42.7373,322.791 42.5,321.5C 46.5,321.5 50.5,321.5 54.5,321.5 Z"/></g>
<g><path style="opacity:0.957" fill="#8358ff" d="M 54.5,365.5 C 54.3379,367.527 54.5045,369.527 55,371.5C 62.0525,370.003 69.0525,370.336 76,372.5C 77.9426,370.864 79.4426,368.864 80.5,366.5C 85.4053,365.555 90.4053,365.221 95.5,365.5C 93.6932,369.114 91.8599,372.78 90,376.5C 89.3082,380.847 88.1416,385.014 86.5,389C 84.8632,389.601 83.1966,390.101 81.5,390.5C 77.6494,388.171 73.6494,386.005 69.5,384C 52.1917,382.138 43.525,389.971 43.5,407.5C 36.9779,407.823 30.6446,407.49 24.5,406.5C 26.1379,405.841 27.8045,405.174 29.5,404.5C 30.3556,394.46 34.189,385.794 41,378.5C 41.498,375.518 41.6646,372.518 41.5,369.5C 42.4345,368.432 42.7678,367.099 42.5,365.5C 46.5,365.5 50.5,365.5 54.5,365.5 Z"/></g>
<g><path style="opacity:0.947" fill="#825bff" d="M 114.5,358.5 C 134.175,355.991 146.175,364.324 150.5,383.5C 147.636,390.115 143.47,391.115 138,386.5C 137.067,380.801 134.234,376.301 129.5,373C 122.805,372.052 116.139,371.385 109.5,371C 106.058,364.723 107.725,360.556 114.5,358.5 Z"/></g>
<g><path style="opacity:0.96" fill="#815dff" d="M 201.5,345.5 C 205.5,345.5 209.5,345.5 213.5,345.5C 213.263,346.791 213.596,347.791 214.5,348.5C 214.5,352.833 214.5,357.167 214.5,361.5C 241.833,361.5 269.167,361.5 296.5,361.5C 296.5,357.167 296.5,352.833 296.5,348.5C 297.404,347.791 297.737,346.791 297.5,345.5C 301.5,345.5 305.5,345.5 309.5,345.5C 309.666,354.173 309.5,362.84 309,371.5C 308.167,372.333 307.333,373.167 306.5,374C 272.5,374.667 238.5,374.667 204.5,374C 203.667,373.167 202.833,372.333 202,371.5C 201.5,362.84 201.334,354.173 201.5,345.5 Z"/></g>
<g><path style="opacity:0.934" fill="#815cff" d="M 469.5,345.5 C 469.5,359.167 469.5,372.833 469.5,386.5C 465.5,386.5 461.5,386.5 457.5,386.5C 457.737,385.209 457.404,384.209 456.5,383.5C 456.5,371.833 456.5,360.167 456.5,348.5C 457.404,347.791 457.737,346.791 457.5,345.5C 461.5,345.5 465.5,345.5 469.5,345.5 Z"/></g>
<g><path style="opacity:0.961" fill="#8456ff" d="M 161.5,363.5 C 165.331,369.156 167.497,375.489 168,382.5C 178.986,384.991 188.319,390.325 196,398.5C 197.777,401.059 199.277,403.726 200.5,406.5C 195.792,406.78 191.458,407.78 187.5,409.5C 185.027,406.196 182.027,403.362 178.5,401C 171.359,397.763 164.025,395.263 156.5,393.5C 156.054,383.779 153.387,374.779 148.5,366.5C 153.094,366.135 157.427,365.135 161.5,363.5 Z"/></g>
<g><path style="opacity:0.953" fill="#874eff" d="M 24.5,406.5 C 30.6446,407.49 36.9779,407.823 43.5,407.5C 44.9654,410.655 44.2987,413.489 41.5,416C 30.3014,416.421 22.3014,421.587 17.5,431.5C 13.0685,431.769 8.7352,431.436 4.5,430.5C 7.17736,419.158 13.844,411.158 24.5,406.5 Z"/></g>
<g><path style="opacity:0.929" fill="#864fff" d="M 456.5,383.5 C 457.404,384.209 457.737,385.209 457.5,386.5C 461.5,386.5 465.5,386.5 469.5,386.5C 469.666,392.509 469.499,398.509 469,404.5C 465.738,414.429 458.904,419.929 448.5,421C 367.501,421.5 286.501,421.667 205.5,421.5C 206.627,424.857 206.627,428.191 205.5,431.5C 201.069,431.769 196.735,431.436 192.5,430.5C 193.511,422.969 191.844,415.969 187.5,409.5C 191.458,407.78 195.792,406.78 200.5,406.5C 241.789,407.828 283.289,408.494 325,408.5C 366.167,408.333 407.333,408.167 448.5,408C 452.02,407.496 454.52,405.663 456,402.5C 456.5,396.175 456.666,389.842 456.5,383.5 Z"/></g>
<g><path style="opacity:0.928" fill="#8c42ff" d="M 4.5,430.5 C 8.7352,431.436 13.0685,431.769 17.5,431.5C 15.4209,444.523 20.4209,453.356 32.5,458C 77.8333,458.667 123.167,458.667 168.5,458C 182.656,454.178 190.656,445.012 192.5,430.5C 196.735,431.436 201.069,431.769 205.5,431.5C 203.673,449.508 194.339,462.008 177.5,469C 174.899,469.92 172.232,470.587 169.5,471C 146.333,471.167 123.167,471.333 100,471.5C 75.4524,471.648 50.9524,471.148 26.5,470C 9.20015,462.503 1.86681,449.336 4.5,430.5 Z"/></g>
</svg>
