<?xml version="1.0" encoding="UTF-8"?>
<!DOCTYPE svg PUBLIC "-//W3C//DTD SVG 1.1//EN" "http://www.w3.org/Graphics/SVG/1.1/DTD/svg11.dtd">
<svg xmlns="http://www.w3.org/2000/svg" version="1.1" width="512px" height="512px" style="shape-rendering:geometricPrecision; text-rendering:geometricPrecision; image-rendering:optimizeQuality; fill-rule:evenodd; clip-rule:evenodd" xmlns:xlink="http://www.w3.org/1999/xlink">
<g><path style="opacity:0.983" fill="#0cafd3" d="M 442.5,-0.5 C 449.833,-0.5 457.167,-0.5 464.5,-0.5C 471.22,0.968162 477.22,3.96816 482.5,8.5C 460.264,9.8262 437.931,9.8262 415.5,8.5C 424.18,4.49564 433.18,1.49564 442.5,-0.5 Z"/></g>
<g><path style="opacity:0.989" fill="#0fadd4" d="M 261.5,-0.5 C 268.833,-0.5 276.167,-0.5 283.5,-0.5C 304.04,4.26857 323.04,12.6019 340.5,24.5C 329.679,25.4946 318.679,25.8279 307.5,25.5C 296.182,20.5624 284.349,17.5624 272,16.5C 263.549,16.1487 256.715,19.1487 251.5,25.5C 245.31,25.8229 239.31,25.4896 233.5,24.5C 237.921,10.6289 247.254,2.2956 261.5,-0.5 Z"/></g>
<g><path style="opacity:0.987" fill="#11abd5" d="M 415.5,8.5 C 437.931,9.8262 460.264,9.8262 482.5,8.5C 492.635,18.9791 496.968,31.6458 495.5,46.5C 489.5,46.5 483.5,46.5 477.5,46.5C 479.197,24.6962 469.197,14.8629 447.5,17C 437.55,18.9283 427.884,21.7616 418.5,25.5C 406.833,25.5 395.167,25.5 383.5,25.5C 393.556,18.8036 404.223,13.137 415.5,8.5 Z"/></g>
<g><path style="opacity:0.971" fill="#15a7d6" d="M 340.5,24.5 C 348.372,28.8599 355.872,33.8599 363,39.5C 369.602,34.4526 376.435,29.7859 383.5,25.5C 395.167,25.5 406.833,25.5 418.5,25.5C 406.18,31.9919 394.18,38.9919 382.5,46.5C 369.167,46.5 355.833,46.5 342.5,46.5C 331.295,38.7307 319.628,31.7307 307.5,25.5C 318.679,25.8279 329.679,25.4946 340.5,24.5 Z"/></g>
<g><path style="opacity:0.953" fill="#19a4d7" d="M 233.5,24.5 C 239.31,25.4896 245.31,25.8229 251.5,25.5C 247.061,35.5775 246.395,45.9108 249.5,56.5C 212.833,56.5 176.167,56.5 139.5,56.5C 134.118,47.1835 128.785,47.1835 123.5,56.5C 117.741,56.2143 112.075,56.5476 106.5,57.5C 109.384,36.8024 121.051,28.9691 141.5,34C 148.167,36.6667 152.833,41.3333 155.5,48C 180.498,48.5 205.498,48.6666 230.5,48.5C 230.334,43.4889 230.501,38.4889 231,33.5C 231.204,30.2026 232.037,27.2026 233.5,24.5 Z"/></g>
<g><path style="opacity:0.972" fill="#1ca2d8" d="M 477.5,46.5 C 483.5,46.5 489.5,46.5 495.5,46.5C 494.836,54.8273 493.169,62.8273 490.5,70.5C 484.409,70.7886 478.409,70.4553 472.5,69.5C 475.266,62.0999 476.933,54.4332 477.5,46.5 Z"/></g>
<g><path style="opacity:0.986" fill="#1da1d8" d="M 123.5,56.5 C 124.105,61.6048 126.938,64.6048 132,65.5C 136.509,64.1585 139.009,61.1585 139.5,56.5C 176.167,56.5 212.833,56.5 249.5,56.5C 250.657,60.7933 251.657,65.1266 252.5,69.5C 246.69,70.4896 240.69,70.8229 234.5,70.5C 234.67,69.1779 234.337,68.0113 233.5,67C 207.169,66.5 180.835,66.3334 154.5,66.5C 154.771,68.3797 154.104,69.713 152.5,70.5C 138.5,70.5 124.5,70.5 110.5,70.5C 107.584,66.7454 106.25,62.4121 106.5,57.5C 112.075,56.5476 117.741,56.2143 123.5,56.5 Z"/></g>
<g><path style="opacity:0.968" fill="#1ca1d8" d="M 342.5,46.5 C 355.833,46.5 369.167,46.5 382.5,46.5C 380.906,47.983 379.24,49.483 377.5,51C 384.363,57.0328 391.03,63.1995 397.5,69.5C 389.684,70.4924 381.684,70.8257 373.5,70.5C 369.852,67.8581 366.185,65.1914 362.5,62.5C 359.436,65.5703 356.103,68.2369 352.5,70.5C 344.167,70.5 335.833,70.5 327.5,70.5C 333.702,63.1315 340.702,56.6315 348.5,51C 346.316,49.6366 344.316,48.1366 342.5,46.5 Z"/></g>
<g><path style="opacity:0.978" fill="#219dd9" d="M 110.5,70.5 C 124.5,70.5 138.5,70.5 152.5,70.5C 150.15,75.1797 146.483,78.513 141.5,80.5C 140.511,84.1073 140.177,87.774 140.5,91.5C 134.833,91.5 129.167,91.5 123.5,91.5C 123.817,95.7016 123.483,99.7016 122.5,103.5C 122.831,95.8045 122.497,88.1378 121.5,80.5C 116.517,78.513 112.85,75.1797 110.5,70.5 Z"/></g>
<g><path style="opacity:0.961" fill="#239cd9" d="M 472.5,69.5 C 478.409,70.4553 484.409,70.7886 490.5,70.5C 488.798,78.2794 486.132,85.6127 482.5,92.5C 476.69,91.5104 470.69,91.1771 464.5,91.5C 467.723,84.3831 470.39,77.0498 472.5,69.5 Z"/></g>
<g><path style="opacity:0.937" fill="#239bda" d="M 327.5,70.5 C 335.833,70.5 344.167,70.5 352.5,70.5C 345.193,77.4723 337.86,84.4723 330.5,91.5C 322.192,91.5558 314.192,91.5558 306.5,91.5C 313.167,84.1667 320.167,77.1667 327.5,70.5 Z"/></g>
<g><path style="opacity:0.961" fill="#249ada" d="M 397.5,69.5 C 410.611,80.9399 422.278,93.6066 432.5,107.5C 425.167,107.5 417.833,107.5 410.5,107.5C 398.5,94.8333 386.167,82.5 373.5,70.5C 381.684,70.8257 389.684,70.4924 397.5,69.5 Z"/></g>
<g><path style="opacity:0.973" fill="#2897db" d="M 140.5,91.5 C 140.5,97.1667 140.5,102.833 140.5,108.5C 139.596,109.209 139.263,110.209 139.5,111.5C 133.741,111.786 128.075,111.452 122.5,110.5C 122.5,108.167 122.5,105.833 122.5,103.5C 123.483,99.7016 123.817,95.7016 123.5,91.5C 129.167,91.5 134.833,91.5 140.5,91.5 Z"/></g>
<g><path style="opacity:0.967" fill="#2699db" d="M 252.5,69.5 C 257.716,83.9369 264.049,97.9369 271.5,111.5C 265.167,111.5 258.833,111.5 252.5,111.5C 244.97,98.6032 238.97,84.9365 234.5,70.5C 240.69,70.8229 246.69,70.4896 252.5,69.5 Z"/></g>
<g><path style="opacity:0.958" fill="#2897db" d="M 306.5,91.5 C 314.192,91.5558 322.192,91.5558 330.5,91.5C 324.13,97.8683 318.13,104.535 312.5,111.5C 304.981,111.825 297.648,111.492 290.5,110.5C 295.606,103.941 300.939,97.608 306.5,91.5 Z"/></g>
<g><path style="opacity:0.969" fill="#2f91dd" d="M 140.5,108.5 C 140.5,110.5 140.5,112.5 140.5,114.5C 166.574,111.672 191.24,116.172 214.5,128C 217.02,129.697 219.353,131.53 221.5,133.5C 206.372,132.192 191.372,132.192 176.5,133.5C 145.549,132.188 114.549,132.188 83.5,133.5C 70.1667,132.833 56.8333,132.167 43.5,131.5C 57.6596,121.946 73.3262,116.446 90.5,115C 101.161,114.5 111.828,114.333 122.5,114.5C 122.5,113.167 122.5,111.833 122.5,110.5C 128.075,111.452 133.741,111.786 139.5,111.5C 139.263,110.209 139.596,109.209 140.5,108.5 Z"/></g>
<g><path style="opacity:0.967" fill="#2e92dd" d="M 290.5,110.5 C 297.648,111.492 304.981,111.825 312.5,111.5C 306.804,118.192 301.137,124.858 295.5,131.5C 284.833,131.5 274.167,131.5 263.5,131.5C 259.313,125.127 255.647,118.461 252.5,111.5C 258.833,111.5 265.167,111.5 271.5,111.5C 274.143,115.435 276.81,119.435 279.5,123.5C 282.937,118.95 286.604,114.617 290.5,110.5 Z"/></g>
<g><path style="opacity:0.963" fill="#2d93dd" d="M 403.5,131.5 C 397.5,131.5 391.5,131.5 385.5,131.5C 376.398,115.224 363.731,111.724 347.5,121C 344.161,124.482 341.494,128.315 339.5,132.5C 333.833,131.833 328.167,131.167 322.5,130.5C 327.796,109.877 341.13,99.2106 362.5,98.5C 384.471,99.3046 398.138,110.305 403.5,131.5 Z"/></g>
<g><path style="opacity:0.968" fill="#2d93dd" d="M 464.5,91.5 C 470.69,91.1771 476.69,91.5104 482.5,92.5C 477.041,106.757 470.041,120.09 461.5,132.5C 451.319,132.173 441.319,132.506 431.5,133.5C 424.511,124.873 417.511,116.206 410.5,107.5C 417.833,107.5 425.167,107.5 432.5,107.5C 437.462,112.733 441.962,118.4 446,124.5C 452.715,113.729 458.882,102.729 464.5,91.5 Z"/></g>
<g><path style="opacity:0.964" fill="#348cdf" d="M 43.5,131.5 C 56.8333,132.167 70.1667,132.833 83.5,133.5C 67.5009,137.165 53.5009,144.498 41.5,155.5C 33.8333,155.5 26.1667,155.5 18.5,155.5C 25.5405,146.126 33.8738,138.126 43.5,131.5 Z"/></g>
<g><path style="opacity:0.961" fill="#348cdf" d="M 176.5,133.5 C 191.372,132.192 206.372,132.192 221.5,133.5C 230.772,139.77 238.772,147.437 245.5,156.5C 237.981,156.175 230.648,156.508 223.5,157.5C 210.47,144.484 194.803,136.484 176.5,133.5 Z"/></g>
<g><path style="opacity:0.979" fill="#358cdf" d="M 263.5,131.5 C 274.167,131.5 284.833,131.5 295.5,131.5C 294.228,134.541 292.561,137.374 290.5,140C 294.382,145.601 298.382,151.101 302.5,156.5C 295.623,156.221 288.623,156.554 281.5,157.5C 280.609,156.89 279.609,156.557 278.5,156.5C 272.021,155.509 265.354,155.176 258.5,155.5C 261.822,150.195 265.156,144.861 268.5,139.5C 266.807,136.816 265.14,134.149 263.5,131.5 Z"/></g>
<g><path style="opacity:0.973" fill="#348cdf" d="M 322.5,130.5 C 328.167,131.167 333.833,131.833 339.5,132.5C 337.656,140.447 338.989,147.781 343.5,154.5C 337.167,155.167 330.833,155.833 324.5,156.5C 321.47,147.916 320.803,139.249 322.5,130.5 Z"/></g>
<g><path style="opacity:0.967" fill="#348cdf" d="M 385.5,131.5 C 391.5,131.5 397.5,131.5 403.5,131.5C 405.176,139.687 404.51,147.687 401.5,155.5C 394.978,155.823 388.645,155.49 382.5,154.5C 387.239,147.243 388.239,139.577 385.5,131.5 Z"/></g>
<g><path style="opacity:0.977" fill="#358cdf" d="M 461.5,132.5 C 459.977,134.867 458.644,137.367 457.5,140C 460.631,145.096 463.631,150.263 466.5,155.5C 460.355,156.49 454.022,156.823 447.5,156.5C 446.833,156.167 446.167,155.833 445.5,155.5C 438.5,155.5 431.5,155.5 424.5,155.5C 427.922,150.231 431.589,145.064 435.5,140C 433.915,137.931 432.581,135.764 431.5,133.5C 441.319,132.506 451.319,132.173 461.5,132.5 Z"/></g>
<g><path style="opacity:0.966" fill="#3b87e1" d="M 18.5,155.5 C 26.1667,155.5 33.8333,155.5 41.5,155.5C 35.0896,162.671 29.4229,170.337 24.5,178.5C 18.1667,178.5 11.8333,178.5 5.5,178.5C 9.07381,170.347 13.4071,162.68 18.5,155.5 Z"/></g>
<g><path style="opacity:0.975" fill="#3b86e1" d="M 258.5,155.5 C 265.354,155.176 272.021,155.509 278.5,156.5C 274.464,163.522 270.464,170.522 266.5,177.5C 256.833,177.5 247.167,177.5 237.5,177.5C 233.818,170.134 229.152,163.467 223.5,157.5C 230.648,156.508 237.981,156.175 245.5,156.5C 247.837,159.681 250.004,163.014 252,166.5C 254.393,162.946 256.56,159.28 258.5,155.5 Z"/></g>
<g><path style="opacity:0.969" fill="#3b86e1" d="M 302.5,156.5 C 308.804,163.808 315.138,171.141 321.5,178.5C 313.833,178.5 306.167,178.5 298.5,178.5C 292.484,171.814 286.818,164.814 281.5,157.5C 288.623,156.554 295.623,156.221 302.5,156.5 Z"/></g>
<g><path style="opacity:0.97" fill="#3b86e1" d="M 343.5,154.5 C 356.39,167.797 369.39,167.797 382.5,154.5C 388.645,155.49 394.978,155.823 401.5,155.5C 391.108,177.027 374.108,185.194 350.5,180C 338.168,176.165 329.501,168.332 324.5,156.5C 330.833,155.833 337.167,155.167 343.5,154.5 Z"/></g>
<g><path style="opacity:0.967" fill="#3b86e1" d="M 424.5,155.5 C 431.5,155.5 438.5,155.5 445.5,155.5C 440.568,163.429 434.901,170.762 428.5,177.5C 420.981,177.825 413.648,177.492 406.5,176.5C 412.273,169.274 418.273,162.274 424.5,155.5 Z"/></g>
<g><path style="opacity:0.969" fill="#3b86e1" d="M 466.5,155.5 C 471.261,162.686 475.261,170.353 478.5,178.5C 472.167,178.5 465.833,178.5 459.5,178.5C 455.488,171.14 451.488,163.806 447.5,156.5C 454.022,156.823 460.355,156.49 466.5,155.5 Z"/></g>
<g><path style="opacity:0.949" fill="#3c86e2" d="M 113.5,178.5 C 105.833,178.5 98.1667,178.5 90.5,178.5C 87.5836,176.18 85.2503,173.346 83.5,170C 87.3704,166.047 91.7037,162.547 96.5,159.5C 102.531,165.53 108.198,171.863 113.5,178.5 Z"/></g>
<g><path style="opacity:0.963" fill="#4180e3" d="M 5.5,178.5 C 11.8333,178.5 18.1667,178.5 24.5,178.5C 22.1001,184.7 20.1001,191.033 18.5,197.5C 12.5907,198.455 6.59074,198.789 0.5,198.5C 1.54046,191.671 3.20713,185.005 5.5,178.5 Z"/></g>
<g><path style="opacity:0.949" fill="#4281e3" d="M 90.5,178.5 C 98.1667,178.5 105.833,178.5 113.5,178.5C 121.85,185.334 130.517,191.668 139.5,197.5C 115.167,198.833 90.8333,198.833 66.5,197.5C 80.504,197.667 94.504,197.5 108.5,197C 101.626,191.627 95.6259,185.46 90.5,178.5 Z"/></g>
<g><path style="opacity:0.964" fill="#4182e3" d="M 237.5,177.5 C 247.167,177.5 256.833,177.5 266.5,177.5C 261.829,183.867 260.495,190.867 262.5,198.5C 256.833,198.5 251.167,198.5 245.5,198.5C 243.645,191.281 240.979,184.281 237.5,177.5 Z"/></g>
<g><path style="opacity:0.951" fill="#4181e3" d="M 298.5,178.5 C 306.167,178.5 313.833,178.5 321.5,178.5C 327.806,185.14 334.139,191.807 340.5,198.5C 332.648,198.175 324.982,198.508 317.5,199.5C 310.475,193.108 304.141,186.108 298.5,178.5 Z"/></g>
<g><path style="opacity:0.963" fill="#4182e3" d="M 406.5,176.5 C 413.648,177.492 420.981,177.825 428.5,177.5C 422.174,185.158 415.508,192.492 408.5,199.5C 400.833,198.833 393.167,198.167 385.5,197.5C 392.86,190.806 399.86,183.806 406.5,176.5 Z"/></g>
<g><path style="opacity:0.964" fill="#4181e3" d="M 459.5,178.5 C 465.833,178.5 472.167,178.5 478.5,178.5C 482.287,185.084 485.287,192.084 487.5,199.5C 481.167,198.833 474.833,198.167 468.5,197.5C 465.693,191.081 462.693,184.748 459.5,178.5 Z"/></g>
<g><path style="opacity:0.961" fill="#4280e3" d="M 229.5,197.5 C 223.021,198.491 216.354,198.824 209.5,198.5C 205.5,198.5 201.5,198.5 197.5,198.5C 197.5,192.5 197.5,186.5 197.5,180.5C 209.476,178.612 219.309,182.279 227,191.5C 228.122,193.407 228.955,195.407 229.5,197.5 Z"/></g>
<g><path style="opacity:0.968" fill="#477be5" d="M 66.5,197.5 C 90.8333,198.833 115.167,198.833 139.5,197.5C 161.043,209.136 184.043,214.302 208.5,213C 214.795,208.663 215.128,203.829 209.5,198.5C 216.354,198.824 223.021,198.491 229.5,197.5C 231.145,202.234 231.811,207.234 231.5,212.5C 230.532,214.607 230.198,216.941 230.5,219.5C 202.5,219.5 174.5,219.5 146.5,219.5C 142.638,218.572 138.971,217.072 135.5,215C 113.833,214.333 92.1667,214.333 70.5,215C 66.1822,215.826 62.1822,217.326 58.5,219.5C 51.3134,219.825 44.3134,219.491 37.5,218.5C 44.0414,207.306 53.7081,200.306 66.5,197.5 Z"/></g>
<g><path style="opacity:0.963" fill="#477be5" d="M 385.5,197.5 C 393.167,198.167 400.833,198.833 408.5,199.5C 402.132,206.869 395.132,213.536 387.5,219.5C 371.325,219.17 355.325,219.504 339.5,220.5C 331.534,214.202 324.201,207.202 317.5,199.5C 324.982,198.508 332.648,198.175 340.5,198.5C 347.834,204.998 355.334,211.332 363,217.5C 370.966,211.368 378.466,204.701 385.5,197.5 Z"/></g>
<g><path style="opacity:0.972" fill="#477be5" d="M 18.5,197.5 C 16.9689,204.733 16.3023,212.067 16.5,219.5C 10.8333,219.5 5.16667,219.5 -0.5,219.5C -0.5,213.167 -0.5,206.833 -0.5,200.5C 0.338246,200.158 0.67158,199.492 0.5,198.5C 6.59074,198.789 12.5907,198.455 18.5,197.5 Z"/></g>
<g><path style="opacity:0.963" fill="#477be5" d="M 245.5,198.5 C 251.167,198.5 256.833,198.5 262.5,198.5C 263.736,204.057 264.403,209.723 264.5,215.5C 263.566,216.568 263.232,217.901 263.5,219.5C 258.167,219.5 252.833,219.5 247.5,219.5C 247.768,217.901 247.434,216.568 246.5,215.5C 246.468,209.811 246.134,204.145 245.5,198.5 Z"/></g>
<g><path style="opacity:0.961" fill="#477be5" d="M 468.5,197.5 C 474.833,198.167 481.167,198.833 487.5,199.5C 490.115,205.955 492.115,212.622 493.5,219.5C 487.409,219.211 481.409,219.545 475.5,220.5C 473.77,212.643 471.436,204.976 468.5,197.5 Z"/></g>
<g><path style="opacity:0.966" fill="#4c77e6" d="M 231.5,212.5 C 231.5,220.833 231.5,229.167 231.5,237.5C 225.5,238.167 219.5,238.833 213.5,239.5C 213.5,236.5 213.5,233.5 213.5,230.5C 190.13,232.549 167.797,228.883 146.5,219.5C 174.5,219.5 202.5,219.5 230.5,219.5C 230.198,216.941 230.532,214.607 231.5,212.5 Z"/></g>
<g><path style="opacity:0.977" fill="#4d75e6" d="M 387.5,219.5 C 384.433,222.882 381.099,226.048 377.5,229C 382.015,232.03 386.349,235.197 390.5,238.5C 372.326,238.83 354.326,238.497 336.5,237.5C 340.32,234.53 344.32,231.696 348.5,229C 345.043,226.613 342.043,223.78 339.5,220.5C 355.325,219.504 371.325,219.17 387.5,219.5 Z"/></g>
<g><path style="opacity:0.965" fill="#4e75e7" d="M 493.5,219.5 C 495.05,227.749 495.717,236.082 495.5,244.5C 489.591,243.545 483.591,243.211 477.5,243.5C 477.868,235.715 477.202,228.049 475.5,220.5C 481.409,219.545 487.409,219.211 493.5,219.5 Z"/></g>
<g><path style="opacity:0.986" fill="#5073e7" d="M 37.5,218.5 C 44.3134,219.491 51.3134,219.825 58.5,219.5C 50.0791,229.218 47.0791,240.551 49.5,253.5C 35.1667,253.5 20.8333,253.5 6.5,253.5C 3.51905,245.24 1.18572,236.907 -0.5,228.5C -0.5,225.5 -0.5,222.5 -0.5,219.5C 5.16667,219.5 10.8333,219.5 16.5,219.5C 17.3314,228.824 19.4981,237.824 23,246.5C 26.0951,247.395 29.2617,247.395 32.5,246.5C 31.2862,236.486 32.9528,227.153 37.5,218.5 Z"/></g>
<g><path style="opacity:0.968" fill="#5173e7" d="M 246.5,215.5 C 247.434,216.568 247.768,217.901 247.5,219.5C 252.833,219.5 258.167,219.5 263.5,219.5C 263.232,217.901 263.566,216.568 264.5,215.5C 264.894,228.68 262.894,241.346 258.5,253.5C 243.833,253.5 229.167,253.5 214.5,253.5C 214.768,255.099 214.434,256.432 213.5,257.5C 213.5,251.5 213.5,245.5 213.5,239.5C 219.5,238.833 225.5,238.167 231.5,237.5C 231.5,240.5 231.5,243.5 231.5,246.5C 235.167,247.167 238.833,247.833 242.5,248.5C 245.681,237.742 247.014,226.742 246.5,215.5 Z"/></g>
<g><path style="opacity:0.963" fill="#5371e8" d="M 336.5,237.5 C 354.326,238.497 372.326,238.83 390.5,238.5C 404.188,247.51 418.855,254.677 434.5,260C 440.413,261.677 446.413,262.844 452.5,263.5C 435.833,264.167 419.167,264.833 402.5,265.5C 388.601,258.302 375.435,249.969 363,240.5C 356.286,245.388 349.453,250.054 342.5,254.5C 331.248,253.523 319.914,253.189 308.5,253.5C 318.124,248.688 327.457,243.354 336.5,237.5 Z"/></g>
<g><path style="opacity:0.978" fill="#576ee9" d="M 168.5,246.5 C 191.543,246.34 204.209,257.674 206.5,280.5C 200.5,280.5 194.5,280.5 188.5,280.5C 187.938,270.771 182.771,265.437 173,264.5C 163.569,265.094 158.069,270.094 156.5,279.5C 150.872,280.495 145.206,280.829 139.5,280.5C 140.573,261.765 150.239,250.432 168.5,246.5 Z"/></g>
<g><path style="opacity:0.961" fill="#556fe9" d="M 477.5,243.5 C 483.591,243.211 489.591,243.545 495.5,244.5C 494.364,251.573 492.031,258.24 488.5,264.5C 477.654,264.828 466.987,264.494 456.5,263.5C 468.733,262.266 475.733,255.599 477.5,243.5 Z"/></g>
<g><path style="opacity:0.98" fill="#586de9" d="M 6.5,253.5 C 20.8333,253.5 35.1667,253.5 49.5,253.5C 49.5,262.833 49.5,272.167 49.5,281.5C 48.596,282.209 48.2627,283.209 48.5,284.5C 43.1667,284.5 37.8333,284.5 32.5,284.5C 32.5,277.833 32.5,271.167 32.5,264.5C 21.4288,265.91 16.0955,272.244 16.5,283.5C 10.9252,284.452 5.25858,284.786 -0.5,284.5C -0.5,280.167 -0.5,275.833 -0.5,271.5C 1.58492,266.177 4.58492,261.343 8.5,257C 7.69499,255.887 7.02832,254.721 6.5,253.5 Z"/></g>
<g><path style="opacity:0.983" fill="#576ee9" d="M 86.5,246.5 C 109.135,246.806 121.468,258.14 123.5,280.5C 117.833,280.5 112.167,280.5 106.5,280.5C 103.555,266.027 95.2213,261.527 81.5,267C 76.9039,270.36 74.5705,274.86 74.5,280.5C 68.5,280.5 62.5,280.5 56.5,280.5C 58.4324,261.908 68.4324,250.575 86.5,246.5 Z"/></g>
<g><path style="opacity:0.978" fill="#596bea" d="M 452.5,263.5 C 453.833,263.5 455.167,263.5 456.5,263.5C 466.987,264.494 477.654,264.828 488.5,264.5C 479.759,276.034 468.092,281.368 453.5,280.5C 435.368,279.345 418.368,274.345 402.5,265.5C 419.167,264.833 435.833,264.167 452.5,263.5 Z"/></g>
<g><path style="opacity:0.986" fill="#586cea" d="M 258.5,253.5 C 257.637,255.895 257.637,258.229 258.5,260.5C 268.065,264.201 277.732,264.368 287.5,261C 294.637,258.788 301.637,256.288 308.5,253.5C 319.914,253.189 331.248,253.523 342.5,254.5C 324.089,267.366 303.756,275.866 281.5,280C 275.843,280.499 270.176,280.666 264.5,280.5C 264.768,282.099 264.434,283.432 263.5,284.5C 257.833,284.5 252.167,284.5 246.5,284.5C 247.538,273.215 242.538,266.548 231.5,264.5C 231.5,272.5 231.5,280.5 231.5,288.5C 230.566,287.432 230.232,286.099 230.5,284.5C 225.167,284.5 219.833,284.5 214.5,284.5C 214.768,286.099 214.434,287.432 213.5,288.5C 213.5,278.167 213.5,267.833 213.5,257.5C 214.434,256.432 214.768,255.099 214.5,253.5C 229.167,253.5 243.833,253.5 258.5,253.5 Z"/></g>
<g><path style="opacity:0.975" fill="#6065ec" d="M 49.5,281.5 C 49.3129,290.861 49.6462,300.195 50.5,309.5C 44.5736,308.21 38.407,307.543 32,307.5C 25.9902,307.501 20.1568,307.834 14.5,308.5C 7.19709,303.534 2.19709,296.868 -0.5,288.5C -0.5,287.167 -0.5,285.833 -0.5,284.5C 5.25858,284.786 10.9252,284.452 16.5,283.5C 19.0225,291.117 24.3558,295.451 32.5,296.5C 32.5,292.5 32.5,288.5 32.5,284.5C 37.8333,284.5 43.1667,284.5 48.5,284.5C 48.2627,283.209 48.596,282.209 49.5,281.5 Z"/></g>
<g><path style="opacity:0.966" fill="#6065ec" d="M 231.5,288.5 C 231.187,291.247 231.52,293.914 232.5,296.5C 239.404,294.917 244.071,290.917 246.5,284.5C 252.167,284.5 257.833,284.5 263.5,284.5C 262.542,295.094 257.542,303.094 248.5,308.5C 236.678,307.505 224.678,307.172 212.5,307.5C 213.458,301.256 213.791,294.923 213.5,288.5C 214.434,287.432 214.768,286.099 214.5,284.5C 219.833,284.5 225.167,284.5 230.5,284.5C 230.232,286.099 230.566,287.432 231.5,288.5 Z"/></g>
<g><path style="opacity:0.965" fill="#6264ed" d="M 172.5,310.5 C 172.5,309.5 172.5,308.5 172.5,307.5C 144.833,307.5 117.167,307.5 89.5,307.5C 89.5,303.833 89.5,300.167 89.5,296.5C 117.5,296.5 145.5,296.5 173.5,296.5C 173.819,301.363 173.486,306.03 172.5,310.5 Z"/></g>
<g><path style="opacity:0.968" fill="#6660ee" d="M 14.5,308.5 C 20.1568,307.834 25.9902,307.501 32,307.5C 38.407,307.543 44.5736,308.21 50.5,309.5C 52.3767,316.796 55.0434,323.796 58.5,330.5C 52.0676,329.193 45.7343,329.193 39.5,330.5C 36.8277,325.323 34.8277,319.823 33.5,314C 26.5976,313.861 20.2643,312.027 14.5,308.5 Z"/></g>
<g><path style="opacity:0.971" fill="#6660ee" d="M 89.5,307.5 C 117.167,307.5 144.833,307.5 172.5,307.5C 172.5,308.5 172.5,309.5 172.5,310.5C 172.358,317.437 170.024,323.437 165.5,328.5C 156.833,328.5 148.167,328.5 139.5,328.5C 146.257,325.411 150.924,320.411 153.5,313.5C 138.818,313.167 124.152,313.501 109.5,314.5C 112.635,321.306 117.635,325.973 124.5,328.5C 115.5,328.5 106.5,328.5 97.5,328.5C 92.8814,322.32 90.2147,315.32 89.5,307.5 Z"/></g>
<g><path style="opacity:0.969" fill="#6660ee" d="M 212.5,307.5 C 224.678,307.172 236.678,307.505 248.5,308.5C 242.848,312.378 236.514,314.045 229.5,313.5C 228.586,318.853 226.919,323.853 224.5,328.5C 218.167,328.5 211.833,328.5 205.5,328.5C 209.228,321.982 211.562,314.982 212.5,307.5 Z"/></g>
<g><path style="opacity:0.965" fill="#6363ed" d="M 511.5,296.5 C 511.5,302.167 511.5,307.833 511.5,313.5C 486.5,313.5 461.5,313.5 436.5,313.5C 436.5,307.833 436.5,302.167 436.5,296.5C 461.5,296.5 486.5,296.5 511.5,296.5 Z"/></g>
<g><path style="opacity:0.956" fill="#685fee" d="M 412.5,329.5 C 401.654,329.172 390.987,329.506 380.5,330.5C 345.167,330.5 309.833,330.5 274.5,330.5C 265.682,329.507 256.682,329.173 247.5,329.5C 253.035,321.383 260.701,316.216 270.5,314C 290.298,312.871 310.131,312.371 330,312.5C 349.869,312.371 369.702,312.871 389.5,314C 399.277,316.209 406.944,321.375 412.5,329.5 Z"/></g>
<g><path style="opacity:0.966" fill="#6c5bf0" d="M 97.5,328.5 C 106.5,328.5 115.5,328.5 124.5,328.5C 129.491,329.752 134.491,329.752 139.5,328.5C 148.167,328.5 156.833,328.5 165.5,328.5C 157.761,340.623 146.594,346.623 132,346.5C 116.983,346.911 105.483,340.911 97.5,328.5 Z"/></g>
<g><path style="opacity:0.965" fill="#6d5af0" d="M 58.5,330.5 C 61.3133,334.098 64.1467,337.765 67,341.5C 70.6919,344.365 74.1919,347.365 77.5,350.5C 69.3501,351.493 61.0168,351.826 52.5,351.5C 46.9027,345.31 42.5694,338.31 39.5,330.5C 45.7343,329.193 52.0676,329.193 58.5,330.5 Z"/></g>
<g><path style="opacity:0.958" fill="#6d5af0" d="M 205.5,328.5 C 211.833,328.5 218.167,328.5 224.5,328.5C 221.106,337.549 216.106,345.549 209.5,352.5C 201.5,351.833 193.5,351.167 185.5,350.5C 193.928,344.74 200.595,337.407 205.5,328.5 Z"/></g>
<g><path style="opacity:0.964" fill="#6d5af0" d="M 247.5,329.5 C 256.682,329.173 265.682,329.507 274.5,330.5C 263.493,334.153 257.493,341.82 256.5,353.5C 250.792,351.614 244.792,350.947 238.5,351.5C 239.094,346.702 240.26,342.035 242,337.5C 243.116,334.244 244.949,331.578 247.5,329.5 Z"/></g>
<g><path style="opacity:0.958" fill="#6d5af0" d="M 380.5,330.5 C 390.987,329.506 401.654,329.172 412.5,329.5C 417.72,335.82 420.387,343.153 420.5,351.5C 414.833,351.5 409.167,351.5 403.5,351.5C 400.594,339.26 392.928,332.26 380.5,330.5 Z"/></g>
<g><path style="opacity:0.897" fill="#6c5bf0" d="M 436.5,329.5 C 442.5,329.5 448.5,329.5 454.5,329.5C 454.5,335.167 454.5,340.833 454.5,346.5C 448.5,346.5 442.5,346.5 436.5,346.5C 436.5,340.833 436.5,335.167 436.5,329.5 Z"/></g>
<g><path style="opacity:0.957" fill="#6c5bf0" d="M 511.5,329.5 C 511.5,335.167 511.5,340.833 511.5,346.5C 497.5,346.5 483.5,346.5 469.5,346.5C 469.5,340.833 469.5,335.167 469.5,329.5C 483.5,329.5 497.5,329.5 511.5,329.5 Z"/></g>
<g><path style="opacity:0.969" fill="#7453f2" d="M 77.5,350.5 C 94.0119,360.702 112.012,364.702 131.5,362.5C 151.028,364.861 169.028,360.861 185.5,350.5C 193.5,351.167 201.5,351.833 209.5,352.5C 198.607,364.114 185.607,372.447 170.5,377.5C 141.662,377.831 112.995,377.498 84.5,376.5C 85.5981,375.603 85.5981,374.77 84.5,374C 72.0124,369 61.3457,361.5 52.5,351.5C 61.0168,351.826 69.3501,351.493 77.5,350.5 Z"/></g>
<g><path style="opacity:0.949" fill="#7256f1" d="M 388.5,374.5 C 387.596,373.791 387.263,372.791 387.5,371.5C 382.167,371.5 376.833,371.5 371.5,371.5C 371.737,372.791 371.404,373.791 370.5,374.5C 370.5,370.833 370.5,367.167 370.5,363.5C 343.5,363.5 316.5,363.5 289.5,363.5C 289.5,370.167 289.5,376.833 289.5,383.5C 289.167,383.5 288.833,383.5 288.5,383.5C 288.5,379.5 288.5,375.5 288.5,371.5C 282.833,371.5 277.167,371.5 271.5,371.5C 269.507,361.978 272.173,354.145 279.5,348C 280.5,347.667 281.5,347.333 282.5,347C 312.785,345.365 343.119,345.031 373.5,346C 381.667,347.5 386.5,352.333 388,360.5C 388.499,365.155 388.666,369.821 388.5,374.5 Z"/></g>
<g><path style="opacity:0.955" fill="#7751f3" d="M 403.5,351.5 C 409.167,351.5 414.833,351.5 420.5,351.5C 421.496,367.658 421.83,383.991 421.5,400.5C 420.527,398.052 420.194,395.385 420.5,392.5C 414.833,392.5 409.167,392.5 403.5,392.5C 403.5,378.833 403.5,365.167 403.5,351.5 Z"/></g>
<g><path style="opacity:0.987" fill="#7652f2" d="M 511.5,362.5 C 511.5,368.167 511.5,373.833 511.5,379.5C 486.5,379.5 461.5,379.5 436.5,379.5C 436.5,373.833 436.5,368.167 436.5,362.5C 461.5,362.5 486.5,362.5 511.5,362.5 Z"/></g>
<g><path style="opacity:0.975" fill="#7c4df4" d="M 84.5,376.5 C 112.995,377.498 141.662,377.831 170.5,377.5C 177.026,380.69 182.692,385.024 187.5,390.5C 179.719,392.154 171.719,393.154 163.5,393.5C 160.794,391.041 157.794,390.041 154.5,390.5C 155.154,392.115 155.654,393.782 156,395.5C 156.5,402.492 156.666,409.492 156.5,416.5C 151.167,416.5 145.833,416.5 140.5,416.5C 140.768,414.901 140.434,413.568 139.5,412.5C 141.349,393.871 133.182,382.871 115,379.5C 101.882,381.285 93.8825,388.619 91,401.5C 90.5007,406.489 90.3341,411.489 90.5,416.5C 84.8333,416.5 79.1667,416.5 73.5,416.5C 72.1563,404.604 73.9897,393.27 79,382.5C 80.331,380.004 82.1644,378.004 84.5,376.5 Z"/></g>
<g><path style="opacity:1" fill="#7751f3" d="M 238.5,351.5 C 244.792,350.947 250.792,351.614 256.5,353.5C 255.52,366.421 255.186,379.421 255.5,392.5C 250.167,392.5 244.833,392.5 239.5,392.5C 239.737,391.209 239.404,390.209 238.5,389.5C 238.5,376.833 238.5,364.167 238.5,351.5 Z"/></g>
<g><path style="opacity:0.97" fill="#7e4bf5" d="M 271.5,371.5 C 277.167,371.5 282.833,371.5 288.5,371.5C 288.5,375.5 288.5,379.5 288.5,383.5C 288.5,394.5 288.5,405.5 288.5,416.5C 283.167,416.5 277.833,416.5 272.5,416.5C 272.768,414.901 272.434,413.568 271.5,412.5C 271.5,398.833 271.5,385.167 271.5,371.5 Z"/></g>
<g><path style="opacity:0.98" fill="#804af5" d="M 511.5,395.5 C 511.5,401.167 511.5,406.833 511.5,412.5C 486.5,412.5 461.5,412.5 436.5,412.5C 436.5,406.833 436.5,401.167 436.5,395.5C 461.5,395.5 486.5,395.5 511.5,395.5 Z"/></g>
<g><path style="opacity:0.889" fill="#7e4bf5" d="M 388.5,374.5 C 388.5,392.5 388.5,410.5 388.5,428.5C 387.517,424.702 387.183,420.702 387.5,416.5C 381.741,416.214 376.075,416.548 370.5,417.5C 370.5,403.167 370.5,388.833 370.5,374.5C 371.404,373.791 371.737,372.791 371.5,371.5C 376.833,371.5 382.167,371.5 387.5,371.5C 387.263,372.791 387.596,373.791 388.5,374.5 Z"/></g>
<g><path style="opacity:0.968" fill="#8545f7" d="M 238.5,389.5 C 239.404,390.209 239.737,391.209 239.5,392.5C 244.833,392.5 250.167,392.5 255.5,392.5C 255.333,404.838 255.5,417.171 256,429.5C 259.631,431.311 262.798,433.644 265.5,436.5C 223.167,437.833 180.833,437.833 138.5,436.5C 139.437,428.555 139.77,420.555 139.5,412.5C 140.434,413.568 140.768,414.901 140.5,416.5C 145.833,416.5 151.167,416.5 156.5,416.5C 156.5,420.5 156.5,424.5 156.5,428.5C 166.833,428.5 177.167,428.5 187.5,428.5C 185.022,413.026 177.022,401.359 163.5,393.5C 171.719,393.154 179.719,392.154 187.5,390.5C 197.762,401.028 203.762,413.695 205.5,428.5C 216.5,428.5 227.5,428.5 238.5,428.5C 238.5,415.5 238.5,402.5 238.5,389.5 Z"/></g>
<g><path style="opacity:0.895" fill="#8446f7" d="M 403.5,392.5 C 409.167,392.5 414.833,392.5 420.5,392.5C 420.194,395.385 420.527,398.052 421.5,400.5C 421.5,413.167 421.5,425.833 421.5,438.5C 415.925,437.548 410.259,437.214 404.5,437.5C 404.737,438.791 404.404,439.791 403.5,440.5C 403.5,424.5 403.5,408.5 403.5,392.5 Z"/></g>
<g><path style="opacity:0.961" fill="#8842f8" d="M 288.5,383.5 C 288.833,383.5 289.167,383.5 289.5,383.5C 289.5,398.5 289.5,413.5 289.5,428.5C 316.5,428.5 343.5,428.5 370.5,428.5C 370.5,424.833 370.5,421.167 370.5,417.5C 376.075,416.548 381.741,416.214 387.5,416.5C 387.183,420.702 387.517,424.702 388.5,428.5C 387.775,436.472 383.775,441.972 376.5,445C 345.167,445.667 313.833,445.667 282.5,445C 278.388,443.221 275.222,440.388 273,436.5C 271.599,428.585 271.099,420.585 271.5,412.5C 272.434,413.568 272.768,414.901 272.5,416.5C 277.833,416.5 283.167,416.5 288.5,416.5C 288.5,405.5 288.5,394.5 288.5,383.5 Z"/></g>
<g><path style="opacity:0.987" fill="#8c3ff9" d="M 138.5,436.5 C 180.833,437.833 223.167,437.833 265.5,436.5C 271.366,442.934 273.699,450.601 272.5,459.5C 267.13,457.621 261.463,456.955 255.5,457.5C 255.881,451.397 253.214,447.564 247.5,446C 238.833,445.333 230.167,445.333 221.5,446C 222.444,448.719 222.777,451.552 222.5,454.5C 221.596,455.209 221.263,456.209 221.5,457.5C 216.5,457.5 211.5,457.5 206.5,457.5C 206.768,459.099 206.434,460.432 205.5,461.5C 205.665,458.15 205.498,454.817 205,451.5C 203.74,448.572 201.573,446.739 198.5,446C 183.156,445.167 167.822,445.334 152.5,446.5C 148.333,452.833 144.167,459.167 140,465.5C 138.951,466.517 137.784,466.684 136.5,466C 132.198,463.359 128.198,460.359 124.5,457C 128.624,449.725 133.291,442.891 138.5,436.5 Z"/></g>
<g><path style="opacity:0.968" fill="#8b40f9" d="M 73.5,416.5 C 79.1667,416.5 84.8333,416.5 90.5,416.5C 90.2013,430.549 90.5346,444.549 91.5,458.5C 85.5907,457.545 79.5907,457.211 73.5,457.5C 73.5,443.833 73.5,430.167 73.5,416.5 Z"/></g>
<g><path style="opacity:0.971" fill="#923afb" d="M 421.5,438.5 C 421.5,446.167 421.5,453.833 421.5,461.5C 431.636,462.636 436.969,468.303 437.5,478.5C 431.833,478.5 426.167,478.5 420.5,478.5C 354.5,478.5 288.5,478.5 222.5,478.5C 216.833,478.5 211.167,478.5 205.5,478.5C 205.5,472.833 205.5,467.167 205.5,461.5C 206.434,460.432 206.768,459.099 206.5,457.5C 211.5,457.5 216.5,457.5 221.5,457.5C 221.263,456.209 221.596,455.209 222.5,454.5C 222.5,456.833 222.5,459.167 222.5,461.5C 233.5,461.5 244.5,461.5 255.5,461.5C 255.5,460.167 255.5,458.833 255.5,457.5C 261.463,456.955 267.13,457.621 272.5,459.5C 315.821,461.495 359.487,462.161 403.5,461.5C 403.5,454.5 403.5,447.5 403.5,440.5C 404.404,439.791 404.737,438.791 404.5,437.5C 410.259,437.214 415.925,437.548 421.5,438.5 Z"/></g>
<g><path style="opacity:0.949" fill="#9933fd" d="M 73.5,457.5 C 79.5907,457.211 85.5907,457.545 91.5,458.5C 94.7814,477.95 106.115,489.783 125.5,494C 150.167,494.667 174.833,494.667 199.5,494C 202.333,493.167 204.167,491.333 205,488.5C 205.498,485.183 205.665,481.85 205.5,478.5C 211.167,478.5 216.833,478.5 222.5,478.5C 222.805,483.762 222.471,488.928 221.5,494C 283.5,494.667 345.5,494.667 407.5,494C 414.936,491.4 419.27,486.233 420.5,478.5C 426.167,478.5 431.833,478.5 437.5,478.5C 437.527,487.432 434.527,495.099 428.5,501.5C 318.665,501.167 208.999,501.501 99.5,502.5C 83.8891,491.623 75.2224,476.623 73.5,457.5 Z M 222.5,478.5 C 288.5,478.5 354.5,478.5 420.5,478.5C 419.27,486.233 414.936,491.4 407.5,494C 345.5,494.667 283.5,494.667 221.5,494C 222.471,488.928 222.805,483.762 222.5,478.5 Z"/></g>
<g><path style="opacity:0.993" fill="#9d30fe" d="M 99.5,502.5 C 208.999,501.501 318.665,501.167 428.5,501.5C 423.923,506.083 418.59,509.417 412.5,511.5C 315.167,511.5 217.833,511.5 120.5,511.5C 113.139,509.486 106.139,506.486 99.5,502.5 Z"/></g>
</svg>
