<svg xmlns="http://www.w3.org/2000/svg" version="1.1" xmlnsXlink="http://www.w3.org/1999/xlink" xmlnsSvgjs="http://svgjs.dev/svgjs" width="1000" height="1000" viewBox="0 0 1000 1000"><g transform="matrix(1,0,0,1,-0.7352294532574319,-0.7352294532574319)"><svg viewBox="0 0 337 337" data-background-color="#ffffff" preserveAspectRatio="xMidYMid meet" height="1000" width="1000" xmlns="http://www.w3.org/2000/svg" xmlns:xlink="http://www.w3.org/1999/xlink"><g id="tight-bounds" transform="matrix(1,0,0,1,0.24777232574774644,0.24777232574774644)"><svg viewBox="0 0 336.5044553485045 336.5044553485045" height="336.5044553485045" width="336.5044553485045"><g><svg></svg></g><g><svg viewBox="0 0 336.5044553485045 336.5044553485045" height="336.5044553485045" width="336.5044553485045"><g><path d="M0 168.252c0-92.923 75.329-168.252 168.252-168.252 92.923 0 168.252 75.329 168.252 168.252 0 92.923-75.329 168.252-168.252 168.252-92.923 0-168.252-75.329-168.252-168.252zM168.252 319.23c83.382 0 150.977-67.595 150.978-150.978 0-83.382-67.595-150.977-150.978-150.977-83.382 0-150.977 67.595-150.977 150.977 0 83.382 67.595 150.977 150.977 150.978z" data-fill-palette-color="tertiary" fill="#d6443e" stroke="transparent"></path><ellipse rx="161.52213856728216" ry="161.52213856728216" cx="168.25222767425225" cy="168.25222767425225" fill="#d6443e" stroke="transparent" stroke-width="0" fill-opacity="1" data-fill-palette-color="tertiary"></ellipse></g><g transform="matrix(1,0,0,1,63.917046906607126,72.4730070606737)"><svg viewBox="0 0 208.67036153529025 191.55844122715712" height="191.55844122715712" width="208.67036153529025"><g><svg viewBox="0 0 208.67036153529025 191.55844122715712" height="191.55844122715712" width="208.67036153529025"><g><svg viewBox="0 0 208.67036153529025 191.55844122715712" height="191.55844122715712" width="208.67036153529025"><g><svg viewBox="0 0 208.67036153529025 191.55844122715712" height="191.55844122715712" width="208.67036153529025"><g id="textblocktransform"><svg viewBox="0 0 208.67036153529025 191.55844122715712" height="191.55844122715712" width="208.67036153529025" id="textblock"><g><svg viewBox="0 0 208.67036153529025 191.55844122715712" height="191.55844122715712" width="208.67036153529025"><g transform="matrix(1,0,0,1,0,0)"><svg width="208.67036153529025" viewBox="0.6499999761581421 -40 43.89999771118164 40.29999923706055" height="191.55844122715712" data-palette-color="#ffffff"><path d="M14.25-25.4L10.1-25.4 10.1-7.2Q10.1-5.9 10.65-5.2 11.2-4.5 13-4.5L13-4.5 14.3-4.5Q16.25-4.5 16.15-2.2L16.15-2.2Q16.15 0.15 14.3 0.15L14.3 0.15 12.65 0.15Q11.05 0.15 9.65-0.28 8.25-0.7 6.95-1.5L6.95-1.5 6.95-1.45Q4.5-3.05 4.5-7.15L4.5-7.15 4.5-25.4 2.55-25.4Q0.75-25.4 0.65-27.75L0.65-27.75Q0.65-30.1 2.55-30.1L2.55-30.1 4.5-30.1 4.5-35.45Q4.5-37.85 7.35-37.85L7.35-37.85Q10.1-37.85 10.1-35.45L10.1-35.45 10.1-30.1 14.25-30.1Q16.2-30.1 16.1-27.75L16.1-27.75Q16.1-25.4 14.25-25.4L14.25-25.4ZM26-25.4L26-2.1Q26 0.3 23.25 0.3L23.25 0.3Q20.5 0.3 20.5-2.1L20.5-2.1 20.5-37.6Q20.5-40 23.25-40L23.25-40Q26-40 26-37.6L26-37.6 26-30.1 36.55-30.1Q39.1-30.1 41.85-28.2L41.85-28.2Q44.55-26.3 44.55-22.2L44.55-22.2 44.55-2.1Q44.55 0.3 41.8 0.3L41.8 0.3Q39.05 0.3 39.05-2.1L39.05-2.1 39.05-21.75Q39.05-23.05 38.25-24.25L38.25-24.25 38.3-24.2Q37.65-25.4 35.65-25.4L35.65-25.4 26-25.4Z" opacity="1" transform="matrix(1,0,0,1,0,0)" fill="#ffffff" class="undefined-text-0" data-fill-palette-color="quaternary" id="text-0"></path></svg></g></svg></g></svg></g></svg></g><g></g></svg></g></svg></g></svg></g></svg></g><defs></defs></svg><rect width="336.5044553485045" height="336.5044553485045" fill="none" stroke="none" visibility="hidden"></rect></g></svg></g></svg>