<?xml version="1.0" encoding="UTF-8"?>
<!DOCTYPE svg PUBLIC "-//W3C//DTD SVG 1.1//EN" "http://www.w3.org/Graphics/SVG/1.1/DTD/svg11.dtd">
<svg xmlns="http://www.w3.org/2000/svg" version="1.1" width="512px" height="512px" style="shape-rendering:geometricPrecision; text-rendering:geometricPrecision; image-rendering:optimizeQuality; fill-rule:evenodd; clip-rule:evenodd" xmlns:xlink="http://www.w3.org/1999/xlink">
<g><path style="opacity:0.993" fill="#0cafd3" d="M 500.5,18.5 C 459.904,17.5034 419.571,17.17 379.5,17.5C 382.55,12.6222 386.883,9.45554 392.5,8C 423.833,7.33333 455.167,7.33333 486.5,8C 492.461,9.79625 497.127,13.2963 500.5,18.5 Z"/></g>
<g><path style="opacity:0.989" fill="#0eaed4" d="M 63.5,24.5 C 52.1667,24.5 40.8333,24.5 29.5,24.5C 27.3093,23.7093 25.3093,23.7093 23.5,24.5C 18.1667,24.5 12.8333,24.5 7.5,24.5C 7.56997,12.9303 13.4033,7.26363 25,7.5C 39.6404,9.24027 52.4737,14.9069 63.5,24.5 Z"/></g>
<g><path style="opacity:0.984" fill="#0fadd4" d="M 150.5,32.5 C 144.833,32.5 139.167,32.5 133.5,32.5C 133.851,29.7623 134.518,27.0956 135.5,24.5C 135.167,24.1667 134.833,23.8333 134.5,23.5C 132.199,24.3249 129.865,24.9916 127.5,25.5C 117.167,24.8333 106.833,24.1667 96.5,23.5C 105.434,16.5313 115.434,11.3646 126.5,8C 146.31,4.97349 154.31,13.1402 150.5,32.5 Z"/></g>
<g><path style="opacity:0.994" fill="#10acd4" d="M 379.5,17.5 C 419.571,17.17 459.904,17.5034 500.5,18.5C 503.218,25.1728 504.218,32.1728 503.5,39.5C 498.167,39.5 492.833,39.5 487.5,39.5C 487.737,35.7267 487.237,32.0601 486,28.5C 485.5,26.6667 484.333,25.5 482.5,25C 468.232,23.8582 453.899,23.3582 439.5,23.5C 425.636,23.5126 411.802,23.846 398,24.5C 395.541,24.8902 393.874,26.2235 393,28.5C 391.763,32.0601 391.263,35.7267 391.5,39.5C 386.167,39.5 380.833,39.5 375.5,39.5C 375.334,34.4889 375.501,29.4889 376,24.5C 376.67,21.8261 377.837,19.4927 379.5,17.5 Z"/></g>
<g><path style="opacity:0.972" fill="#12aad5" d="M 96.5,23.5 C 106.833,24.1667 117.167,24.8333 127.5,25.5C 118.682,29.4064 110.348,34.0731 102.5,39.5C 87.324,39.1706 72.324,39.5039 57.5,40.5C 48.7184,34.1119 39.3851,28.7786 29.5,24.5C 40.8333,24.5 52.1667,24.5 63.5,24.5C 69.1232,27.6529 74.4565,31.3196 79.5,35.5C 85.0204,31.2445 90.6871,27.2445 96.5,23.5 Z"/></g>
<g><path style="opacity:0.959" fill="#16a7d6" d="M 7.5,24.5 C 12.8333,24.5 18.1667,24.5 23.5,24.5C 27.983,38.6265 34.983,51.2932 44.5,62.5C 37.1919,62.4358 30.1919,62.4358 23.5,62.5C 14.3382,51.5025 9.0049,38.8358 7.5,24.5 Z"/></g>
<g><path style="opacity:0.974" fill="#17a7d7" d="M 133.5,32.5 C 139.167,32.5 144.833,32.5 150.5,32.5C 147.51,44.1484 142.177,54.4817 134.5,63.5C 128.021,62.5093 121.354,62.176 114.5,62.5C 121.847,53.1396 128.18,43.1396 133.5,32.5 Z"/></g>
<g><path style="opacity:0.972" fill="#19a4d7" d="M 57.5,40.5 C 72.324,39.5039 87.324,39.1706 102.5,39.5C 99.5198,42.1444 96.5198,44.811 93.5,47.5C 97.8551,52.1869 102.188,56.8536 106.5,61.5C 99.3524,62.4916 92.0191,62.825 84.5,62.5C 83.0892,61.0924 81.4225,60.0924 79.5,59.5C 77.2345,60.4316 75.2345,61.7649 73.5,63.5C 66.5,62.8333 59.5,62.1667 52.5,61.5C 56.8115,56.8536 61.1449,52.1869 65.5,47.5C 63.2169,44.6974 60.5503,42.3641 57.5,40.5 Z"/></g>
<g><path style="opacity:1" fill="#19a4d7" d="M 375.5,39.5 C 380.833,39.5 386.167,39.5 391.5,39.5C 391.5,44.8333 391.5,50.1667 391.5,55.5C 423.5,55.5 455.5,55.5 487.5,55.5C 487.5,50.1667 487.5,44.8333 487.5,39.5C 492.833,39.5 498.167,39.5 503.5,39.5C 503.5,47.1667 503.5,54.8333 503.5,62.5C 460.833,62.5 418.167,62.5 375.5,62.5C 375.5,54.8333 375.5,47.1667 375.5,39.5 Z"/></g>
<g><path style="opacity:0.963" fill="#1da1d8" d="M 44.5,62.5 C 45.1451,63.8118 46.1451,64.8118 47.5,65.5C 49.1856,64.1431 50.8523,62.8098 52.5,61.5C 59.5,62.1667 66.5,62.8333 73.5,63.5C 69.5,68.1667 65.1667,72.5 60.5,76.5C 51.7489,76.1968 43.0823,76.5301 34.5,77.5C 30.4788,72.8045 26.8122,67.8045 23.5,62.5C 30.1919,62.4358 37.1919,62.4358 44.5,62.5 Z"/></g>
<g><path style="opacity:0.966" fill="#1ea0d8" d="M 106.5,61.5 C 108.148,62.8098 109.814,64.1431 111.5,65.5C 112.855,64.8118 113.855,63.8118 114.5,62.5C 121.354,62.176 128.021,62.5093 134.5,63.5C 131.347,69.1232 127.68,74.4565 123.5,79.5C 124.844,81.5286 126.177,83.5286 127.5,85.5C 116.833,85.5 106.167,85.5 95.5,85.5C 96.4577,84.0384 97.6244,82.7051 99,81.5C 99.6667,80.1667 99.6667,78.8333 99,77.5C 93.9635,72.6313 89.1302,67.6313 84.5,62.5C 92.0191,62.825 99.3524,62.4916 106.5,61.5 Z"/></g>
<g><path style="opacity:1" fill="#1da1d8" d="M 375.5,62.5 C 418.167,62.5 460.833,62.5 503.5,62.5C 503.5,67.1667 503.5,71.8333 503.5,76.5C 498.167,76.5 492.833,76.5 487.5,76.5C 487.5,74.8333 487.5,73.1667 487.5,71.5C 455.5,71.5 423.5,71.5 391.5,71.5C 391.5,73.1667 391.5,74.8333 391.5,76.5C 386.167,76.5 380.833,76.5 375.5,76.5C 375.5,71.8333 375.5,67.1667 375.5,62.5 Z"/></g>
<g><path style="opacity:0.975" fill="#219ed9" d="M 75.5,71.5 C 86.8598,70.71 90.1931,75.5434 85.5,86C 74.9641,89.997 70.4641,86.497 72,75.5C 72.6897,73.6498 73.8564,72.3164 75.5,71.5 Z"/></g>
<g><path style="opacity:0.98" fill="#249ada" d="M 60.5,76.5 C 59.5269,78.0683 59.3603,79.735 60,81.5C 64.7033,86.0355 69.2033,90.7021 73.5,95.5C 66.3524,96.4916 59.0191,96.825 51.5,96.5C 50.1021,94.8912 48.4354,94.0579 46.5,94C 41.1986,100.126 36.5319,106.626 32.5,113.5C 26.2657,112.193 19.9324,112.193 13.5,113.5C 19.2369,101.591 26.4036,90.591 35,80.5C 35.4696,79.4232 35.3029,78.4232 34.5,77.5C 43.0823,76.5301 51.7489,76.1968 60.5,76.5 Z"/></g>
<g><path style="opacity:0.984" fill="#249bda" d="M 95.5,85.5 C 106.167,85.5 116.833,85.5 127.5,85.5C 130.888,88.5971 133.555,92.2637 135.5,96.5C 128.745,96.2066 122.078,96.5399 115.5,97.5C 114.549,95.882 113.216,94.5487 111.5,93.5C 110.148,94.5244 108.815,95.5244 107.5,96.5C 99.9809,96.825 92.6476,96.4916 85.5,95.5C 88.5,91.8333 91.8333,88.5 95.5,85.5 Z"/></g>
<g><path style="opacity:1" fill="#239bda" d="M 167.5,79.5 C 172.833,79.5 178.167,79.5 183.5,79.5C 183.5,84.8333 183.5,90.1667 183.5,95.5C 178.167,95.5 172.833,95.5 167.5,95.5C 167.5,90.1667 167.5,84.8333 167.5,79.5 Z"/></g>
<g><path style="opacity:1" fill="#239bda" d="M 199.5,79.5 C 204.833,79.5 210.167,79.5 215.5,79.5C 215.5,84.8333 215.5,90.1667 215.5,95.5C 210.167,95.5 204.833,95.5 199.5,95.5C 199.5,90.1667 199.5,84.8333 199.5,79.5 Z"/></g>
<g><path style="opacity:1" fill="#239bda" d="M 231.5,79.5 C 274.167,79.5 316.833,79.5 359.5,79.5C 359.5,84.8333 359.5,90.1667 359.5,95.5C 316.833,95.5 274.167,95.5 231.5,95.5C 231.5,90.1667 231.5,84.8333 231.5,79.5 Z"/></g>
<g><path style="opacity:1" fill="#229cda" d="M 375.5,76.5 C 380.833,76.5 386.167,76.5 391.5,76.5C 391.5,83.1667 391.5,89.8333 391.5,96.5C 386.167,96.5 380.833,96.5 375.5,96.5C 375.5,89.8333 375.5,83.1667 375.5,76.5 Z"/></g>
<g><path style="opacity:1" fill="#229cda" d="M 487.5,76.5 C 492.833,76.5 498.167,76.5 503.5,76.5C 503.5,83.1667 503.5,89.8333 503.5,96.5C 498.167,96.5 492.833,96.5 487.5,96.5C 487.5,89.8333 487.5,83.1667 487.5,76.5 Z"/></g>
<g><path style="opacity:0.969" fill="#2897db" d="M 73.5,95.5 C 75.2345,97.2351 77.2345,98.5684 79.5,99.5C 81.7655,98.5684 83.7655,97.2351 85.5,95.5C 92.6476,96.4916 99.9809,96.825 107.5,96.5C 103.203,101.298 98.7033,105.965 94,110.5C 94.1116,112.797 95.2783,114.464 97.5,115.5C 91.5777,116.146 85.5777,116.48 79.5,116.5C 73.4585,116.496 67.7918,115.829 62.5,114.5C 64.4459,113.746 65.2793,112.412 65,110.5C 60.2967,105.965 55.7967,101.298 51.5,96.5C 59.0191,96.825 66.3524,96.4916 73.5,95.5 Z"/></g>
<g><path style="opacity:0.961" fill="#2897db" d="M 135.5,96.5 C 139.988,102.799 143.988,109.466 147.5,116.5C 141.31,116.177 135.31,116.51 129.5,117.5C 124.846,110.871 120.179,104.204 115.5,97.5C 122.078,96.5399 128.745,96.2066 135.5,96.5 Z"/></g>
<g><path style="opacity:1" fill="#2996db" d="M 375.5,96.5 C 380.833,96.5 386.167,96.5 391.5,96.5C 391.5,98.8333 391.5,101.167 391.5,103.5C 423.5,103.5 455.5,103.5 487.5,103.5C 487.5,101.167 487.5,98.8333 487.5,96.5C 492.833,96.5 498.167,96.5 503.5,96.5C 503.5,103.167 503.5,109.833 503.5,116.5C 460.833,116.5 418.167,116.5 375.5,116.5C 375.5,109.833 375.5,103.167 375.5,96.5 Z"/></g>
<g><path style="opacity:0.966" fill="#2e92dd" d="M 62.5,114.5 C 67.7918,115.829 73.4585,116.496 79.5,116.5C 85.5777,116.48 91.5777,116.146 97.5,115.5C 107.574,122.869 118.241,129.202 129.5,134.5C 118.679,135.495 107.679,135.828 96.5,135.5C 90.6871,131.756 85.0204,127.756 79.5,123.5C 73.4052,128.275 67.0719,132.608 60.5,136.5C 50.1667,135.833 39.8333,135.167 29.5,134.5C 41.5319,129.454 52.5319,122.787 62.5,114.5 Z"/></g>
<g><path style="opacity:0.96" fill="#2e93dd" d="M 32.5,113.5 C 28.8132,120.04 25.8132,126.873 23.5,134C 24.056,134.383 24.3893,134.883 24.5,135.5C 18.8333,135.5 13.1667,135.5 7.5,135.5C 7.29034,127.476 9.29034,120.143 13.5,113.5C 19.9324,112.193 26.2657,112.193 32.5,113.5 Z"/></g>
<g><path style="opacity:1" fill="#2d92dd" d="M 375.5,116.5 C 418.167,116.5 460.833,116.5 503.5,116.5C 503.5,123.167 503.5,129.833 503.5,136.5C 498.167,136.5 492.833,136.5 487.5,136.5C 487.5,130.833 487.5,125.167 487.5,119.5C 455.5,119.5 423.5,119.5 391.5,119.5C 391.5,125.167 391.5,130.833 391.5,136.5C 386.167,136.5 380.833,136.5 375.5,136.5C 375.5,129.833 375.5,123.167 375.5,116.5 Z"/></g>
<g><path style="opacity:0.966" fill="#338ddf" d="M 29.5,134.5 C 39.8333,135.167 50.1667,135.833 60.5,136.5C 48.2652,147.412 33.9318,152.245 17.5,151C 10.5102,148.186 7.17685,143.019 7.5,135.5C 13.1667,135.5 18.8333,135.5 24.5,135.5C 26.2161,135.371 27.8828,135.038 29.5,134.5 Z"/></g>
<g><path style="opacity:0.983" fill="#348ddf" d="M 294.5,158.5 C 287.292,159.004 280.292,158.337 273.5,156.5C 272.101,153.61 269.768,152.11 266.5,152C 257.77,151.124 249.104,151.458 240.5,153C 238.561,154.432 237.228,156.265 236.5,158.5C 229.833,158.5 223.167,158.5 216.5,158.5C 219.413,153.653 222.246,148.653 225,143.5C 228.269,140.117 232.103,137.617 236.5,136C 249.167,135.333 261.833,135.333 274.5,136C 278.897,137.617 282.731,140.117 286,143.5C 288.754,148.653 291.587,153.653 294.5,158.5 Z"/></g>
<g><path style="opacity:0.965" fill="#328ede" d="M 147.5,116.5 C 157.756,146.409 147.756,156.909 117.5,148C 110.068,144.368 103.068,140.201 96.5,135.5C 107.679,135.828 118.679,135.495 129.5,134.5C 131.144,134.286 132.644,134.62 134,135.5C 134.87,134.892 135.37,134.059 135.5,133C 133.903,127.645 131.903,122.479 129.5,117.5C 135.31,116.51 141.31,116.177 147.5,116.5 Z"/></g>
<g><path style="opacity:0.99" fill="#368bdf" d="M 375.5,136.5 C 380.833,136.5 386.167,136.5 391.5,136.5C 391.178,140.747 392.011,144.747 394,148.5C 395.648,149.717 397.481,150.55 399.5,151C 426.167,151.667 452.833,151.667 479.5,151C 481.519,150.55 483.352,149.717 485,148.5C 486.989,144.747 487.822,140.747 487.5,136.5C 492.833,136.5 498.167,136.5 503.5,136.5C 504.311,143.877 503.144,150.877 500,157.5C 499.292,158.381 498.458,159.047 497.5,159.5C 458.67,158.501 419.67,158.168 380.5,158.5C 378.254,156.351 376.754,153.684 376,150.5C 375.501,145.845 375.334,141.179 375.5,136.5 Z"/></g>
<g><path style="opacity:0.975" fill="#3a87e1" d="M 216.5,158.5 C 223.167,158.5 229.833,158.5 236.5,158.5C 231.278,172.285 221.278,178.118 206.5,176C 204.051,175.275 201.717,174.275 199.5,173C 197.167,172.333 194.833,172.333 192.5,173C 188.666,176.002 185,179.169 181.5,182.5C 174.352,181.508 167.019,181.175 159.5,181.5C 167.365,172.468 176.032,164.301 185.5,157C 191.415,155.473 197.415,155.139 203.5,156C 207.47,159.215 211.803,160.049 216.5,158.5 Z"/></g>
<g><path style="opacity:0.976" fill="#3a87e1" d="M 351.5,181.5 C 343.833,181.5 336.167,181.5 328.5,181.5C 325.333,178.502 322,175.669 318.5,173C 316.167,172.333 313.833,172.333 311.5,173C 293.21,180.354 280.544,174.854 273.5,156.5C 280.292,158.337 287.292,159.004 294.5,158.5C 299.197,160.049 303.53,159.215 307.5,156C 315.77,154.387 323.437,155.72 330.5,160C 337.703,167.035 344.703,174.202 351.5,181.5 Z"/></g>
<g><path style="opacity:0.988" fill="#3988e0" d="M 380.5,158.5 C 419.67,158.168 458.67,158.501 497.5,159.5C 494.908,163.471 491.241,165.971 486.5,167C 455.167,167.667 423.833,167.667 392.5,167C 387.237,165.875 383.237,163.042 380.5,158.5 Z"/></g>
<g><path style="opacity:1" fill="#4082e2" d="M 79.5,200.5 C 74.1667,200.5 68.8333,200.5 63.5,200.5C 63.5,189.5 63.5,178.5 63.5,167.5C 68.8333,167.5 74.1667,167.5 79.5,167.5C 79.5,178.5 79.5,189.5 79.5,200.5 Z"/></g>
<g><path style="opacity:0.963" fill="#4181e3" d="M 159.5,181.5 C 167.019,181.175 174.352,181.508 181.5,182.5C 179.205,185.297 176.705,187.964 174,190.5C 172.711,193.351 172.211,196.351 172.5,199.5C 166.731,199.929 161.064,200.929 155.5,202.5C 155.334,197.821 155.501,193.155 156,188.5C 156.653,185.861 157.82,183.527 159.5,181.5 Z"/></g>
<g><path style="opacity:0.965" fill="#4181e3" d="M 328.5,181.5 C 336.167,181.5 343.833,181.5 351.5,181.5C 355.075,187.254 356.409,193.588 355.5,200.5C 349.642,200.822 343.975,200.489 338.5,199.5C 338.789,196.351 338.289,193.351 337,190.5C 333.962,187.631 331.129,184.631 328.5,181.5 Z"/></g>
<g><path style="opacity:0.963" fill="#437fe3" d="M 309.5,207.5 C 300.833,207.5 292.167,207.5 283.5,207.5C 264.272,197.88 245.272,198.213 226.5,208.5C 218.35,207.507 210.017,207.174 201.5,207.5C 219.198,188.097 241.198,180.264 267.5,184C 284.375,186.932 298.375,194.765 309.5,207.5 Z"/></g>
<g><path style="opacity:1" fill="#4180e3" d="M 431.5,183.5 C 436.833,183.5 442.167,183.5 447.5,183.5C 447.5,188.833 447.5,194.167 447.5,199.5C 442.167,199.5 436.833,199.5 431.5,199.5C 431.5,194.167 431.5,188.833 431.5,183.5 Z"/></g>
<g><path style="opacity:1" fill="#477be5" d="M 63.5,200.5 C 68.8333,200.5 74.1667,200.5 79.5,200.5C 79.5,207.167 79.5,213.833 79.5,220.5C 74.1667,220.5 68.8333,220.5 63.5,220.5C 63.5,213.833 63.5,207.167 63.5,200.5 Z"/></g>
<g><path style="opacity:0.95" fill="#477ae5" d="M 172.5,199.5 C 176.546,205.931 177.546,212.931 175.5,220.5C 168.167,220.5 160.833,220.5 153.5,220.5C 156.943,218.96 158.943,216.293 159.5,212.5C 158.717,208.936 157.384,205.603 155.5,202.5C 161.064,200.929 166.731,199.929 172.5,199.5 Z"/></g>
<g><path style="opacity:0.953" fill="#487be5" d="M 338.5,199.5 C 343.975,200.489 349.642,200.822 355.5,200.5C 354.174,204.489 352.841,208.489 351.5,212.5C 352.057,216.293 354.057,218.96 357.5,220.5C 350.313,220.175 343.313,220.509 336.5,221.5C 334.599,216.775 334.099,211.775 335,206.5C 335.67,203.826 336.837,201.493 338.5,199.5 Z"/></g>
<g><path style="opacity:0.969" fill="#4b78e6" d="M 201.5,207.5 C 210.017,207.174 218.35,207.507 226.5,208.5C 215.205,215.802 207.205,225.802 202.5,238.5C 196.833,238.5 191.167,238.5 185.5,238.5C 187.956,226.585 193.29,216.252 201.5,207.5 Z"/></g>
<g><path style="opacity:0.958" fill="#4b78e6" d="M 283.5,207.5 C 292.167,207.5 300.833,207.5 309.5,207.5C 317.71,216.252 323.044,226.585 325.5,238.5C 319.741,238.214 314.075,238.548 308.5,239.5C 303.85,225.862 295.517,215.196 283.5,207.5 Z"/></g>
<g><path style="opacity:1" fill="#4b78e6" d="M 431.5,215.5 C 436.833,215.5 442.167,215.5 447.5,215.5C 447.5,220.833 447.5,226.167 447.5,231.5C 442.167,231.5 436.833,231.5 431.5,231.5C 431.5,226.167 431.5,220.833 431.5,215.5 Z"/></g>
<g><path style="opacity:0.962" fill="#4e75e7" d="M 357.5,220.5 C 369.443,223.45 375.443,231.116 375.5,243.5C 369.974,243.179 364.64,243.512 359.5,244.5C 358.961,241.958 357.628,239.792 355.5,238C 346.161,235.82 339.828,230.32 336.5,221.5C 343.313,220.509 350.313,220.175 357.5,220.5 Z"/></g>
<g><path style="opacity:1" fill="#4d76e6" d="M 63.5,220.5 C 68.8333,220.5 74.1667,220.5 79.5,220.5C 79.5,226.5 79.5,232.5 79.5,238.5C 74.1667,238.5 68.8333,238.5 63.5,238.5C 63.5,232.5 63.5,226.5 63.5,220.5 Z"/></g>
<g><path style="opacity:0.97" fill="#4e76e7" d="M 153.5,220.5 C 160.833,220.5 168.167,220.5 175.5,220.5C 171.599,230.064 164.599,236.064 154.5,238.5C 148.074,239.12 142.074,238.453 136.5,236.5C 138.919,227.749 144.585,222.415 153.5,220.5 Z"/></g>
<g><path style="opacity:0.966" fill="#4d76e6" d="M 292.5,238.5 C 285.5,238.5 278.5,238.5 271.5,238.5C 260.805,230.547 250.138,230.547 239.5,238.5C 232.745,238.793 226.078,238.46 219.5,237.5C 229.152,219.677 244.152,212.51 264.5,216C 277.494,218.991 286.827,226.491 292.5,238.5 Z"/></g>
<g><path style="opacity:1" fill="#5371e8" d="M 136.5,236.5 C 142.074,238.453 148.074,239.12 154.5,238.5C 153.069,240.189 152.236,242.189 152,244.5C 151.5,250.825 151.334,257.158 151.5,263.5C 146.167,263.5 140.833,263.5 135.5,263.5C 135.173,254.318 135.507,245.318 136.5,236.5 Z"/></g>
<g><path style="opacity:1" fill="#5371e8" d="M 63.5,238.5 C 68.8333,238.5 74.1667,238.5 79.5,238.5C 79.5,246.833 79.5,255.167 79.5,263.5C 74.1667,263.5 68.8333,263.5 63.5,263.5C 63.5,255.167 63.5,246.833 63.5,238.5 Z"/></g>
<g><path style="opacity:0.977" fill="#5272e8" d="M 185.5,238.5 C 191.167,238.5 196.833,238.5 202.5,238.5C 200.841,245.385 200.174,252.385 200.5,259.5C 199.539,257.735 199.205,255.735 199.5,253.5C 194.167,253.5 188.833,253.5 183.5,253.5C 183.189,248.234 183.855,243.234 185.5,238.5 Z"/></g>
<g><path style="opacity:0.96" fill="#5370e8" d="M 219.5,237.5 C 226.078,238.46 232.745,238.793 239.5,238.5C 233.366,244.909 231.032,252.576 232.5,261.5C 227.41,263.144 222.077,264.144 216.5,264.5C 215.347,258.681 215.181,252.681 216,246.5C 216.505,243.135 217.672,240.135 219.5,237.5 Z"/></g>
<g><path style="opacity:0.974" fill="#5370e8" d="M 271.5,238.5 C 278.5,238.5 285.5,238.5 292.5,238.5C 295.53,247.084 296.197,255.751 294.5,264.5C 288.923,264.144 283.59,263.144 278.5,261.5C 279.968,252.576 277.634,244.909 271.5,238.5 Z"/></g>
<g><path style="opacity:0.978" fill="#5272e8" d="M 325.5,238.5 C 327.145,243.234 327.811,248.234 327.5,253.5C 322.167,253.5 316.833,253.5 311.5,253.5C 311.768,255.099 311.434,256.432 310.5,257.5C 310.823,251.365 310.156,245.365 308.5,239.5C 314.075,238.548 319.741,238.214 325.5,238.5 Z"/></g>
<g><path style="opacity:0.963" fill="#596cea" d="M 327.5,253.5 C 328.148,263.921 326.481,273.921 322.5,283.5C 316.31,283.823 310.31,283.49 304.5,282.5C 308.225,274.598 310.225,266.264 310.5,257.5C 311.434,256.432 311.768,255.099 311.5,253.5C 316.833,253.5 322.167,253.5 327.5,253.5 Z"/></g>
<g><path style="opacity:0.963" fill="#596cea" d="M 183.5,253.5 C 188.833,253.5 194.167,253.5 199.5,253.5C 199.205,255.735 199.539,257.735 200.5,259.5C 201.096,267.551 203.096,275.217 206.5,282.5C 200.833,283.167 195.167,283.833 189.5,284.5C 184.701,274.836 182.701,264.503 183.5,253.5 Z"/></g>
<g><path style="opacity:0.968" fill="#586dea" d="M 375.5,243.5 C 375.666,253.839 375.5,264.172 375,274.5C 374.722,275.416 374.222,276.082 373.5,276.5C 365.316,276.826 357.316,276.492 349.5,275.5C 352.849,274.741 355.682,273.074 358,270.5C 359.376,261.902 359.876,253.235 359.5,244.5C 364.64,243.512 369.974,243.179 375.5,243.5 Z"/></g>
<g><path style="opacity:1" fill="#586cea" d="M 447.5,283.5 C 442.167,283.5 436.833,283.5 431.5,283.5C 431.5,271.5 431.5,259.5 431.5,247.5C 436.833,247.5 442.167,247.5 447.5,247.5C 447.5,259.5 447.5,271.5 447.5,283.5 Z"/></g>
<g><path style="opacity:0.964" fill="#5b69eb" d="M 232.5,261.5 C 239.901,277.915 251.901,282.415 268.5,275C 273.269,271.421 276.603,266.921 278.5,261.5C 283.59,263.144 288.923,264.144 294.5,264.5C 289.348,284.589 276.348,294.922 255.5,295.5C 234.652,294.922 221.652,284.589 216.5,264.5C 222.077,264.144 227.41,263.144 232.5,261.5 Z"/></g>
<g><path style="opacity:0.976" fill="#5b69eb" d="M 135.5,263.5 C 140.833,263.5 146.167,263.5 151.5,263.5C 151.838,265.854 152.338,268.187 153,270.5C 157.135,273.555 161.635,276.055 166.5,278C 168.041,279.371 169.375,280.871 170.5,282.5C 161.014,283.494 151.348,283.827 141.5,283.5C 136.128,277.962 134.128,271.296 135.5,263.5 Z"/></g>
<g><path style="opacity:0.965" fill="#5f66ec" d="M 170.5,282.5 C 175.427,288.525 177.427,295.525 176.5,303.5C 170.402,304.117 164.735,303.45 159.5,301.5C 159.896,298.518 159.229,295.851 157.5,293.5C 154,291.385 150.333,289.552 146.5,288C 144.382,286.951 142.716,285.451 141.5,283.5C 151.348,283.827 161.014,283.494 170.5,282.5 Z"/></g>
<g><path style="opacity:0.968" fill="#6165ec" d="M 206.5,282.5 C 209.924,287.101 213.591,291.601 217.5,296C 222.403,299.752 227.403,303.252 232.5,306.5C 223.318,306.173 214.318,306.507 205.5,307.5C 197.952,301.413 192.618,293.746 189.5,284.5C 195.167,283.833 200.833,283.167 206.5,282.5 Z"/></g>
<g><path style="opacity:0.966" fill="#6165ec" d="M 304.5,282.5 C 310.31,283.49 316.31,283.823 322.5,283.5C 318.787,292.943 313.12,300.943 305.5,307.5C 296.833,306.833 288.167,306.167 279.5,305.5C 284.311,302.591 288.978,299.424 293.5,296C 297.409,291.601 301.076,287.101 304.5,282.5 Z"/></g>
<g><path style="opacity:1" fill="#5e67eb" d="M 63.5,279.5 C 68.8333,279.5 74.1667,279.5 79.5,279.5C 79.5,284.833 79.5,290.167 79.5,295.5C 74.1667,295.5 68.8333,295.5 63.5,295.5C 63.5,290.167 63.5,284.833 63.5,279.5 Z"/></g>
<g><path style="opacity:0.958" fill="#5f67ec" d="M 349.5,275.5 C 357.316,276.492 365.316,276.826 373.5,276.5C 372.647,280.37 370.647,283.536 367.5,286C 362.961,288.769 358.294,291.269 353.5,293.5C 351.209,296.596 350.875,299.929 352.5,303.5C 346.5,303.5 340.5,303.5 334.5,303.5C 333.239,290.683 338.239,281.349 349.5,275.5 Z"/></g>
<g><path style="opacity:1" fill="#6065ec" d="M 431.5,283.5 C 436.833,283.5 442.167,283.5 447.5,283.5C 447.5,291.167 447.5,298.833 447.5,306.5C 442.167,306.5 436.833,306.5 431.5,306.5C 431.5,298.833 431.5,291.167 431.5,283.5 Z"/></g>
<g><path style="opacity:0.97" fill="#6760ee" d="M 279.5,305.5 C 288.167,306.167 296.833,306.833 305.5,307.5C 288.206,324.095 267.539,330.595 243.5,327C 228.677,324.423 216.01,317.923 205.5,307.5C 214.318,306.507 223.318,306.173 232.5,306.5C 248.327,312.124 263.993,311.791 279.5,305.5 Z"/></g>
<g><path style="opacity:0.973" fill="#6660ee" d="M 159.5,301.5 C 164.735,303.45 170.402,304.117 176.5,303.5C 173.531,308.096 172.365,313.096 173,318.5C 175.335,321.665 177.835,324.665 180.5,327.5C 173.313,327.175 166.313,327.509 159.5,328.5C 156.122,324.747 154.789,320.247 155.5,315C 154.794,309.792 156.127,305.292 159.5,301.5 Z"/></g>
<g><path style="opacity:0.969" fill="#665fee" d="M 334.5,303.5 C 340.5,303.5 346.5,303.5 352.5,303.5C 354.978,306.811 355.978,310.645 355.5,315C 356.211,320.247 354.878,324.747 351.5,328.5C 344.687,327.509 337.687,327.175 330.5,327.5C 333.165,324.665 335.665,321.665 338,318.5C 338.635,313.096 337.469,308.096 334.5,303.5 Z"/></g>
<g><path style="opacity:1" fill="#675fee" d="M 431.5,306.5 C 436.833,306.5 442.167,306.5 447.5,306.5C 447.5,313.5 447.5,320.5 447.5,327.5C 442.167,327.5 436.833,327.5 431.5,327.5C 431.5,320.5 431.5,313.5 431.5,306.5 Z"/></g>
<g><path style="opacity:1" fill="#685fee" d="M 63.5,311.5 C 68.8333,311.5 74.1667,311.5 79.5,311.5C 79.5,316.833 79.5,322.167 79.5,327.5C 74.1667,327.5 68.8333,327.5 63.5,327.5C 63.5,322.167 63.5,316.833 63.5,311.5 Z"/></g>
<g><path style="opacity:0.96" fill="#6e59f0" d="M 180.5,327.5 C 184.332,331.164 188.332,334.664 192.5,338C 194.833,338.667 197.167,338.667 199.5,338C 212.328,331.71 223.495,333.877 233,344.5C 233.791,345.745 234.291,347.078 234.5,348.5C 215.833,348.5 197.167,348.5 178.5,348.5C 171.442,342.444 165.109,335.778 159.5,328.5C 166.313,327.509 173.313,327.175 180.5,327.5 Z"/></g>
<g><path style="opacity:0.96" fill="#6e59f0" d="M 330.5,327.5 C 337.687,327.175 344.687,327.509 351.5,328.5C 345.891,335.778 339.558,342.444 332.5,348.5C 313.833,348.5 295.167,348.5 276.5,348.5C 280.946,339.182 288.446,334.515 299,334.5C 303.505,334.446 307.672,335.613 311.5,338C 313.833,338.667 316.167,338.667 318.5,338C 322.668,334.664 326.668,331.164 330.5,327.5 Z"/></g>
<g><path style="opacity:0.988" fill="#7256f1" d="M 135.5,367.5 C 130.167,367.5 124.833,367.5 119.5,367.5C 118.677,363.18 116.011,360.68 111.5,360C 84.8333,359.333 58.1667,359.333 31.5,360C 26.9895,360.68 24.3228,363.18 23.5,367.5C 18.1667,367.5 12.8333,367.5 7.5,367.5C 7.2049,356.925 11.8716,349.425 21.5,345C 38.1029,343.854 54.7696,343.354 71.5,343.5C 88.2304,343.354 104.897,343.854 121.5,345C 131.128,349.425 135.795,356.925 135.5,367.5 Z"/></g>
<g><path style="opacity:0.971" fill="#7354f2" d="M 178.5,348.5 C 197.167,348.5 215.833,348.5 234.5,348.5C 235.848,351.985 237.848,355.152 240.5,358C 250.5,360 260.5,360 270.5,358C 273.152,355.152 275.152,351.985 276.5,348.5C 295.167,348.5 313.833,348.5 332.5,348.5C 329.862,351.621 326.528,353.788 322.5,355C 315.097,356.378 308.097,355.378 301.5,352C 297.933,350.925 294.933,351.758 292.5,354.5C 286.389,372.064 274.056,379.064 255.5,375.5C 236.422,379.054 223.922,371.72 218,353.5C 215.421,351.653 212.588,351.153 209.5,352C 200.985,356.227 192.318,356.561 183.5,353C 181.382,351.951 179.716,350.451 178.5,348.5 Z"/></g>
<g><path style="opacity:1" fill="#7255f1" d="M 503.5,367.5 C 498.167,367.5 492.833,367.5 487.5,367.5C 487.5,364.833 487.5,362.167 487.5,359.5C 482.167,359.5 476.833,359.5 471.5,359.5C 471.5,362.167 471.5,364.833 471.5,367.5C 466.167,367.5 460.833,367.5 455.5,367.5C 455.5,359.5 455.5,351.5 455.5,343.5C 471.5,343.5 487.5,343.5 503.5,343.5C 503.5,351.5 503.5,359.5 503.5,367.5 Z"/></g>
<g><path style="opacity:1" fill="#7c4df4" d="M 7.5,367.5 C 12.8333,367.5 18.1667,367.5 23.5,367.5C 23.5,375.5 23.5,383.5 23.5,391.5C 55.5,391.5 87.5,391.5 119.5,391.5C 119.5,383.5 119.5,375.5 119.5,367.5C 124.833,367.5 130.167,367.5 135.5,367.5C 135.5,377.833 135.5,388.167 135.5,398.5C 92.8333,398.5 50.1667,398.5 7.5,398.5C 7.5,388.167 7.5,377.833 7.5,367.5 Z"/></g>
<g><path style="opacity:1" fill="#7e4cf5" d="M 375.5,411.5 C 370.167,411.5 364.833,411.5 359.5,411.5C 359.5,404.833 359.5,398.167 359.5,391.5C 354.167,391.5 348.833,391.5 343.5,391.5C 343.5,398.167 343.5,404.833 343.5,411.5C 338.167,411.5 332.833,411.5 327.5,411.5C 327.5,399.5 327.5,387.5 327.5,375.5C 343.5,375.5 359.5,375.5 375.5,375.5C 375.5,387.5 375.5,399.5 375.5,411.5 Z"/></g>
<g><path style="opacity:1" fill="#8149f6" d="M 7.5,398.5 C 50.1667,398.5 92.8333,398.5 135.5,398.5C 135.5,402.833 135.5,407.167 135.5,411.5C 130.167,411.5 124.833,411.5 119.5,411.5C 119.5,410.167 119.5,408.833 119.5,407.5C 87.5,407.5 55.5,407.5 23.5,407.5C 23.5,408.833 23.5,410.167 23.5,411.5C 18.1667,411.5 12.8333,411.5 7.5,411.5C 7.5,407.167 7.5,402.833 7.5,398.5 Z"/></g>
<g><path style="opacity:1" fill="#7e4bf5" d="M 455.5,367.5 C 460.833,367.5 466.167,367.5 471.5,367.5C 471.5,382.167 471.5,396.833 471.5,411.5C 466.167,411.5 460.833,411.5 455.5,411.5C 455.5,396.833 455.5,382.167 455.5,367.5 Z"/></g>
<g><path style="opacity:1" fill="#7e4bf5" d="M 487.5,367.5 C 492.833,367.5 498.167,367.5 503.5,367.5C 503.5,382.167 503.5,396.833 503.5,411.5C 498.167,411.5 492.833,411.5 487.5,411.5C 487.5,396.833 487.5,382.167 487.5,367.5 Z"/></g>
<g><path style="opacity:1" fill="#8545f7" d="M 439.5,431.5 C 434.167,431.5 428.833,431.5 423.5,431.5C 423.5,428.833 423.5,426.167 423.5,423.5C 418.167,423.5 412.833,423.5 407.5,423.5C 407.5,426.167 407.5,428.833 407.5,431.5C 402.167,431.5 396.833,431.5 391.5,431.5C 391.5,423.5 391.5,415.5 391.5,407.5C 407.5,407.5 423.5,407.5 439.5,407.5C 439.5,415.5 439.5,423.5 439.5,431.5 Z"/></g>
<g><path style="opacity:1" fill="#8941f8" d="M 7.5,411.5 C 12.8333,411.5 18.1667,411.5 23.5,411.5C 23.5,420.833 23.5,430.167 23.5,439.5C 55.5,439.5 87.5,439.5 119.5,439.5C 119.5,430.167 119.5,420.833 119.5,411.5C 124.833,411.5 130.167,411.5 135.5,411.5C 135.5,421.5 135.5,431.5 135.5,441.5C 92.8333,441.5 50.1667,441.5 7.5,441.5C 7.5,431.5 7.5,421.5 7.5,411.5 Z"/></g>
<g><path style="opacity:1" fill="#8941f8" d="M 151.5,423.5 C 183.5,423.5 215.5,423.5 247.5,423.5C 247.5,428.833 247.5,434.167 247.5,439.5C 215.5,439.5 183.5,439.5 151.5,439.5C 151.5,434.167 151.5,428.833 151.5,423.5 Z"/></g>
<g><path style="opacity:1" fill="#8941f8" d="M 263.5,423.5 C 268.833,423.5 274.167,423.5 279.5,423.5C 279.5,428.833 279.5,434.167 279.5,439.5C 274.167,439.5 268.833,439.5 263.5,439.5C 263.5,434.167 263.5,428.833 263.5,423.5 Z"/></g>
<g><path style="opacity:1" fill="#8941f8" d="M 295.5,423.5 C 300.833,423.5 306.167,423.5 311.5,423.5C 311.5,428.833 311.5,434.167 311.5,439.5C 306.167,439.5 300.833,439.5 295.5,439.5C 295.5,434.167 295.5,428.833 295.5,423.5 Z"/></g>
<g><path style="opacity:1" fill="#8b40f9" d="M 327.5,411.5 C 332.833,411.5 338.167,411.5 343.5,411.5C 343.5,424.833 343.5,438.167 343.5,451.5C 338.167,451.5 332.833,451.5 327.5,451.5C 327.5,438.167 327.5,424.833 327.5,411.5 Z"/></g>
<g><path style="opacity:1" fill="#8b40f9" d="M 359.5,411.5 C 364.833,411.5 370.167,411.5 375.5,411.5C 375.5,424.833 375.5,438.167 375.5,451.5C 370.167,451.5 364.833,451.5 359.5,451.5C 359.5,438.167 359.5,424.833 359.5,411.5 Z"/></g>
<g><path style="opacity:1" fill="#8b40f9" d="M 455.5,411.5 C 460.833,411.5 466.167,411.5 471.5,411.5C 471.5,424.833 471.5,438.167 471.5,451.5C 466.167,451.5 460.833,451.5 455.5,451.5C 455.5,438.167 455.5,424.833 455.5,411.5 Z"/></g>
<g><path style="opacity:1" fill="#8b40f9" d="M 487.5,411.5 C 492.833,411.5 498.167,411.5 503.5,411.5C 503.5,424.833 503.5,438.167 503.5,451.5C 498.167,451.5 492.833,451.5 487.5,451.5C 487.5,438.167 487.5,424.833 487.5,411.5 Z"/></g>
<g><path style="opacity:1" fill="#903bfa" d="M 7.5,441.5 C 50.1667,441.5 92.8333,441.5 135.5,441.5C 135.5,451.5 135.5,461.5 135.5,471.5C 130.167,471.5 124.833,471.5 119.5,471.5C 119.5,466.167 119.5,460.833 119.5,455.5C 87.5,455.5 55.5,455.5 23.5,455.5C 23.5,460.833 23.5,466.167 23.5,471.5C 18.1667,471.5 12.8333,471.5 7.5,471.5C 7.5,461.5 7.5,451.5 7.5,441.5 Z"/></g>
<g><path style="opacity:1" fill="#903bfa" d="M 391.5,431.5 C 396.833,431.5 402.167,431.5 407.5,431.5C 407.5,444.833 407.5,458.167 407.5,471.5C 402.167,471.5 396.833,471.5 391.5,471.5C 391.5,458.167 391.5,444.833 391.5,431.5 Z"/></g>
<g><path style="opacity:1" fill="#903bfa" d="M 423.5,431.5 C 428.833,431.5 434.167,431.5 439.5,431.5C 439.5,444.833 439.5,458.167 439.5,471.5C 434.167,471.5 428.833,471.5 423.5,471.5C 423.5,458.167 423.5,444.833 423.5,431.5 Z"/></g>
<g><path style="opacity:1" fill="#9736fc" d="M 327.5,451.5 C 332.833,451.5 338.167,451.5 343.5,451.5C 343.5,463.5 343.5,475.5 343.5,487.5C 348.833,487.5 354.167,487.5 359.5,487.5C 359.5,475.5 359.5,463.5 359.5,451.5C 364.833,451.5 370.167,451.5 375.5,451.5C 375.5,463.5 375.5,475.5 375.5,487.5C 380.833,487.5 386.167,487.5 391.5,487.5C 391.5,482.167 391.5,476.833 391.5,471.5C 396.833,471.5 402.167,471.5 407.5,471.5C 407.5,476.833 407.5,482.167 407.5,487.5C 412.833,487.5 418.167,487.5 423.5,487.5C 423.5,482.167 423.5,476.833 423.5,471.5C 428.833,471.5 434.167,471.5 439.5,471.5C 439.5,476.833 439.5,482.167 439.5,487.5C 444.833,487.5 450.167,487.5 455.5,487.5C 455.5,475.5 455.5,463.5 455.5,451.5C 460.833,451.5 466.167,451.5 471.5,451.5C 471.5,463.5 471.5,475.5 471.5,487.5C 476.833,487.5 482.167,487.5 487.5,487.5C 487.5,475.5 487.5,463.5 487.5,451.5C 492.833,451.5 498.167,451.5 503.5,451.5C 503.5,465.5 503.5,479.5 503.5,493.5C 444.833,493.5 386.167,493.5 327.5,493.5C 327.5,479.5 327.5,465.5 327.5,451.5 Z"/></g>
<g><path style="opacity:0.985" fill="#9c31fe" d="M 7.5,471.5 C 12.8333,471.5 18.1667,471.5 23.5,471.5C 23.2633,475.273 23.7633,478.94 25,482.5C 25.5,484.333 26.6667,485.5 28.5,486C 42.7681,487.142 57.1014,487.642 71.5,487.5C 85.3642,487.487 99.1975,487.154 113,486.5C 115.459,486.11 117.126,484.776 118,482.5C 119.237,478.94 119.737,475.273 119.5,471.5C 124.833,471.5 130.167,471.5 135.5,471.5C 138.295,486.752 132.628,497.252 118.5,503C 102.833,503.167 87.1667,503.333 71.5,503.5C 54.7696,503.646 38.1029,503.146 21.5,502C 9.44583,495.375 4.77916,485.208 7.5,471.5 Z"/></g>
<g><path style="opacity:1" fill="#9d30fe" d="M 327.5,493.5 C 386.167,493.5 444.833,493.5 503.5,493.5C 503.5,496.833 503.5,500.167 503.5,503.5C 444.833,503.5 386.167,503.5 327.5,503.5C 327.5,500.167 327.5,496.833 327.5,493.5 Z"/></g>
</svg>
