<svg 
    xmlns="http://www.w3.org/2000/svg" 
    width="512" 
    height="512" 
    viewBox="0 0 512 512" 
    version="1.1"
>
    <defs>
        <linearGradient id="myGradient" x1="0%" y1="100%" x2="100%" y2="0%">
        <stop offset="0%" stop-color="#02aae9" />
        <stop offset="100%" stop-color="#c216ff" />
        </linearGradient>
    </defs>
    <path 
        d="M 64.357 62.082 C 57.654 64.660, 51.151 70.469, 47.539 77.106 C 43.673 84.209, 42.854 95.309, 45.616 103.183 C 48.156 110.424, 57.566 120.001, 64.428 122.329 C 82.810 128.563, 101.594 118.694, 107.401 99.750 C 107.884 98.174, 109.605 98, 124.678 98 C 141.419 98, 141.419 98, 156.532 113 C 166.010 122.406, 172.400 128, 173.668 128 C 176.153 128, 179 125.016, 179 122.410 C 179 121.243, 172.362 113.849, 162.239 103.739 C 145.479 87, 145.479 87, 126.873 87 C 108.268 87, 108.268 87, 106.012 80.813 C 100.013 64.360, 80.845 55.741, 64.357 62.082 M 425 61.608 C 415.255 65.143, 407.213 73.530, 404.730 82.750 C 403.585 87, 403.585 87, 384.504 87 C 365.423 87, 365.423 87, 348.712 103.817 C 339.520 113.066, 332 121.391, 332 122.317 C 332 124.524, 335.524 128, 337.763 128 C 338.732 128, 346.264 121.250, 354.500 113 C 369.475 98, 369.475 98, 386.503 98 C 403.531 98, 403.531 98, 405.241 102.817 C 407.638 109.565, 412.276 115.585, 417.757 119.061 C 423.695 122.826, 427.926 123.987, 435.739 123.994 C 448.301 124.006, 458.622 117.576, 464.187 106.272 C 470.408 93.635, 468.044 79.201, 458.141 69.353 C 455.848 67.073, 451.841 64.191, 449.236 62.949 C 442.963 59.959, 431.322 59.315, 425 61.608 M 68.030 72.113 C 54.086 77.678, 50.135 95.587, 60.367 106.847 C 68.195 115.462, 83.805 115.462, 91.633 106.847 C 95.931 102.118, 97.232 98.117, 96.824 90.891 C 96.356 82.601, 92.878 76.909, 86.093 73.327 C 81.349 70.822, 72.717 70.242, 68.030 72.113 M 426.500 72.659 C 407.935 82.429, 410.888 108.004, 431.162 113.036 C 443.576 116.117, 456.911 105.364, 456.978 92.218 C 457.019 84.212, 452.334 76.789, 444.790 72.908 C 440.191 70.543, 430.766 70.414, 426.500 72.659 M 202.033 118.537 C 187.638 122.573, 177.324 134.224, 174.728 149.381 C 173.635 155.758, 173.635 155.758, 168.151 156.324 C 156.296 157.547, 144.600 166.222, 139.160 177.825 C 136.902 182.643, 136.471 185.011, 136.306 193.500 C 136.112 203.500, 136.112 203.500, 131.167 204.127 C 116.970 205.928, 106.185 217.818, 105.211 232.746 C 104.643 241.434, 106.151 247.527, 110.275 253.222 C 112.915 256.865, 113.110 257.590, 111.944 259.424 C 106.645 267.758, 105.638 270.540, 105.204 278.036 C 104.621 288.109, 106.630 294.260, 112.713 301.026 C 117.989 306.893, 125.137 310.873, 131.828 311.667 C 136.500 312.222, 136.500 312.222, 136.500 322.361 C 136.500 331.448, 136.791 333.093, 139.308 338.218 C 144.838 349.479, 156.568 358.052, 168.483 359.541 C 173.690 360.192, 173.690 360.192, 174.893 366.725 C 178.755 387.681, 197.167 401.023, 217.767 397.793 C 225.880 396.521, 231.228 393.843, 237.496 387.915 C 244.104 381.666, 247.578 374.902, 249.008 365.500 C 249.725 360.789, 249.980 324.005, 249.787 253 C 249.500 147.500, 249.500 147.500, 247.215 141.847 C 239.728 123.330, 220.437 113.377, 202.033 118.537 M 290.734 118.024 C 280.392 120.636, 269.938 129.396, 265.374 139.278 C 262.500 145.500, 262.500 145.500, 262.500 258 C 262.500 370.500, 262.500 370.500, 265.160 376.175 C 274.404 395.894, 298.139 403.972, 317.115 393.858 C 327.816 388.154, 335.518 377.072, 336.693 365.685 C 337.242 360.365, 337.242 360.365, 343.619 359.272 C 363.842 355.808, 377.637 338.107, 375.520 318.338 C 374.854 312.127, 374.889 312, 377.239 312 C 382.072 312, 389.996 308.861, 394.851 305.024 C 400.520 300.542, 405.604 291.426, 406.608 283.939 C 407.495 277.325, 405.398 268.792, 401.438 262.908 C 398.021 257.830, 398.021 257.830, 400.927 253.606 C 414.180 234.343, 402.894 207.394, 380.214 204.150 C 375.500 203.475, 375.500 203.475, 375.420 194.488 C 375.360 187.716, 374.792 184.094, 373.117 179.798 C 370.677 173.544, 363.684 165.088, 357.965 161.478 C 353.608 158.728, 344.891 156, 340.458 156 C 337.344 156, 337.268 155.889, 336.717 150.547 C 335.435 138.127, 326.357 125.800, 314.493 120.368 C 308.308 117.537, 297.061 116.427, 290.734 118.024 M 202.679 129.543 C 192.241 133.372, 186.124 142.436, 185.101 155.589 C 184.743 160.187, 183.911 164.489, 183.252 165.148 C 182.592 165.808, 178.061 166.635, 173.183 166.987 C 163.150 167.710, 157.018 170.488, 152.565 176.326 C 144.753 186.567, 144.519 203.632, 152.136 207.570 C 153.769 208.415, 158.457 212.289, 162.553 216.180 C 168.254 221.596, 170 223.892, 170 225.972 C 170 228.936, 167.305 232, 164.698 232 C 163.794 232, 159.264 228.430, 154.631 224.067 C 148.418 218.214, 145.078 215.829, 141.897 214.972 C 126.744 210.892, 112.373 224.881, 116.035 240.147 C 116.815 243.399, 118.714 246.647, 122.086 250.501 C 124.789 253.589, 127 256.738, 127 257.497 C 127 258.257, 125.194 260.966, 122.986 263.517 C 115.957 271.638, 114.130 277.207, 115.974 284.893 C 118.265 294.441, 126.539 301.018, 136.210 300.978 C 143.492 300.948, 148.348 298.400, 155.971 290.612 C 159.530 286.975, 163.272 284, 164.287 284 C 167.700 284, 170 285.955, 170 288.858 C 170 291.070, 168.194 293.339, 161.250 299.853 C 156.438 304.367, 151.532 308.886, 150.349 309.894 C 147.289 312.503, 145.610 321.297, 146.994 327.472 C 148.330 333.435, 149.257 335.171, 153.764 340.161 C 159.158 346.131, 164.093 348.268, 173.706 348.796 C 179.607 349.120, 182.314 349.703, 183.339 350.873 C 184.216 351.873, 184.939 355.582, 185.217 360.500 C 185.755 370.036, 187.890 374.800, 194.250 380.663 C 199.623 385.615, 204.566 387.431, 212.563 387.390 C 220.080 387.352, 226.420 384.491, 231.534 378.831 C 238.534 371.083, 238.466 371.528, 238.807 331.164 C 239.115 294.829, 239.115 294.829, 236.807 295.543 C 228.998 297.959, 222.432 303.761, 215.139 314.688 C 212.868 318.091, 210.532 321.171, 209.948 321.532 C 208.027 322.719, 203.953 320.991, 202.822 318.509 C 201.871 316.422, 202.199 315.242, 205.106 310.286 C 206.973 307.104, 212.100 300.858, 216.500 296.408 C 224.308 288.509, 227.941 286.328, 236.250 284.550 C 239 283.962, 239 283.962, 239 257.609 C 239 231.256, 239 231.256, 234.908 230.601 C 229.160 229.682, 224.139 226.894, 217.802 221.102 C 212.894 216.616, 204.007 204.788, 202.401 200.604 C 201.498 198.250, 204.643 193.997, 207.273 194.015 C 210.281 194.036, 211.274 194.821, 214.214 199.500 C 221.387 210.919, 229.317 218.313, 235.775 219.605 C 239 220.250, 239 220.250, 239 186.307 C 239 148.903, 238.633 145.975, 232.987 138.297 C 228.658 132.411, 219.596 127.976, 212.090 128.070 C 209.016 128.109, 204.781 128.772, 202.679 129.543 M 291.994 128.874 C 284.353 131.381, 278.362 136.739, 275.079 144 C 273.156 148.253, 273.043 150.464, 273.022 184.250 C 272.997 224.769, 272.483 222.663, 281.054 217.130 C 286.608 213.545, 290.586 209.314, 296.221 201 C 299.695 195.874, 301.236 194.429, 303.514 194.164 C 306.666 193.798, 309 195.985, 309 199.307 C 309 202.330, 300.731 213.999, 294.117 220.307 C 288.064 226.080, 279.425 230.972, 275.250 230.990 C 273 231, 273 231, 273 257.486 C 273 283.971, 273 283.971, 277.547 285.116 C 287.166 287.538, 296.584 295.536, 305.074 308.492 C 309.470 315.201, 309.908 317.868, 307.040 320.464 C 304.221 323.015, 300.616 321.749, 297.895 317.252 C 291.365 306.457, 282.034 297.504, 275.250 295.522 C 273 294.865, 273 294.865, 273 331.236 C 273 367.607, 273 367.607, 275.578 372.780 C 278.379 378.403, 281.982 381.907, 288.384 385.237 C 293.789 388.049, 304.882 388.222, 310 385.575 C 321.105 379.830, 325.088 373.646, 326.022 360.701 C 326.806 349.832, 327.547 349.033, 336.941 348.924 C 340.549 348.882, 344.933 348.320, 346.684 347.674 C 352.666 345.468, 358.427 340.511, 361.484 334.939 C 363.985 330.379, 364.470 328.369, 364.484 322.500 C 364.502 314.587, 362.750 309.373, 359.753 308.421 C 356.222 307.301, 341 291.956, 341 289.517 C 341 286.921, 343.895 284, 346.468 284 C 347.463 284, 351.752 287.319, 355.998 291.376 C 364.746 299.733, 368.508 301.421, 377.025 300.805 C 384.652 300.253, 390.007 296.633, 393.467 289.691 C 397.951 280.692, 396.570 272.828, 389.076 264.699 C 386.807 262.237, 385 259.271, 385 258.009 C 385 256.763, 386.626 253.943, 388.613 251.744 C 394.112 245.657, 396.359 239.769, 395.683 233.221 C 394.364 220.437, 382.796 212.161, 370.191 214.982 C 365.620 216.005, 363.688 217.286, 356.469 224.086 C 351.848 228.439, 347.477 232, 346.756 232 C 344.338 232, 341 228.909, 341 226.670 C 341 224.393, 353.401 211.410, 359.626 207.170 C 364.718 203.701, 366.444 193.593, 363.446 184.795 C 359.754 173.962, 349.718 167.027, 337.705 167.010 C 331.830 167.001, 330.576 166.667, 328.455 164.545 C 326.336 162.427, 325.997 161.161, 325.978 155.295 C 325.943 144.359, 320.726 135.519, 311.500 130.763 C 307.155 128.523, 296.276 127.470, 291.994 128.874 M 37.203 226.181 C 22.123 228.504, 10.643 241.739, 10.584 256.868 C 10.545 266.728, 13.148 273.212, 19.891 280.057 C 32.821 293.183, 52.623 293.311, 65.581 280.352 C 69.280 276.653, 73.972 267.947, 73.990 264.750 C 73.999 263.168, 75.334 263, 87.929 263 C 99.258 263, 102.150 262.707, 103.429 261.429 C 105.379 259.478, 105.434 256.977, 103.583 254.441 C 102.318 252.708, 100.653 252.465, 88.083 252.174 C 76.435 251.905, 74 251.592, 74 250.362 C 74 247.137, 68.721 237.980, 64.839 234.474 C 57.067 227.452, 47.529 224.590, 37.203 226.181 M 463.217 226.215 C 456.461 227.210, 450.967 230.033, 445.873 235.127 C 442.125 238.875, 437.032 247.852, 437.010 250.750 C 437.002 251.683, 433.815 252, 424.434 252 C 411.439 252, 408.812 252.615, 406.952 256.090 C 406.106 257.670, 406.220 258.687, 407.452 260.567 C 409.013 262.950, 409.331 263, 422.840 263 C 436.635 263, 436.635 263, 438.429 268.691 C 440.884 276.480, 449.094 284.761, 457.507 287.936 C 472.987 293.777, 490.577 286.637, 497.999 271.500 C 500.007 267.404, 500.455 264.963, 500.475 258 C 500.497 250.700, 500.108 248.701, 497.720 243.839 C 491.384 230.938, 477.906 224.053, 463.217 226.215 M 37.245 236.927 C 26.099 239.744, 18.866 252.305, 21.981 263.432 C 26.563 279.798, 47.477 284.471, 58.739 271.645 C 60.416 269.734, 62.342 266.493, 63.019 264.442 C 64.788 259.082, 63.673 250.616, 60.583 245.947 C 55.894 238.860, 45.495 234.841, 37.245 236.927 M 461.886 237.508 C 452.807 240.406, 445.974 251.181, 447.432 260.300 C 449.266 271.766, 457.612 279, 469.008 279 C 475.100 279, 480.496 276.477, 484.739 271.645 C 498.946 255.463, 482.518 230.923, 461.886 237.508 M 156.487 403.019 C 141.500 418.038, 141.500 418.038, 124.648 417.769 C 107.796 417.500, 107.796 417.500, 106.278 413 C 101.823 399.796, 90.399 391.716, 75.982 391.574 C 42.189 391.241, 31.393 437.258, 61.758 452.200 C 67.616 455.083, 69.413 455.491, 75.982 455.426 C 90.399 455.284, 101.825 447.202, 106.277 434 C 107.794 429.500, 107.794 429.500, 126.924 429 C 146.054 428.500, 146.054 428.500, 162.527 411.940 C 179.301 395.077, 180.753 392.896, 177.429 389.571 C 174.066 386.209, 171.829 387.645, 156.487 403.019 M 333.458 390.424 C 332.048 392.576, 332.034 393.164, 333.336 395.674 C 334.143 397.228, 341.821 405.363, 350.400 413.750 C 365.997 429, 365.997 429, 384.999 429 C 402.644 429, 404 429.129, 404 430.804 C 404 434.238, 409.116 442.852, 413.622 447.006 C 420.450 453.300, 425.955 455.416, 435.500 455.416 C 445.054 455.416, 450.550 453.300, 457.404 446.982 C 464.315 440.611, 467.408 433.352, 467.408 423.500 C 467.408 413.648, 464.315 406.389, 457.404 400.018 C 450.550 393.700, 445.054 391.584, 435.500 391.584 C 425.955 391.584, 420.450 393.700, 413.622 399.994 C 409.116 404.148, 404 412.762, 404 416.196 C 404 417.863, 402.727 418, 387.290 418 C 370.581 418, 370.581 418, 355.468 403 C 339.167 386.821, 336.731 385.429, 333.458 390.424 M 67.500 403.871 C 61.761 406.492, 57.184 411.641, 55.475 417.397 C 53.662 423.500, 53.662 423.500, 55.475 429.603 C 58.986 441.427, 72.636 448.103, 83.782 443.447 C 98.180 437.433, 101.657 418.542, 90.342 407.803 C 84.264 402.035, 75.009 400.441, 67.500 403.871 M 428.176 403.138 C 423.334 404.533, 416.368 411.922, 414.955 417.161 C 409.136 438.733, 434.851 454.219, 450.487 438.559 C 459.069 429.965, 459.083 417.043, 450.520 408.480 C 444.664 402.624, 436.629 400.703, 428.176 403.138" 
        stroke="none" 
        fill="url(#myGradient)" 
        fill-rule="evenodd"
    />
</svg>