<svg 
xmlns="http://www.w3.org/2000/svg" 
    width="512" 
    height="512" 
    viewBox="0 0 512 512" 
    version="1.1"
>
    <defs>
        <linearGradient id="myGradient" x1="0%" y1="100%" x2="100%" y2="0%">
        <stop offset="0%" stop-color="#02aae9" />
        <stop offset="100%" stop-color="#c216ff" />
        </linearGradient>
    </defs>
    <path 
        d="M 258.500 1.402 C 241.262 6.868, 232.587 19.094, 231.288 39.750 C 230.706 49, 230.706 49, 192.974 49 C 155.243 49, 155.243 49, 154.004 46.011 C 152.442 42.239, 146.157 36.510, 141.400 34.523 C 133.573 31.252, 122.599 33.084, 115.958 38.768 C 103.235 49.659, 104.513 69.605, 118.502 78.447 C 123 81.290, 123 81.290, 123 98.005 C 123 114.720, 123 114.720, 104.250 115.318 C 93.448 115.663, 82.745 116.549, 79 117.408 C 42.344 125.817, 14.087 152.394, 3.416 188.500 C -2.005 206.842, -0.774 233.379, 6.312 250.921 C 8.866 257.243, 8.866 257.243, 5.599 261.992 C 1.158 268.449, -0.364 274.456, 0.213 283.254 C 1.254 299.136, 13.350 311.876, 29.291 313.883 C 34.193 314.500, 34.193 314.500, 36.414 321.500 C 43.509 343.865, 60.858 363.678, 81.023 372.447 C 83.486 373.517, 85.667 374.509, 85.871 374.650 C 86.074 374.792, 84.899 376.616, 83.258 378.704 C 74.747 389.533, 74.026 393.537, 74.012 430.090 C 74.001 457.417, 74.213 461.513, 75.997 468.489 C 81.221 488.912, 97.409 505.194, 117.695 510.428 C 123.257 511.863, 138.757 511.999, 269.195 511.763 C 414.500 511.500, 414.500 511.500, 419.540 508.839 C 433.718 501.356, 441.723 483.322, 436.060 471.624 C 433.828 467.013, 429.759 463.720, 424.750 462.470 C 422 461.783, 422 461.783, 421.980 409.142 C 421.969 379.911, 421.521 353.464, 420.973 349.674 C 419.629 340.376, 415.723 332.588, 409.067 325.936 C 402.473 319.346, 394.931 315.457, 386 314.044 C 377.832 312.751, 283.939 312.688, 275.075 313.969 C 261.217 315.972, 249.502 324.782, 243.121 338 C 239.500 345.500, 239.500 345.500, 239.190 387.250 C 238.880 429, 238.880 429, 222.599 429 C 206.318 429, 206.318 429, 205.048 423.250 C 201.247 406.050, 190.570 390.495, 176.179 381.194 C 170.123 377.280, 170.123 377.280, 174.311 376.025 C 181.538 373.860, 193.359 367.381, 200.566 361.634 C 213.907 350.997, 223.617 336.444, 228.436 319.870 C 230.062 314.273, 230.062 314.273, 235.500 313.712 C 243.039 312.934, 252.311 307.812, 257.063 301.801 C 260.600 297.327, 263.047 291.579, 264.481 284.379 C 265.102 281.258, 265.102 281.258, 275.301 280.727 C 280.929 280.434, 289.085 279.227, 293.500 278.033 C 310.741 273.369, 333.940 261.645, 353.949 247.482 C 358.987 243.917, 363.284 241, 363.500 241 C 363.716 241, 368.013 243.917, 373.051 247.482 C 385.833 256.530, 402.617 266.094, 415 271.387 C 459.305 290.324, 490.299 280.517, 495.178 246.017 C 498.436 222.979, 487.080 188.774, 463.427 150.378 C 457.192 140.257, 457.192 140.257, 459.147 137.378 C 463.544 130.906, 472.128 115.824, 477.432 105.255 C 487.745 84.699, 493.047 68.555, 495.189 51.182 C 497.989 28.466, 489.943 10.899, 473.233 3.249 C 466.434 0.136, 451.678 -0.956, 441.765 0.919 C 423.917 4.295, 401.196 14.668, 378.244 29.918 C 362.988 40.054, 362.988 40.054, 357.591 36.067 C 335.287 19.591, 309.836 6.807, 289.746 1.991 C 280.239 -0.288, 264.752 -0.580, 258.500 1.402 M 261.530 18.594 C 252.313 21.969, 248.435 29.448, 248.616 43.500 C 248.806 58.149, 253.959 75.891, 264.009 96.500 C 269.869 108.516, 278.848 124, 279.956 124 C 280.395 124, 284.774 118.937, 289.687 112.750 C 304.795 93.722, 323.753 73.803, 342.380 57.385 C 349.260 51.321, 349.260 51.321, 341.380 45.829 C 309.568 23.657, 277.540 12.733, 261.530 18.594 M 441.147 18.534 C 432.793 20.437, 418.498 26.134, 408.342 31.608 C 399.469 36.390, 379.603 49.215, 378.630 50.789 C 378.298 51.326, 383.709 56.866, 390.654 63.098 C 405.556 76.473, 422.519 94.637, 436.321 112 C 441.786 118.875, 446.387 124.650, 446.546 124.834 C 447.128 125.507, 458.378 105.495, 463.516 94.651 C 473.672 73.214, 478 57.548, 478 42.221 C 478 34.536, 477.635 32.638, 475.250 27.929 C 471.426 20.380, 466.460 17.715, 455.541 17.353 C 451.083 17.205, 444.669 17.732, 441.147 18.534 M 127.025 51.975 C 122.608 56.392, 123.951 62.890, 129.736 65.090 C 137.219 67.935, 143.257 58.166, 137.545 52.455 C 134.528 49.437, 129.780 49.220, 127.025 51.975 M 353.950 70.397 C 334.737 87.168, 315.174 108.048, 298.197 129.902 C 290.116 140.303, 290.116 140.303, 297.627 150.102 C 309.803 165.987, 322.823 180.603, 337.622 195.002 C 353.741 210.684, 362.538 218.330, 363.903 217.844 C 366.041 217.083, 386.860 197.870, 397.197 187.118 C 414.953 168.648, 436.590 141.980, 435.700 139.662 C 434.870 137.497, 420.094 118.956, 410.469 108 C 400.909 97.119, 379.949 76.342, 369.434 67.324 C 363.399 62.148, 363.399 62.148, 353.950 70.397 M 153.185 71.009 C 151.291 74.056, 148.282 77.119, 145.560 78.771 C 141.063 81.500, 141.063 81.500, 141.032 98.250 C 141 115, 141 115, 155.250 115.006 C 183.476 115.018, 201.863 120.098, 221.500 133.311 C 230.045 139.060, 241.877 151.198, 247.817 160.308 C 252.908 168.115, 252.908 168.115, 255.367 163.308 C 256.720 160.663, 260.341 154.514, 263.413 149.642 C 266.486 144.770, 269 140.603, 269 140.381 C 269 140.159, 265.684 134.470, 261.630 127.739 C 249.655 107.852, 240.059 87.198, 235.967 72.500 C 234.296 66.500, 234.296 66.500, 195.305 66.239 C 156.313 65.977, 156.313 65.977, 153.185 71.009 M 350.785 100.590 C 343.196 102.924, 334.138 109.775, 329.308 116.833 C 323.478 125.352, 321.651 132.081, 322.229 142.902 C 322.814 153.839, 325.875 160.921, 333.454 168.866 C 360.459 197.178, 407.954 175.774, 404.684 136.766 C 403.641 124.335, 395.212 110.823, 384.644 104.642 C 375.318 99.187, 360.938 97.466, 350.785 100.590 M 356.994 116.875 C 345.225 120.734, 338.107 131.061, 339.294 142.555 C 340.398 153.254, 347.952 161.727, 358.489 164.085 C 375.242 167.834, 390.834 152.242, 387.085 135.489 C 384.669 124.693, 376.016 117.141, 365.250 116.432 C 362.088 116.223, 358.372 116.423, 356.994 116.875 M 80.500 134.958 C 54.946 141.705, 35.268 157.959, 24.568 181.160 C 15.815 200.139, 14.689 221.830, 21.422 241.790 C 22.667 245.480, 24.094 248.427, 24.593 248.338 C 25.092 248.249, 27.134 247.914, 29.130 247.595 C 32.761 247.015, 32.761 247.015, 33.178 237.757 C 33.802 223.910, 38.950 214.210, 50.139 205.803 C 58.854 199.255, 65.060 198, 88.716 198 C 109.221 198, 109.221 198, 100.807 189.717 C 92.110 181.156, 83.312 170.355, 84.261 169.405 C 84.559 169.107, 87.660 166.850, 91.151 164.390 C 97.500 159.915, 97.500 159.915, 100.413 163.708 C 105.999 170.982, 122.565 186.537, 130.005 191.495 C 151.736 205.976, 176.871 214, 200.502 214 C 208.773 214, 209.860 213.778, 211.826 211.686 C 214.593 208.740, 214.676 203.676, 212 201 C 210.444 199.444, 208.667 199, 204 199 C 198 199, 198 199, 198 190 C 198 181, 198 181, 203.318 181 C 214.979 181, 224.602 186.493, 229.162 195.753 C 231.373 200.243, 231.518 201.756, 231.830 223.708 C 232.195 249.381, 231.536 247.158, 239.163 248.442 C 242.626 249.024, 242.882 248.879, 243.860 245.779 C 247.221 235.128, 248.107 210.888, 245.573 198.934 C 238.888 167.396, 214.688 142.410, 183.614 134.959 C 176.193 133.180, 171.741 133.018, 131.500 133.062 C 91.994 133.105, 86.785 133.299, 80.500 134.958 M 274.361 164.762 C 271.535 169.568, 267.425 177.100, 265.228 181.500 C 261.233 189.500, 261.233 189.500, 262.703 196 C 263.638 200.134, 264.202 208.323, 264.253 218.500 C 264.337 235.100, 263.334 242.064, 259.103 254.252 C 257.106 260.004, 257.106 260.004, 260.303 261.734 C 265.431 264.508, 280.210 263.963, 291.500 260.582 C 303.694 256.930, 321.911 247.876, 336.947 237.994 C 349.394 229.814, 349.394 229.814, 340.947 222.263 C 321.986 205.315, 295.360 176.522, 284.063 160.750 C 282.192 158.137, 280.400 156.005, 280.080 156.012 C 279.761 156.019, 277.188 159.956, 274.361 164.762 M 436.327 168.728 C 423.762 184.511, 407.483 201.948, 390.750 217.545 C 380.662 226.949, 378.262 229.682, 379.250 230.637 C 382.382 233.664, 401.503 245.587, 411 250.435 C 443.427 266.989, 466.930 268.118, 475.157 253.517 C 477.947 248.565, 478.882 234.182, 477.029 224.705 C 473.998 209.201, 464.054 184.849, 453.250 166.475 C 446.188 154.464, 447.859 154.241, 436.327 168.728 M 67.994 215.934 C 60.590 218.186, 55.320 222.845, 52.081 230 C 50.158 234.247, 50.043 236.455, 50.022 269.303 C 49.997 308.180, 50.551 312.957, 56.533 325.500 C 65.479 344.258, 83.682 358.095, 104.434 361.909 C 113.797 363.631, 152.562 363.309, 161.792 361.434 C 180.988 357.534, 198.381 344.229, 206.824 326.988 C 213.845 312.649, 214 311.384, 214 268.360 C 214 230.140, 214 230.140, 210.750 231.103 C 206.891 232.247, 190.931 231.407, 179 229.432 C 167.329 227.500, 154.373 223.617, 143.971 218.933 C 135.236 215, 135.236 215, 102.868 215.086 C 85.066 215.133, 69.372 215.515, 67.994 215.934 M 84.223 248.015 C 70.823 250.803, 59.334 263.253, 57.704 276.750 C 57.190 281, 57.190 281, 65.964 281 C 74.738 281, 74.738 281, 75.308 277.490 C 76.508 270.096, 82.890 265, 90.951 265 C 98.330 265, 105.264 270.562, 106.572 277.529 C 107.223 281, 107.223 281, 115.611 281 C 124 281, 124 281, 123.958 277.750 C 123.858 269.878, 117.450 258.621, 110.241 253.652 C 102.751 248.489, 92.558 246.280, 84.223 248.015 M 165 248.549 C 151.915 252.186, 142.171 263.176, 140.368 276.331 C 139.728 281, 139.728 281, 148.285 281 C 156.836 281, 156.841 280.998, 157.454 278.210 C 159.216 270.188, 165.513 265.007, 173.500 265.007 C 181.489 265.007, 187.374 269.690, 188.920 277.275 C 189.577 280.500, 189.577 280.500, 198.289 280.789 C 208.463 281.126, 208.292 281.394, 204.900 270.413 C 203.118 264.642, 201.873 262.700, 196.650 257.548 C 187.504 248.526, 176.421 245.374, 165 248.549 M 24.922 267.274 C 23.066 268.524, 20.524 271.066, 19.274 272.922 C 13.577 281.375, 19.308 294.256, 29.750 296.470 C 33 297.159, 33 297.159, 33 281.079 C 33 265, 33 265, 30.648 265 C 29.354 265, 26.777 266.023, 24.922 267.274 M 232 280.983 C 232 297.217, 232 297.217, 234.750 296.563 C 241.509 294.957, 247 288.094, 247 281.253 C 247 273.147, 242.238 266.798, 235.084 265.367 C 232 264.750, 232 264.750, 232 280.983 M 90.020 300.750 C 90.125 320.320, 99.204 335.938, 114.759 343.307 C 121.015 346.270, 122.260 346.500, 132.052 346.500 C 142.237 346.500, 142.868 346.369, 150.223 342.734 C 165.528 335.170, 174 320.785, 174 302.364 C 174 297, 174 297, 132 297 C 90 297, 90 297, 90.020 300.750 M 437 305.500 C 437 314, 437 314, 474.500 314 C 512 314, 512 314, 512 305.500 C 512 297, 512 297, 474.500 297 C 437 297, 437 297, 437 305.500 M 110.514 316.750 C 116.064 325.499, 122.641 329.388, 132 329.454 C 141.489 329.521, 149.413 324.904, 153.555 316.894 C 155.051 314, 155.051 314, 131.911 314 C 108.770 314, 108.770 314, 110.514 316.750 M 437 338.500 C 437 347, 437 347, 446 347 C 455 347, 455 347, 455 338.500 C 455 330, 455 330, 446 330 C 437 330, 437 330, 437 338.500 M 470 338.500 C 470 347, 470 347, 491 347 C 512 347, 512 347, 512 338.500 C 512 330, 512 330, 491 330 C 470 330, 470 330, 470 338.500 M 272.137 332.357 C 267.032 334.223, 261.476 339.394, 258.854 344.719 C 256.516 349.467, 256.498 349.777, 256.199 390.107 C 255.898 430.715, 255.898 430.715, 258.835 431.932 C 266.670 435.177, 272.090 444.040, 272.790 454.750 C 273.263 462, 273.263 462, 338.655 462 C 404.048 462, 404.048 462, 403.774 404.671 C 403.500 347.341, 403.500 347.341, 400.474 342.447 C 398.599 339.415, 395.585 336.401, 392.553 334.526 C 387.659 331.500, 387.659 331.500, 331.579 331.314 C 289.307 331.173, 274.672 331.430, 272.137 332.357 M 285.123 347.002 C 280.246 348.154, 276.816 350.998, 274.250 356.020 C 272.038 360.349, 272 361.039, 272.022 396.462 C 272.047 436.785, 272.262 438.198, 279.133 443.099 C 282.500 445.500, 282.500 445.500, 329.561 445.778 C 376.621 446.056, 376.621 446.056, 379.969 443.778 C 384.405 440.759, 386.934 437.202, 388.043 432.423 C 389.358 426.751, 389.242 366.227, 387.904 359.986 C 386.507 353.473, 381.997 348.740, 375.671 347.147 C 370.404 345.821, 290.667 345.693, 285.123 347.002 M 437 371.500 C 437 380, 437 380, 474.500 380 C 512 380, 512 380, 512 371.500 C 512 363, 512 363, 474.500 363 C 437 363, 437 363, 437 371.500 M 289 396.500 C 289 429, 289 429, 330 429 C 371 429, 371 429, 371 396.500 C 371 364, 371 364, 330 364 C 289 364, 289 364, 289 396.500 M 109.144 381.091 C 101.032 383.560, 94.247 390.485, 92.088 398.500 C 90.624 403.938, 90.653 455.265, 92.124 462.201 C 94.406 472.955, 102.307 484.059, 111.516 489.456 C 120.235 494.566, 124.364 495, 164.256 495 C 201.091 495, 201.091 495, 203.545 492.545 C 205.984 490.107, 206 489.968, 205.968 470.795 C 205.946 457.206, 205.576 451.031, 204.718 449.913 C 201.982 446.349, 199.436 446, 176.200 446 C 153.268 446, 153.268 446, 146.384 456.482 C 142.598 462.248, 139.138 466.973, 138.695 466.982 C 138.074 466.996, 127.224 460.113, 125.091 458.353 C 124.866 458.167, 128.128 452.840, 132.341 446.515 C 140 435.014, 140 435.014, 139.994 418.257 C 139.988 399.483, 139.318 395.883, 134.701 389.830 C 129.085 382.467, 117.565 378.528, 109.144 381.091 M 155.607 393.690 C 156.536 396.776, 157 403.430, 157 413.659 C 157 429, 157 429, 172.946 429 C 188.892 429, 188.892 429, 187.335 423.750 C 182.873 408.711, 172.017 396.497, 157.857 390.584 C 154.215 389.063, 154.215 389.063, 155.607 393.690 M 437 404.500 C 437 413, 437 413, 474.500 413 C 512 413, 512 413, 512 404.500 C 512 396, 512 396, 474.500 396 C 437 396, 437 396, 437 404.500 M 222.364 447.506 C 222.714 448.418, 223 452.052, 223 455.582 C 223 462, 223 462, 239.624 462 C 256.248 462, 256.248 462, 255.787 456.441 C 255.019 447.188, 253.839 446.564, 236.339 446.174 C 223.066 445.878, 221.786 446, 222.364 447.506 M 223 485.418 C 223 488.948, 222.724 492.555, 222.387 493.433 C 221.828 494.890, 230.059 495.007, 316.137 494.765 C 410.500 494.500, 410.500 494.500, 413.867 492.099 C 416.949 489.900, 420.925 483.276, 420.978 480.250 C 420.995 479.258, 400.545 479, 322 479 C 223 479, 223 479, 223 485.418" 
        stroke="none" 
        fill="url(#myGradient)" 
        fill-rule="evenodd"
    />
</svg>