<svg width="200" height="200" viewBox="0 0 200 200" fill="none" xmlns="http://www.w3.org/2000/svg">
<rect width="200" height="200" fill="black"/>
<path d="M33.3333 76.4001C33.3333 84.0112 39.5033 90.1812 47.1144 90.1812C54.7255 90.1812 60.8956 84.0112 60.8956 76.4001C60.8956 68.789 54.7255 62.6189 47.1144 62.6189C39.5033 62.6189 33.3333 68.789 33.3333 76.4001Z" fill="#FFCC33"/>
<path d="M33.3333 145.306C33.3333 152.917 39.5033 159.087 47.1144 159.087C54.7255 159.087 60.8956 152.917 60.8956 145.306C60.8956 137.695 54.7255 131.524 47.1144 131.524C39.5033 131.524 33.3333 137.695 33.3333 145.306Z" fill="#FFCC33"/>
<path d="M38.501 110.854C38.501 115.611 42.3573 119.467 47.1143 119.467C51.8714 119.467 55.7277 115.611 55.7277 110.854C55.7277 106.097 51.8714 102.24 47.1143 102.24C42.3573 102.24 38.501 106.097 38.501 110.854Z" fill="#FFCC33"/>
<path d="M38.501 41.9467C38.501 46.7037 42.3573 50.56 47.1143 50.56C51.8714 50.56 55.7277 46.7037 55.7277 41.9467C55.7277 37.1897 51.8714 33.3333 47.1143 33.3333C42.3573 33.3333 38.501 37.1897 38.501 41.9467Z" fill="#FFCC33"/>
<path d="M86.2186 123.6C86.2186 131.211 92.3887 137.381 99.9998 137.381C107.611 137.381 113.781 131.211 113.781 123.6C113.781 115.989 107.611 109.819 99.9998 109.819C92.3887 109.819 86.2186 115.989 86.2186 123.6Z" fill="#FFCC33"/>
<path d="M91.3864 158.054C91.3864 162.811 95.2427 166.667 99.9998 166.667C104.757 166.667 108.613 162.811 108.613 158.054C108.613 153.297 104.757 149.44 99.9998 149.44C95.2427 149.44 91.3864 153.297 91.3864 158.054Z" fill="#FFCC33"/>
<path d="M91.3864 89.1478C91.3864 93.9048 95.2427 97.7612 99.9998 97.7612C104.757 97.7612 108.613 93.9048 108.613 89.1478C108.613 84.3908 104.757 80.5345 99.9998 80.5345C95.2427 80.5345 91.3864 84.3908 91.3864 89.1478Z" fill="#FFCC33"/>
<path d="M91.3864 54.6944C91.3864 59.4514 95.2427 63.3077 99.9998 63.3077C104.757 63.3077 108.613 59.4514 108.613 54.6944C108.613 49.9374 104.757 46.0811 99.9998 46.0811C95.2427 46.0811 91.3864 49.9374 91.3864 54.6944Z" fill="#FFCC33"/>
<path d="M139.104 76.4001C139.104 84.0112 145.274 90.1812 152.886 90.1812C160.497 90.1812 166.667 84.0112 166.667 76.4001C166.667 68.789 160.497 62.6189 152.886 62.6189C145.274 62.6189 139.104 68.789 139.104 76.4001Z" fill="#FFCC33"/>
<path d="M144.272 41.9467C144.272 46.7037 148.129 50.56 152.886 50.56C157.643 50.56 161.499 46.7037 161.499 41.9467C161.499 37.1897 157.643 33.3333 152.886 33.3333C148.129 33.3333 144.272 37.1897 144.272 41.9467Z" fill="#FFCC33"/>
<path d="M144.272 110.854C144.272 115.611 148.129 119.467 152.886 119.467C157.643 119.467 161.499 115.611 161.499 110.854C161.499 106.097 157.643 102.24 152.886 102.24C148.129 102.24 144.272 106.097 144.272 110.854Z" fill="#FFCC33"/>
<path d="M144.272 145.306C144.272 150.063 148.129 153.919 152.886 153.919C157.643 153.919 161.499 150.063 161.499 145.306C161.499 140.549 157.643 136.692 152.886 136.692C148.129 136.692 144.272 140.549 144.272 145.306Z" fill="#FFCC33"/>
</svg>
